<?xml version="1.0" encoding="UTF-8"?>
<svg version="1.1" xmlns="http://www.w3.org/2000/svg" width="512" height="512">
<path d="M0 0 C0.92745169 -0.00538554 1.85490338 -0.01077108 2.81045967 -0.01631981 C5.90177672 -0.03056684 8.9926636 -0.02350365 12.08399963 -0.01637268 C14.30700524 -0.02207792 16.53000791 -0.02904278 18.75300598 -0.03717041 C24.77984615 -0.05509937 30.80654071 -0.05393392 36.83339953 -0.04822803 C41.86823831 -0.04513594 46.90304912 -0.05122883 51.93788391 -0.05726677 C64.4956276 -0.07211182 77.05330105 -0.06849921 89.61103971 -0.05640347 C100.50384672 -0.04647158 111.39648386 -0.05941323 122.28926467 -0.08333766 C133.48912469 -0.10775018 144.68892319 -0.11693193 155.88881356 -0.11068493 C162.17066412 -0.10731557 168.45237434 -0.10972935 174.73420525 -0.12693596 C180.64157529 -0.14241103 186.54862113 -0.13844293 192.45597839 -0.11963081 C194.62109376 -0.11594661 196.78623318 -0.11904845 198.95132637 -0.1295166 C201.91274741 -0.14273933 204.87309714 -0.13116718 207.83447266 -0.11352539 C208.68604539 -0.1231304 209.53761812 -0.1327354 210.41499609 -0.14263147 C218.79240289 -0.04033385 225.79885243 3.01870463 231.9768219 8.6806488 C239.02712141 16.68319656 238.71050606 26.35257084 238.79322815 36.45018005 C238.82223206 37.63418396 238.85123596 38.81818787 238.88111877 40.03807068 C238.88949768 41.17566833 238.89787659 42.31326599 238.9065094 43.4853363 C238.92838318 45.04006653 238.92838318 45.04006653 238.95069885 46.62620544 C238.48072815 49.38768005 238.48072815 49.38768005 237.02540588 51.7184906 C233.23039489 54.20784013 229.79138126 53.99065336 225.34010315 53.99705505 C224.45792114 54.01359131 223.57573914 54.03012756 222.66682434 54.04716492 C219.85472165 54.09567199 217.04315983 54.1170216 214.23072815 54.13768005 C212.32184673 54.16583751 210.41299054 54.19576462 208.50416565 54.2275238 C203.82973101 54.3014316 199.15559709 54.35098961 194.48072815 54.38768005 C194.79308411 55.30222458 195.10544006 56.2167691 195.42726135 57.1590271 C198.42590395 66.00471283 201.14434617 74.89699825 203.66822815 83.8915863 C204.0516779 85.24809351 204.4354454 86.60451093 204.81950378 87.96084595 C205.83504402 91.55059208 206.84634767 95.14151747 207.85659027 98.73275757 C208.90802592 102.4682736 209.96283398 106.20283714 211.01734924 109.93748474 C212.29095499 114.44878565 213.56417429 118.96019394 214.83555603 123.47212219 C217.40169997 132.57753091 219.98434449 141.67800347 222.58229065 150.7743988 C223.47794907 153.91695896 224.37322271 157.05962843 225.26832581 160.2023468 C225.82218722 162.1437885 226.3775024 164.08481612 226.93434143 166.02540588 C227.69614361 168.68145894 228.45235886 171.33904251 229.20729065 173.99705505 C229.42615936 174.75439438 229.64502808 175.5117337 229.87052917 176.29202271 C231.10169387 180.65129245 231.93958671 184.88874976 232.48072815 189.38768005 C233.55322815 188.62455505 234.62572815 187.86143005 235.73072815 187.07518005 C244.95516832 181.38488392 254.94894838 180.41127922 265.48072815 182.38768005 C275.17285823 185.28040811 282.0814923 191.28279275 287.9377594 199.3368988 C293.58183699 210.49645474 292.9217887 222.27389338 292.87916565 234.4540863 C292.88119021 236.49949243 292.88410482 238.54489784 292.88786316 240.59030151 C292.8922675 244.86096624 292.8859159 249.13144175 292.87184143 253.40208435 C292.85473992 258.85461498 292.86460905 264.3067028 292.88255882 269.75921726 C292.89343856 273.97761323 292.88993131 278.19590551 292.88217545 282.41430473 C292.88018558 284.42399588 292.88258968 286.43369669 292.88961411 288.44337654 C292.89729914 291.25912784 292.88552692 294.07417778 292.86891174 296.88987732 C292.87498444 297.70626175 292.88105713 298.52264618 292.88731384 299.36376953 C292.76935022 310.24563331 289.11311061 319.48708891 281.5940094 327.36424255 C272.70471043 335.5724361 264.33335091 337.88613865 252.38697815 337.6728363 C244.15410991 337.07183692 238.21625592 333.93388684 231.48072815 329.38768005 C231.48349353 329.95237 231.48625891 330.51705994 231.48910809 331.09886169 C231.55546964 344.86287229 231.60486635 358.62685471 231.63616467 372.39099121 C231.65181004 379.04734584 231.67302797 385.70355413 231.70704651 392.35984802 C231.73967968 398.78539667 231.75758967 405.21083422 231.76535988 411.63645935 C231.77089623 414.08602141 231.78170735 416.53557749 231.79791832 418.98509216 C231.81974465 422.4202023 231.82269282 425.8548553 231.82130432 429.2900238 C231.83748306 430.80377846 231.83748306 430.80377846 231.85398865 432.34811401 C231.82759714 438.39544261 230.95475964 442.85575903 228.48072815 448.38768005 C229.67673645 448.39702576 230.87274475 448.40637146 232.10499573 448.41600037 C236.53896953 448.45584819 240.97224563 448.52159196 245.40577698 448.59519958 C247.32528222 448.62343954 249.2449044 448.644639 251.16456604 448.65867615 C253.92290753 448.68006417 256.67983852 448.72669138 259.4377594 448.77830505 C260.29722672 448.77953369 261.15669403 448.78076233 262.04220581 448.7820282 C267.92034213 448.92680496 267.92034213 448.92680496 270.52101135 451.06565857 C271.69484421 453.9057309 271.8688731 456.07413219 271.87916565 459.1493988 C271.88303284 460.26894958 271.88690002 461.38850037 271.8908844 462.54197693 C271.87348206 464.29091248 271.87348206 464.29091248 271.85572815 466.07518005 C271.86732971 467.22180115 271.87893127 468.36842224 271.8908844 469.54978943 C271.85781362 479.17889863 270.39190892 486.97028214 264.2893219 494.5947113 C258.42930509 500.40410161 251.46717538 502.50752878 243.38000202 502.51910782 C242.36951245 502.52294896 241.35902287 502.52679011 240.3179124 502.53074765 C238.66326442 502.52944793 238.66326442 502.52944793 236.97518921 502.52812195 C235.79782611 502.53109307 234.62046301 502.53406419 233.40742224 502.53712535 C230.14296185 502.54429714 226.87853355 502.54698401 223.61406648 502.54772282 C220.09177016 502.54957623 216.56948518 502.55712503 213.04719543 502.56385803 C205.34665401 502.5774304 197.64611781 502.58346441 189.94556642 502.58786869 C185.13541888 502.59063305 180.32527336 502.59487076 175.51512718 502.59937286 C162.19189613 502.61156425 148.86866669 502.62186372 135.54543018 502.62524796 C134.69298176 502.62546752 133.84053333 502.62568709 132.96225313 502.62591331 C132.10778826 502.62613158 131.25332338 502.62634986 130.37296563 502.62657475 C128.64155249 502.62701822 126.91013934 502.62746478 125.1787262 502.62791443 C123.89047061 502.62824657 123.89047061 502.62824657 122.57618966 502.62858543 C108.66404077 502.63253234 94.7519443 502.64998369 80.83981565 502.67327395 C66.54947017 502.69700386 52.25915097 502.70945056 37.96878546 502.71061587 C29.94810264 502.71153173 21.9274881 502.71726144 13.90682411 502.73543549 C7.0762264 502.75085863 0.24571809 502.75594391 -6.58489373 502.74769738 C-10.06766799 502.74379865 -13.55026233 502.7446822 -17.0330143 502.75875473 C-20.8151021 502.7714604 -24.59672998 502.76560423 -28.3788147 502.75517273 C-29.47075974 502.76322913 -30.56270479 502.77128554 -31.68773907 502.77958608 C-40.23611806 502.72454853 -48.85007441 501.76358563 -55.39427185 495.76268005 C-56.44227966 494.84615662 -56.44227966 494.84615662 -57.51145935 493.91111755 C-63.64515538 486.2022311 -64.13642052 478.72929946 -63.98582458 469.05613708 C-63.95652443 466.99527759 -63.96531709 464.93694562 -63.97825623 462.8759613 C-63.91413716 452.90298013 -63.91413716 452.90298013 -62.24479675 450.7244873 C-60.14413148 449.09704944 -59.13788029 449.02220426 -56.50682068 449.04710388 C-55.70621719 449.04733047 -54.90561371 449.04755707 -54.08074951 449.04779053 C-53.2212822 449.06327438 -52.36181488 449.07875824 -51.4763031 449.0947113 C-50.59270615 449.09895615 -49.70910919 449.10320099 -48.79873657 449.10757446 C-45.97610524 449.12436962 -43.15418744 449.16202309 -40.33177185 449.20018005 C-38.4183707 449.21522582 -36.50495836 449.22891441 -34.59153748 449.24119568 C-29.90050726 449.27427587 -25.21001054 449.32606375 -20.51927185 449.38768005 C-21.24839531 448.00068153 -21.24839531 448.00068153 -21.99224854 446.58566284 C-24.13072771 441.55675213 -23.95914662 436.61179836 -23.9516449 431.21995544 C-23.96693237 429.56519196 -23.96693237 429.56519196 -23.98252869 427.8769989 C-24.0126182 424.24639276 -24.02191875 420.61605067 -24.0309906 416.9853363 C-24.04784022 414.46184414 -24.06599084 411.93836035 -24.08538818 409.41488647 C-24.12801602 403.46171957 -24.15756471 397.50857963 -24.18071157 391.55531353 C-24.20781245 384.77406298 -24.25172077 377.99295329 -24.29700029 371.21180356 C-24.38971556 357.27050568 -24.46145612 343.32916324 -24.51927185 329.38768005 C-24.99993103 329.7353392 -25.48059021 330.08299835 -25.97581482 330.44119263 C-26.60632751 330.89492752 -27.23684021 331.34866241 -27.88645935 331.81614685 C-28.51149353 332.266931 -29.13652771 332.71771515 -29.78050232 333.18215942 C-37.35268433 338.43209132 -46.66356352 338.20627494 -55.51927185 337.38768005 C-66.25557836 335.1102817 -74.24398916 329.05609068 -80.23020935 319.98924255 C-83.74811298 312.8894734 -84.96417128 306.40730098 -84.92332458 298.52854919 C-84.93018784 297.58744797 -84.93705109 296.64634674 -84.94412231 295.67672729 C-84.96229716 292.5919398 -84.95856618 289.50766541 -84.9528656 286.4228363 C-84.95743176 284.26246985 -84.96273862 282.10210486 -84.96875 279.94174194 C-84.97766276 275.4237425 -84.97527871 270.90591999 -84.96531677 266.38792419 C-84.95382778 260.61689347 -84.97404736 254.84647471 -85.00323391 249.07552433 C-85.02163667 244.61692467 -85.02129533 240.15847058 -85.01559639 235.69984245 C-85.01544368 233.57291747 -85.02144574 231.4459823 -85.03388786 229.3190937 C-85.04887363 226.33774751 -85.03806513 223.35751825 -85.02098083 220.37620544 C-85.0306488 219.50992523 -85.04031677 218.64364502 -85.05027771 217.75111389 C-84.9359302 208.1545296 -81.24475375 199.35574316 -74.6169281 192.38768005 C-65.76483362 183.92451767 -56.69159827 181.25005325 -44.51927185 181.38768005 C-37.01757819 182.13554829 -30.72647259 185.24954622 -24.51927185 189.38768005 C-24.44536728 188.77689102 -24.37146271 188.16610199 -24.2953186 187.5368042 C-22.72495765 176.55201476 -19.48738417 166.01655169 -16.4450531 155.3681488 C-15.83641314 153.2209366 -15.22828374 151.07357963 -14.62063599 148.92608643 C-13.34770452 144.43241831 -12.07056742 139.9399758 -10.7900238 135.44847107 C-9.16836706 129.76029765 -7.55415523 124.07004852 -5.9428072 118.37894726 C-4.68607414 113.94160287 -3.42678364 109.50498761 -2.1666317 105.06861305 C-1.57191786 102.97488829 -0.97760363 100.88104997 -0.38373756 98.78708458 C2.76929744 87.67942351 5.98837442 76.59487988 9.33937073 65.54515076 C9.63884707 64.55542109 9.93832342 63.56569143 10.24687481 62.54596996 C10.52468194 61.63608979 10.80248907 60.72620962 11.0887146 59.78875732 C11.33385205 58.98510396 11.57898951 58.1814506 11.83155537 57.3534441 C12.48072815 55.38768005 12.48072815 55.38768005 13.48072815 53.38768005 C12.28995667 53.4033905 11.09918518 53.41910095 9.87232971 53.43528748 C5.45182568 53.48961293 1.03135113 53.52403968 -3.38938904 53.55247498 C-5.30219994 53.56755563 -7.21497631 53.58802315 -9.12767029 53.61399841 C-11.87808255 53.65041353 -14.6280374 53.66741355 -17.37864685 53.6806488 C-18.6601059 53.70387459 -18.6601059 53.70387459 -19.967453 53.72756958 C-23.38037347 53.72853562 -25.90637354 53.65639469 -29.05516052 52.27586365 C-32.14219014 48.29469189 -31.14097498 42.71837938 -31.09568787 37.89329529 C-31.08197389 35.85520555 -31.11568386 33.82185488 -31.15403748 31.78416443 C-31.14033392 22.51599277 -29.9688275 15.23725802 -23.55857849 8.25071716 C-16.67349255 1.55625325 -9.2891391 -0.06538759 0 0 Z M-14.26145935 16.88768005 C-20.51405257 25.1669759 -18.51927185 27.61919155 -18.51927185 40.38768005 C62.00072815 40.38768005 142.52072815 40.38768005 225.48072815 40.38768005 C227.14482874 23.68198051 227.14482874 23.68198051 221.48072815 16.38768005 C216.48667448 11.86181892 211.19398646 12.24053884 204.73272705 12.24723816 C203.39356199 12.24278148 203.39356199 12.24278148 202.02734309 12.23823476 C199.0296176 12.22954885 196.03193204 12.2280396 193.03419495 12.22654724 C190.88735366 12.22191902 188.74051321 12.21689436 186.59367371 12.21150208 C180.75685016 12.19837717 174.92003812 12.19193303 169.08320212 12.18749142 C165.43744295 12.18456108 161.79168693 12.18045636 158.14592934 12.17598724 C146.74159023 12.1623126 135.33725831 12.15264556 123.93291157 12.14878535 C110.76360837 12.14430335 97.59440889 12.12674864 84.42513722 12.09778476 C74.2483838 12.0761785 64.07165958 12.06608165 53.89488345 12.06474423 C47.81537663 12.06369553 41.73596731 12.05777364 35.6564846 12.03992462 C29.93801265 12.02346209 24.2197117 12.02127968 18.50122452 12.03006363 C16.40299459 12.03083495 14.30475553 12.0264788 12.20654869 12.01660538 C9.34072178 12.00391118 6.47550285 12.00974908 3.60968018 12.02018738 C2.36618121 12.00810277 2.36618121 12.00810277 1.09756106 11.99577403 C-4.73609523 12.04542041 -9.68635216 12.94857431 -14.26145935 16.88768005 Z M25.48072815 58.38768005 C23.72748111 61.60999479 22.56664395 64.89015002 21.48072815 68.38768005 C21.21887222 69.21019005 20.9570163 70.03270004 20.68722534 70.88013458 C19.89601905 73.46522425 19.15604308 76.06049058 18.42799377 78.66404724 C18.01247505 80.12480179 18.01247505 80.12480179 17.58856201 81.61506653 C16.68295083 84.80347996 15.78492361 87.99397513 14.88697815 91.18455505 C14.252564 93.42372329 13.61766805 95.66275507 12.98231506 97.9016571 C11.31544447 103.78030821 9.65498622 109.66075138 7.9959259 115.54161072 C6.31626264 121.49137324 4.6307211 127.43946945 2.9455719 133.38768005 C1.04619976 140.0934537 -0.85254536 146.79940077 -2.74717712 153.5065155 C-3.03755356 154.53445221 -3.32792999 155.56238892 -3.62710571 156.62147522 C-4.16014806 158.50887126 -4.69301564 160.39631667 -5.22564697 162.28382874 C-5.46937546 163.14686615 -5.71310394 164.00990356 -5.96421814 164.89909363 C-6.32862078 166.23219322 -6.32862078 166.23219322 -6.70038509 167.59222412 C-7.26357269 169.51479288 -7.89497905 171.41825955 -8.58114719 173.30044556 C-12.60669169 185.07818154 -12.07441029 196.88564699 -12.02098083 209.19822693 C-12.02476906 211.69299117 -12.03027323 214.1877533 -12.03735352 216.68251038 C-12.04981476 222.72397597 -12.0437935 228.76515777 -12.02867793 234.80659562 C-12.01173189 241.85001479 -12.01503848 248.89338276 -12.01877201 255.93681604 C-12.02463452 268.50283651 -12.01053781 281.06875639 -11.98582458 293.63475037 C-11.96186751 305.81773134 -11.95483827 318.00057818 -11.96531677 330.18357849 C-11.97672835 343.47512758 -11.97865625 356.76661483 -11.96421868 370.05816317 C-11.96269292 371.4752175 -11.96117256 372.89227183 -11.95965767 374.30932617 C-11.95889985 375.00643608 -11.95814204 375.70354599 -11.95736126 376.42178044 C-11.9526235 381.32834599 -11.95446597 386.23488385 -11.95872307 391.14144897 C-11.96416595 397.74075189 -11.95340109 404.33989607 -11.93176842 410.93917465 C-11.9261989 413.36194609 -11.92573674 415.78473538 -11.93072128 418.20750809 C-11.9366664 421.5110586 -11.9241835 424.81403931 -11.9069519 428.11753845 C-11.91296195 429.07881259 -11.918972 430.04008674 -11.92516416 431.0304904 C-11.87569469 436.2359287 -11.44873496 439.89544758 -8.51927185 444.38768005 C-3.30683228 449.20918666 0.84828948 449.53557319 7.69760132 449.52812195 C8.54531009 449.53109307 9.39301886 449.53406419 10.26641577 449.53712535 C13.11756691 449.54582283 15.96867611 449.54732148 18.81983948 449.54881287 C20.85978282 449.55344028 22.89972529 449.55846484 24.93966675 449.56385803 C30.48930142 449.57699108 36.038924 449.58342872 41.58857179 449.58786869 C45.05424491 449.59079786 48.51991471 449.59490236 51.98558617 449.59937286 C62.82448843 449.61304996 73.66338311 449.62271567 84.50229341 449.62657475 C97.02243317 449.63105667 109.54246382 449.64860994 122.06257039 449.67757535 C131.73483372 449.69917702 141.40706631 449.70927822 151.07935351 449.71061587 C156.85870885 449.71166495 162.63796166 449.71759473 168.41729164 449.73543549 C173.85340305 449.75189002 179.28933455 449.75408436 184.72546196 449.74529648 C186.72090765 449.74452471 188.71636292 449.74888716 190.71178436 449.75875473 C193.43570612 449.77143505 196.15898694 449.76561873 198.88290405 449.75517273 C199.67269789 449.76322913 200.46249173 449.77128554 201.27621871 449.77958608 C206.80188779 449.73002006 210.95139149 448.64065214 215.1252594 444.9228363 C218.56650965 440.5838686 219.58646457 437.58582408 219.64846897 432.15036488 C219.6603272 431.30670362 219.67218543 430.46304237 219.684403 429.59381562 C219.69240408 428.67161074 219.70040515 427.74940586 219.70864868 426.79925537 C219.72079216 425.81516683 219.73293564 424.83107829 219.7454471 423.81716889 C219.78466091 420.50778196 219.81656183 417.19836861 219.84815979 413.88890076 C219.87407068 411.51776924 219.90018343 409.14663993 219.92648315 406.7755127 C220.15927478 384.9258548 220.28861256 363.07520308 220.39185429 341.22459126 C220.40599662 338.2848936 220.42041321 335.34519743 220.43507385 332.40550232 C220.43870532 331.67506233 220.44233678 330.94462233 220.44607829 330.1920478 C220.50592567 318.49980791 220.62537141 306.80896955 220.7693084 295.1174954 C220.91687004 283.02714576 220.99966654 270.93750491 221.0268144 258.84628171 C221.04363506 252.09321489 221.08774064 245.34334386 221.20297432 238.59101295 C221.80859187 201.54027848 216.86976534 170.34452362 205.38844872 135.30511475 C202.91057712 127.71340674 200.77060768 120.03561629 198.67259562 112.33196211 C197.76086133 109.00635935 196.81476619 105.69075344 195.87135315 102.37400818 C194.77429404 98.50948209 193.67895663 94.64453814 192.5940094 90.77659607 C191.4870222 86.83060104 190.36716063 82.88836573 189.24635315 78.9462738 C188.92346313 77.78832809 188.60057312 76.63038239 188.26789856 75.43734741 C185.00493319 63.68545265 185.00493319 63.68545265 177.48072815 54.38768005 C174.32691423 53.33640875 172.08841196 53.25160725 168.77619934 53.23377991 C167.58738159 53.22517944 166.39856384 53.21657898 165.17372131 53.2077179 C163.86769958 53.20345795 162.56167786 53.199198 161.21607971 53.19480896 C159.82799576 53.18690605 158.43991386 53.17863698 157.05183411 53.17002869 C152.49169369 53.14383016 147.93154419 53.12850311 143.37135315 53.11424255 C141.80050908 53.10888196 140.22966506 53.10350445 138.65882111 53.0981102 C132.12372762 53.07648456 125.58863659 53.05774848 119.05351639 53.04648781 C109.69322987 53.03025202 100.33335866 52.99708004 90.97322869 52.94008696 C84.38882451 52.90136425 77.80453129 52.88185238 71.22001624 52.87656724 C67.28880989 52.8729169 63.35804672 52.86093016 59.42696381 52.82846451 C55.72664017 52.79834234 52.02702691 52.79208624 48.32660675 52.80384827 C46.32761985 52.80417344 44.32867651 52.77973533 42.32984924 52.75447083 C32.73607851 52.77410402 32.73607851 52.77410402 25.48072815 58.38768005 Z M-66.6247406 201.9853363 C-74.24544324 211.64870151 -73.10588834 223.30408699 -73.05052185 234.9540863 C-73.05322066 236.95847766 -73.05710631 238.96286773 -73.06211853 240.96725464 C-73.06799391 245.1539922 -73.0595131 249.34038686 -73.04075623 253.52708435 C-73.01795321 258.87561325 -73.03111101 264.22333972 -73.05504608 269.57183933 C-73.06954452 273.70615617 -73.06487978 277.84028476 -73.05453491 281.97460747 C-73.05187957 283.94605036 -73.05509508 285.91751072 -73.06445312 287.88893318 C-73.07468733 290.65012109 -73.05902308 293.41003367 -73.03684998 296.17112732 C-73.0449469 296.97397659 -73.05304382 297.77682587 -73.06138611 298.60400391 C-72.93556237 307.12227116 -69.59435606 314.45066594 -63.51927185 320.38768005 C-57.41526409 324.1889783 -51.75227323 325.97098662 -44.51927185 325.38768005 C-37.36788022 323.4791093 -31.9950143 320.3345579 -27.51927185 314.38768005 C-23.80543606 307.96041442 -23.3696907 301.42631652 -23.37400818 294.16014099 C-23.37064957 293.344814 -23.36729095 292.529487 -23.36383057 291.68945312 C-23.35435044 289.00030483 -23.35237877 286.31121902 -23.3513031 283.62205505 C-23.34808792 281.74504064 -23.34472365 279.86802647 -23.34121704 277.99101257 C-23.33523272 274.05698567 -23.33337637 270.12298072 -23.33396912 266.18894958 C-23.33407057 261.16446561 -23.32043258 256.14012348 -23.30319691 251.11567307 C-23.29203993 247.2378933 -23.29005106 243.36014738 -23.29057884 239.48235321 C-23.28940375 237.63092308 -23.28500859 235.77949193 -23.27724648 233.9280777 C-23.267374 231.32955199 -23.27035327 228.73132853 -23.27635193 226.13279724 C-23.27073242 225.37819717 -23.26511292 224.62359711 -23.25932312 223.84613037 C-23.31278999 214.66388495 -24.89544458 207.04049562 -31.51927185 200.38768005 C-43.4093104 191.32967337 -55.24378676 192.8759374 -66.6247406 201.9853363 Z M236.0236969 204.0947113 C231.90382206 210.21715822 231.03928119 215.28631355 231.09254456 222.50071716 C231.0872876 223.3862175 231.08203064 224.27171783 231.07661438 225.18405151 C231.06347247 228.0945581 231.07213264 231.00451219 231.08229065 233.9150238 C231.08026807 235.94851791 231.07735509 237.9820113 231.07359314 240.01550293 C231.06917749 244.27138698 231.07557578 248.52708174 231.08961487 252.78294373 C231.10669527 258.22457696 231.09686785 263.66576587 231.07889748 269.10738277 C231.06802986 273.30511795 231.07151984 277.50274872 231.07928085 281.70048714 C231.08127519 283.70624914 231.07885064 285.71202078 231.07184219 287.71777153 C231.06417988 290.52718394 231.07589914 293.3358884 231.09254456 296.14524841 C231.08647186 296.96575684 231.08039917 297.78626526 231.07414246 298.63163757 C231.16011192 306.50741257 233.35458477 312.97215437 238.7346344 318.84861755 C243.54233949 323.08628155 249.30946454 325.07055369 255.60572815 325.70018005 C263.47673456 325.06542147 269.76642951 322.10504726 275.0783844 316.2431488 C280.46014868 309.12243005 280.6313391 300.79192679 280.62599182 292.20848083 C280.62935043 291.4221225 280.63270905 290.63576416 280.63616943 289.82557678 C280.64561213 287.24469898 280.64761909 284.66388651 280.6486969 282.08299255 C280.65191386 280.27609735 280.65527826 278.46920241 280.65878296 276.66230774 C280.66475733 272.88146867 280.66662457 269.10065241 280.66603088 265.31980896 C280.6659293 260.49267677 280.67958543 255.66569177 280.69680309 250.83859444 C280.70796065 247.10836627 280.70994895 243.37817329 280.70942116 239.64793015 C280.71059546 237.86906807 280.71498613 236.09020491 280.72275352 234.31135941 C280.73263066 231.81602617 280.72964534 229.32100742 280.72364807 226.82566833 C280.72926758 226.10226257 280.73488708 225.37885681 280.74067688 224.63352966 C280.68439794 215.34581616 278.73781255 207.45257184 272.48072815 200.38768005 C260.11070457 190.56648931 246.0757959 192.51450224 236.0236969 204.0947113 Z M-51.51927185 461.38768005 C-52.78637704 476.97150367 -52.78637704 476.97150367 -48.51927185 484.38768005 C-44.49082673 488.02310614 -42.11699918 489.51098301 -36.74528122 489.52190113 C-35.7313312 489.52635897 -34.71738119 489.53081682 -33.67270541 489.53540975 C-31.98918408 489.5351332 -31.98918408 489.5351332 -30.27165222 489.53485107 C-29.08586303 489.53852776 -27.90007384 489.54220445 -26.67835164 489.54599255 C-23.37658211 489.55513125 -20.07486234 489.55973167 -16.77308488 489.56238186 C-13.21604528 489.56628062 -9.65902014 489.57585926 -6.10198975 489.58459473 C2.49349402 489.6043715 11.08897899 489.61442698 19.68447983 489.62332252 C23.73025917 489.62770352 27.77603719 489.63307082 31.82181549 489.63831139 C45.26760206 489.65532504 58.71338781 489.66981973 72.1591835 489.67706013 C75.64966584 489.67897009 79.14014818 489.68089041 82.63063049 489.68284607 C83.49819453 489.68332981 84.36575856 489.68381355 85.25961241 489.68431195 C99.31693438 489.69261413 113.3741713 489.71795359 127.43145612 489.75042675 C141.85728843 489.78348011 156.28307751 489.80150733 170.7089479 489.80470437 C178.81117381 489.80687109 186.91327572 489.81564334 195.01546478 489.84116554 C201.91506967 489.86284907 208.81452043 489.8709346 215.71415552 489.86119876 C219.23494651 489.85664714 222.75541936 489.85858972 226.27616692 489.87796021 C230.09263544 489.89877645 233.9086633 489.88862867 237.72517395 489.87542725 C238.83859862 489.88639649 239.95202328 489.89736574 241.09918809 489.90866739 C247.02761911 489.85900693 250.93590216 489.61609587 255.48072815 485.38768005 C260.10996471 478.6441111 260.10996471 478.6441111 258.48072815 461.38768005 C156.18072815 461.38768005 53.88072815 461.38768005 -51.51927185 461.38768005 Z " fill="#000000" transform="translate(152.51927185058594,5.6123199462890625)"/>
<path d="M0 0 C0.89031418 -0.00708481 1.78062836 -0.01416962 2.69792175 -0.02146912 C3.67719635 -0.0189917 4.65647095 -0.01651428 5.66542053 -0.01396179 C7.20944801 -0.02162819 7.20944801 -0.02162819 8.78466797 -0.02944946 C12.20078787 -0.04339475 15.61670713 -0.04238497 19.03285217 -0.04008484 C21.3993538 -0.04396906 23.76585472 -0.04830316 26.13235474 -0.05307007 C31.09815224 -0.06054292 36.06387866 -0.06023329 41.02967834 -0.05497742 C47.40346081 -0.0491815 53.7769528 -0.06611183 60.15068722 -0.08932209 C65.03962922 -0.10403088 69.92850081 -0.10493502 74.81746101 -0.10181236 C77.16787351 -0.10232702 79.51828981 -0.10759156 81.86868095 -0.11762428 C85.15138167 -0.12991593 88.4335107 -0.12324054 91.71620178 -0.11161804 C92.69345215 -0.11926178 93.67070251 -0.12690552 94.67756653 -0.13478088 C95.57070053 -0.12776657 96.46383453 -0.12075226 97.3840332 -0.11352539 C98.16035064 -0.11369313 98.93666807 -0.11386087 99.73651028 -0.1140337 C102.30833527 0.36330218 103.1602417 1.22276199 104.75550842 3.26069641 C105.81498718 6.06359863 105.81498718 6.06359863 106.78919983 9.51924133 C106.97025269 10.15102798 107.15130554 10.78281464 107.33784485 11.43374634 C107.93705352 13.53365924 108.52203747 15.63726305 109.10707092 17.74116516 C109.52877124 19.22987741 109.95134479 20.71834255 110.3747406 22.20657349 C111.49467759 26.15220406 112.60262705 30.10110546 113.70814514 34.05079651 C114.79884641 37.93983564 115.90066844 41.82571608 117.00160217 45.71186829 C118.25861386 50.15357118 119.51442193 54.59560203 120.76347351 59.03955078 C120.95649079 59.72294557 121.14950808 60.40634035 121.34837437 61.11044407 C121.75679081 62.57376232 122.15658939 64.03950584 122.54895687 65.50720882 C123.85326423 70.32168699 125.35973089 75.00000907 127.04504395 79.69560242 C135.38850439 104.10993996 135.00881222 128.23187849 134.79978013 153.80762196 C134.75777278 160.01556101 134.76485128 166.22347934 134.76519775 172.43153381 C134.75874774 182.81642553 134.71814784 193.20071446 134.65419006 203.58540344 C134.588697 214.25253071 134.55324228 224.91909492 134.551651 235.58638 C134.5515481 236.24778525 134.5514452 236.90919049 134.55133919 237.59063831 C134.55119179 238.58113403 134.55119179 238.58113403 134.55104142 239.59163976 C134.5487965 252.42424901 134.51612583 265.25664092 134.47302794 278.08917141 C134.4625433 281.77504571 134.45748333 285.46089536 134.45351601 289.14678192 C134.44562465 294.91583934 134.41717957 300.68444226 134.37257957 306.45332909 C134.3592777 308.57054416 134.35276633 310.68781413 134.35345459 312.80507088 C134.35317914 315.68823964 134.3283904 318.5701658 134.29708862 321.45314026 C134.30535706 322.71611651 134.30535706 322.71611651 134.31379253 324.00460744 C134.25290842 327.48251737 134.03688925 329.82331999 132.13484573 332.77984333 C128.97716881 334.74511979 126.85910161 334.76124696 123.14453125 334.76190186 C122.48169477 334.76743625 121.81885828 334.77297065 121.13593584 334.77867275 C118.9162153 334.79227976 116.69761914 334.77731135 114.47792053 334.7624054 C112.8861544 334.76618855 111.29439156 334.77168857 109.70263672 334.77877808 C105.38035617 334.79274941 101.05847292 334.78155179 96.7362144 334.76506686 C92.21591416 334.75122737 87.69563725 334.75767509 83.17532349 334.76119995 C75.58504321 334.76390267 67.99492101 334.75042024 60.40467834 334.72724915 C51.62385583 334.70062942 42.84329749 334.6988951 34.06244844 334.71063751 C25.62088823 334.72140817 17.17942377 334.71523446 8.73787117 334.70108223 C5.14261683 334.69531719 1.54743244 334.69540914 -2.04782295 334.70014763 C-6.27909983 334.70491212 -10.51008656 334.69483788 -14.74130821 334.67319298 C-16.29615933 334.66761805 -17.85103828 334.66716627 -19.40589142 334.67214584 C-21.52441798 334.67808089 -23.64205204 334.66562942 -25.76049805 334.64837646 C-27.54052263 334.64473162 -27.54052263 334.64473162 -29.3565073 334.64101315 C-32.24449158 334.26069641 -32.24449158 334.26069641 -34.11625862 333.26172733 C-35.9614102 329.98917148 -35.73982638 326.52103442 -35.7802124 322.85652161 C-35.80112039 321.98711488 -35.82202837 321.11770816 -35.84356993 320.22195578 C-35.90964293 317.29291811 -35.95385046 314.363974 -35.99766541 311.43452454 C-36.03938881 309.33543613 -36.08203985 307.23636599 -36.12554932 305.13731384 C-36.5084386 285.60986471 -36.69212131 266.07717381 -36.8380022 246.54668427 C-36.93737144 233.48624427 -37.08388916 220.43079613 -37.37071228 207.3730011 C-38.81631969 140.21529889 -34.16062777 81.29493201 -11.20349646 17.80797291 C-9.57006663 13.27118241 -8.13418398 8.71449885 -6.8880434 4.05704498 C-5.53267388 0.27379707 -3.66320046 0.00969156 0 0 Z M3.75550842 12.26069641 C3.44674774 13.34762283 3.13798706 14.43454926 2.81987 15.55441284 C-0.09324896 25.80940325 -3.00642377 36.06437779 -5.91965294 46.31933689 C-7.4172834 51.59120464 -8.91489434 56.86307793 -10.41246033 62.13496399 C-11.85832288 67.22483552 -13.30423715 72.31469236 -14.75018692 77.40453911 C-15.30118772 79.34413571 -15.85217005 81.28373756 -16.40313339 83.2233448 C-17.17621264 85.94487509 -17.94935823 88.66638653 -18.72251892 91.38789368 C-18.94909683 92.18559174 -19.17567474 92.98328979 -19.40911865 93.80516052 C-19.62222183 94.55522873 -19.83532501 95.30529694 -20.05488586 96.07809448 C-20.25506758 96.78993173 -20.45524929 97.50176897 -20.66149712 98.23517704 C-21.20736034 100.13168995 -21.79614053 102.01570216 -22.38792419 103.89839172 C-23.27573495 107.38333679 -23.48575995 110.34043279 -23.47154236 113.93037415 C-23.4713913 115.21117355 -23.47124023 116.49197296 -23.47108459 117.81158447 C-23.46087447 119.18915466 -23.45044253 120.56672322 -23.43980408 121.94429016 C-23.43606878 123.36917929 -23.43322425 124.794071 -23.43122864 126.21896362 C-23.42363279 129.94915496 -23.40401966 133.67918782 -23.38182068 137.40931702 C-23.36127449 141.22368731 -23.35220825 145.03808348 -23.34214783 148.85249329 C-23.32076943 156.32197456 -23.28562091 163.79129299 -23.24449158 171.26069641 C-16.64449158 171.26069641 -10.04449158 171.26069641 -3.24449158 171.26069641 C-3.21871033 169.10151672 -3.19292908 166.94233704 -3.16636658 164.71772766 C-3.12773162 162.57934137 -3.08264196 160.44117907 -3.03697205 158.30293274 C-3.0090973 156.83982913 -2.98771994 155.37658429 -2.97349548 153.9132843 C-2.84486589 141.41477517 -1.81468442 129.15154909 6.71253967 119.26069641 C18.45044979 107.76966395 30.39044545 106.7585396 46.0504303 106.86958313 C48.74951221 106.88566069 51.44709709 106.86967878 54.14613342 106.85054016 C67.91826832 106.83320682 78.61439889 108.28260252 89.38050842 117.51069641 C100.14167875 129.9709989 100.80672341 142.3857159 101.31800842 158.26069641 C101.36119202 159.5123761 101.40437561 160.76405579 101.4488678 162.05366516 C101.55428809 165.1225671 101.65533714 168.19161866 101.75550842 171.26069641 C108.02550842 171.26069641 114.29550842 171.26069641 120.75550842 171.26069641 C121.5696602 162.18651718 122.0961542 153.11588737 122.38050842 144.01069641 C122.40261761 143.30540424 122.42472679 142.60011208 122.44750595 141.87344742 C123.27792266 111.58846759 116.39642506 84.07450288 107.81800842 55.19819641 C107.35470501 53.6358149 107.35470501 53.6358149 106.88204193 52.04187012 C103.77164532 41.58804588 100.57993144 31.1601032 97.25575256 20.77217102 C97.01623682 20.0190501 96.77672108 19.26592918 96.52994728 18.48998642 C95.62956039 15.1069694 95.62956039 15.1069694 93.75550842 12.26069641 C90.95561123 12.16550273 88.18044668 12.13515697 85.38026428 12.14717102 C84.50229691 12.14702499 83.62432953 12.14687897 82.71975708 12.14672852 C79.80326407 12.14742797 76.88683409 12.15522186 73.97035217 12.16304016 C71.9539595 12.16490423 69.93756638 12.16632818 67.9211731 12.16732788 C62.60285705 12.17115397 57.28456812 12.18098502 51.96626282 12.19203186 C46.54380154 12.20224403 41.12133591 12.20682508 35.6988678 12.21186829 C25.05106939 12.22260721 14.40329116 12.23968472 3.75550842 12.26069641 Z M15.66957092 127.01069641 C5.31786969 139.17922684 8.75550842 156.56576587 8.75550842 171.26069641 C35.15550842 171.26069641 61.55550842 171.26069641 88.75550842 171.26069641 C91.1406476 141.79490679 91.1406476 141.79490679 82.75550842 127.26069641 C73.49729876 118.60958246 63.74050462 117.76364818 51.52674866 117.86958313 C49.3256763 117.88564047 47.12644634 117.86968583 44.9254303 117.85054016 C33.43068298 117.83123462 24.24537854 118.76822408 15.66957092 127.01069641 Z M-23.24449158 183.26069641 C-23.24449158 229.13069641 -23.24449158 275.00069641 -23.24449158 322.26069641 C24.27550842 322.26069641 71.79550842 322.26069641 120.75550842 322.26069641 C120.75550842 276.39069641 120.75550842 230.52069641 120.75550842 183.26069641 C73.23550842 183.26069641 25.71550842 183.26069641 -23.24449158 183.26069641 Z " fill="#000000" transform="translate(207.24449157714844,89.73930358886719)"/>
<path d="M0 0 C2.84614024 2.84614024 2.45579076 5.80369142 2.625 9.625 C2.68300781 10.68460937 2.68300781 10.68460937 2.7421875 11.765625 C2.83647724 13.50998524 2.91932891 15.25495691 3 17 C3.75925781 16.44570313 4.51851563 15.89140625 5.30078125 15.3203125 C6.79158203 14.23363281 6.79158203 14.23363281 8.3125 13.125 C9.29863281 12.40570313 10.28476562 11.68640625 11.30078125 10.9453125 C15.57569565 7.86440458 17.65829579 6.44357248 23 7 C24.875 8.125 24.875 8.125 26 10 C26.5 12.875 26.5 12.875 26 16 C22.73170253 19.69382625 19.18915892 22.39105928 15.0625 25.0625 C14.06347656 25.71347656 13.06445312 26.36445313 12.03515625 27.03515625 C9 29 9 29 5.67578125 30.69921875 C2.77427704 33.19408879 2.5835392 33.541726 2.1953125 37.109375 C2.1424527 38.65552422 2.11986884 40.20295596 2.125 41.75 C2.104375 42.54277344 2.08375 43.33554687 2.0625 44.15234375 C2.01554182 46.10110815 2.00425617 48.05067457 2 50 C8.10900477 50.85886235 14.20242577 51.48098622 20 49 C25.42052152 44.08137862 29.03451986 37.5131211 32.54638672 31.16064453 C34.13198799 28.80381362 35.57695616 27.46885478 38 26 C40.8001969 26.13659497 42.48077872 26.68846723 44.875 28.125 C46.72927791 31.21546319 45.76876896 33.57037774 45 37 C43.70432968 39.49073245 42.11923774 41.69432454 40.4375 43.9375 C39.80038086 44.82018555 39.80038086 44.82018555 39.15039062 45.72070312 C38.1120372 47.15573089 37.0576415 48.57912809 36 50 C36.89203125 49.96519531 37.7840625 49.93039062 38.703125 49.89453125 C39.87359375 49.86746094 41.0440625 49.84039062 42.25 49.8125 C43.99023438 49.76029297 43.99023438 49.76029297 45.765625 49.70703125 C49.25868598 50.0234317 50.61066536 50.47181783 53 53 C53.5625 56.5 53.5625 56.5 53 60 C49.25552469 62.98601407 46.39300074 63.3426264 41.6875 63.1875 C40.08455078 63.14689453 40.08455078 63.14689453 38.44921875 63.10546875 C37.64097656 63.07066406 36.83273437 63.03585937 36 63 C36.721875 64.02480469 37.44375 65.04960937 38.1875 66.10546875 C39.12560864 67.46572628 40.06307519 68.82642679 41 70.1875 C41.47695313 70.86103516 41.95390625 71.53457031 42.4453125 72.22851562 C46.78704562 78.58605341 46.78704562 78.58605341 46 83 C44.9375 84.8125 44.9375 84.8125 43 86 C39.66015625 86.41015625 39.66015625 86.41015625 36 86 C33.59375 83.7265625 33.59375 83.7265625 31.5 80.625 C31.11384521 80.08641357 30.72769043 79.54782715 30.32983398 78.99291992 C28.50269012 76.41567345 26.91833405 73.83688133 25.50390625 71.01171875 C23.87907468 67.96901248 22.75166437 66.11225518 20 64 C14.13087093 62.52018876 8.003552 62.78399919 2 63 C1.48714703 71.58913742 1.48714703 71.58913742 3 80 C6.41184108 83.8142343 10.46552935 85.72750427 15 88 C18.90139406 90.40664308 22.68239471 92.82221715 26 96 C26.90441066 99.94064644 26.80364768 101.48725142 24.9375 105 C21.77361104 106.63297495 19.41046781 105.75826999 16 105 C13.50907016 103.70473008 11.3056571 102.11922398 9.0625 100.4375 C8.17981445 99.80038086 8.17981445 99.80038086 7.27929688 99.15039062 C5.84426911 98.1120372 4.42087191 97.0576415 3 96 C2.95101562 97.05960937 2.90203125 98.11921875 2.8515625 99.2109375 C2.77653291 100.59898497 2.70098515 101.98700451 2.625 103.375 C2.57859375 104.42300781 2.57859375 104.42300781 2.53125 105.4921875 C2.2265625 110.7734375 2.2265625 110.7734375 0 113 C-6.11181924 113.55561993 -6.11181924 113.55561993 -8.7109375 111.9296875 C-10.69841819 108.95448914 -10.28442676 106.33417219 -10.1875 102.8125 C-10.14689453 100.90404297 -10.14689453 100.90404297 -10.10546875 98.95703125 C-10.07066406 97.98121094 -10.03585938 97.00539063 -10 96 C-11.00160156 96.73347656 -12.00320312 97.46695313 -13.03515625 98.22265625 C-14.37687514 99.17030386 -15.71936429 100.11686157 -17.0625 101.0625 C-17.71927734 101.54783203 -18.37605469 102.03316406 -19.05273438 102.53320312 C-22.644413 105.02791586 -24.37341335 106.00063228 -28.87109375 105.99609375 C-32 105 -32 105 -34 102 C-34.1875 99.25 -34.1875 99.25 -33 96 C-29.3512124 92.33362788 -25.09074751 89.58362395 -20.546875 87.15234375 C-14.14923857 83.79021769 -14.14923857 83.79021769 -10.32568359 77.93603516 C-9.48649962 72.8280061 -9.79262037 68.2674426 -10 63 C-15.94 63 -21.88 63 -28 63 C-28.66 64.65 -29.32 66.3 -30 68 C-31.18920898 69.89697266 -31.18920898 69.89697266 -32.49609375 71.6640625 C-32.97240234 72.31117188 -33.44871094 72.95828125 -33.93945312 73.625 C-34.43380859 74.285 -34.92816406 74.945 -35.4375 75.625 C-35.92798828 76.29273438 -36.41847656 76.96046875 -36.92382812 77.6484375 C-41.65451316 84.03262784 -41.65451316 84.03262784 -44 86 C-47.5625 86.3125 -47.5625 86.3125 -51 86 C-53 84 -53 84 -53.40625 80.80859375 C-52.90344242 76.09477269 -51.31573018 73.74493392 -48.5 70.0625 C-48.07074219 69.47404297 -47.64148438 68.88558594 -47.19921875 68.27929688 C-46.14752536 66.84198258 -45.07575316 65.41939653 -44 64 C-44.80824219 63.97421875 -45.61648437 63.9484375 -46.44921875 63.921875 C-55.05150349 63.46530018 -55.05150349 63.46530018 -59.3125 61.375 C-61 59 -61 59 -61 55.375 C-60 52 -60 52 -57 50 C-53.86328125 49.5859375 -53.86328125 49.5859375 -50.3125 49.375 C-48.54326172 49.26285156 -48.54326172 49.26285156 -46.73828125 49.1484375 C-45.83464844 49.09945312 -44.93101562 49.05046875 -44 49 C-44.6496875 48.14277344 -45.299375 47.28554688 -45.96875 46.40234375 C-46.81336897 45.24803116 -47.65707079 44.0930471 -48.5 42.9375 C-48.92925781 42.37611328 -49.35851562 41.81472656 -49.80078125 41.23632812 C-52.77585796 37.10427714 -53.67905746 34.24027359 -53 29 C-50.875 26.9375 -50.875 26.9375 -48 26 C-44.49536354 26.40786717 -42.55659725 27.37675935 -40.20361328 30.01147461 C-38.25893523 32.62445949 -36.42913094 35.28815391 -34.625 38 C-33.98433594 38.928125 -33.34367187 39.85625 -32.68359375 40.8125 C-28 47.68310235 -28 47.68310235 -28 50 C-22.06 50 -16.12 50 -10 50 C-9.07738095 41.28747698 -9.07738095 41.28747698 -11 33 C-15.36207168 27.96580065 -21.26864752 24.74687421 -26.91577148 21.3449707 C-29.7801966 19.49653238 -31.83735056 17.63834423 -34 15 C-33.9263784 11.24529849 -33.67158839 9.67158839 -31 7 C-25.29316468 6.12974945 -22.10813322 8.38333328 -17.625 11.5 C-16.98433594 11.92925781 -16.34367187 12.35851562 -15.68359375 12.80078125 C-14.11409022 13.85492541 -12.5558583 14.92581838 -11 16 C-10.95101562 15.09636719 -10.90203125 14.19273437 -10.8515625 13.26171875 C-10.77679688 12.08222656 -10.70203125 10.90273438 -10.625 9.6875 C-10.55539063 8.51574219 -10.48578125 7.34398437 -10.4140625 6.13671875 C-10 3 -10 3 -8 0 C-4.67679974 -1.10773342 -3.30835256 -0.93312508 0 0 Z " fill="#000000" transform="translate(260,286)"/>
<path d="M0 0 C8.31309607 8.72792122 10.22668493 18.37299476 10.02734375 30 C9.65063875 38.65109583 5.74316892 46.13329036 -0.25 52.3125 C-9.22961806 59.65946023 -19.24568392 63.16372043 -30.89453125 62.0625 C-41.07965892 60.31021997 -49.19554974 55.49307131 -55.7578125 47.46875 C-60.88707997 39.97449094 -63.52070226 30.35181378 -62.25 21.3125 C-59.87547361 9.97696332 -55.55473536 2.23491522 -46.1875 -4.625 C-31.30320716 -14.34581267 -12.860279 -11.83241284 0 0 Z M-46.09375 12.46875 C-50.03239074 18.74928523 -49.93979061 25.10025898 -49.25 32.3125 C-47.17990178 39.97310301 -41.634373 44.35997711 -35 48.1875 C-28.53581749 50.12675475 -22.108803 50.52389516 -15.875 47.625 C-10.21752322 44.35083655 -5.7042158 39.60361996 -3.0625 33.625 C-1.11250459 25.6750187 -2.02940773 19.36515093 -6.25 12.3125 C-10.51285797 7.26437872 -15.85226625 2.82471525 -22.59765625 2.0390625 C-32.48873827 1.66903641 -39.81554833 4.73050143 -46.09375 12.46875 Z " fill="#000000" transform="translate(282.25,126.6875)"/>
</svg>
