<?xml version="1.0" encoding="UTF-8"?>
<svg version="1.1" xmlns="http://www.w3.org/2000/svg" width="213" height="197">
<path d="M0 0 C70.29 0 140.58 0 213 0 C213 65.01 213 130.02 213 197 C142.71 197 72.42 197 0 197 C0 131.99 0 66.98 0 0 Z " fill="#212121" transform="translate(0,0)"/>
<path d="M0 0 C70.29 0 140.58 0 213 0 C213 65.01 213 130.02 213 197 C196.17 197 179.34 197 162 197 C162.33 196.34 162.66 195.68 163 195 C163.66 195 164.32 195 165 195 C165 194.34 165 193.68 165 193 C166.45105125 191.73330362 167.96353094 190.53660763 169.5 189.375 C173.67342629 186.12442994 177.40214006 182.70840783 181.0859375 178.921875 C182.91256529 177.08779159 184.79200163 175.37959736 186.75 173.6875 C187.39453125 173.10742188 188.0390625 172.52734375 188.703125 171.9296875 C191 170 191 170 194.171875 167.8203125 C200.20783533 163.46158284 200.20783533 163.46158284 203.44790649 157.00709343 C203.56099262 154.69241022 203.49846062 152.44460147 203.37109375 150.13061523 C203.34699936 149.26191268 203.32290497 148.39321012 203.29808044 147.49818325 C203.24530708 145.62896447 203.18121593 143.76003717 203.10687256 141.89155197 C202.96444604 138.03804944 202.91366206 134.18538491 202.86003113 130.32978916 C202.79970923 126.18500443 202.71399496 122.04085533 202.62960815 117.89650154 C202.5604985 114.4992682 202.49394892 111.10199233 202.42797852 107.70469666 C202.26378461 99.27432841 202.09550128 90.84404289 201.92712402 82.41375732 C201.78433289 75.25752193 201.64325334 68.1012566 201.50436401 60.94494438 C201.43953884 57.63912855 201.37229876 54.333368 201.30493164 51.02760315 C201.04751318 38.016498 200.94635492 25.0135621 201 12 C199.55899681 12.01842201 199.55899681 12.01842201 198.08888245 12.03721619 C185.70749431 12.14367738 173.38940282 11.58287766 161.02734375 10.94140625 C158.84796356 10.83135565 156.66856557 10.72165706 154.489151 10.61228943 C149.94990806 10.3836593 145.41081498 10.15232152 140.87182617 9.91870117 C135.09754196 9.6215036 129.32304122 9.32881706 123.54843807 9.03788853 C117.97883398 8.75715701 112.40933027 8.47445942 106.83984375 8.19140625 C105.80094435 8.13870638 104.76204494 8.08600651 103.69166374 8.03170967 C70.27197303 6.33170268 70.27197303 6.33170268 63.2109375 5.41015625 C55.79980117 4.67120372 55.79980117 4.67120372 49.02001953 7.265625 C45.07293161 10.57007046 41.74732628 14.38797468 38.44824219 18.32519531 C36.64757991 20.40755257 34.677393 22.17914069 32.5625 23.9375 C30.09124494 26.03098358 27.77012583 28.18924552 25.5 30.5 C16.74433282 39.39591814 16.74433282 39.39591814 11.78125 42.296875 C9.71443444 43.92498072 9.71443444 43.92498072 9.57421875 46.84375 C9.76856561 53.11646253 9.97086325 59.38799216 10.22949219 65.65844727 C10.94205188 83.18143208 11.29558618 100.69903173 11.53242874 118.23329163 C11.56291057 120.46759433 11.59462506 122.70187655 11.62667847 124.93615723 C11.9414406 146.95763665 12.1570379 168.97603914 12 191 C12.79728516 191.01458252 13.59457031 191.02916504 14.41601562 191.04418945 C41.08225512 191.57206759 67.68477855 192.97437679 94.31222534 194.46916199 C104.53875798 195.03943504 114.76825717 195.53364266 125 196 C125 196.33 125 196.66 125 197 C83.75 197 42.5 197 0 197 C0 131.99 0 66.98 0 0 Z " fill="#FBFBFB" transform="translate(0,0)"/>
<path d="M0 0 C1.65 0 3.3 0 5 0 C5.81325537 15.17689803 6.26293866 30.33966973 6.53515625 45.53515625 C6.57835756 47.83377979 6.62177341 50.13239931 6.66539001 52.43101501 C6.75546443 57.21187098 6.84350378 61.99275839 6.92993164 66.77368164 C7.03975058 72.84364625 7.15390955 78.91351954 7.26950932 84.9833765 C7.35933971 89.71851447 7.44725135 94.45368658 7.53457451 99.18887138 C7.575951 101.42475722 7.61780099 103.66063436 7.66017342 105.89650154 C7.77468894 111.97709423 7.87458855 118.05759147 7.95576286 124.13872147 C8.00036953 127.02390151 8.06556407 129.90817852 8.13160706 132.79293823 C8.16033566 134.60340107 8.18828283 136.41387653 8.21533203 138.22436523 C8.25130792 139.45421819 8.25130792 139.45421819 8.2880106 140.70891666 C8.33470903 145.32682017 7.94405754 148.22159543 4.95703125 151.8125 C2.97070312 153.48242188 2.97070312 153.48242188 0.8125 155 C-0.66047242 156.19752789 -2.13312419 157.39545026 -3.60546875 158.59375 C-4.34587402 159.1609375 -5.0862793 159.728125 -5.84912109 160.3125 C-9.08372701 162.85025211 -12.02402141 165.66853835 -15 168.5 C-16.99299605 170.34109086 -18.99706812 172.16968742 -21 174 C-21.82886719 174.75796875 -22.65773437 175.5159375 -23.51171875 176.296875 C-24.22972656 176.94140625 -24.94773438 177.5859375 -25.6875 178.25 C-26.59048828 179.06210937 -26.59048828 179.06210937 -27.51171875 179.890625 C-29 181 -29 181 -31 181 C-31 181.66 -31 182.32 -31 183 C-33.475 183.99 -33.475 183.99 -36 185 C-36.26466709 171.13194422 -36.52565779 157.26382416 -36.78230286 143.39561749 C-36.90165763 136.95194365 -37.02215063 130.50829582 -37.14550781 124.06469727 C-37.19341471 121.55420027 -37.24126656 119.04370223 -37.2890625 116.53320312 C-37.31257782 115.29865953 -37.33609314 114.06411594 -37.36032104 112.79216194 C-37.54170162 103.13021447 -37.69154561 93.46795704 -37.83132935 83.80532646 C-37.92467489 77.68475057 -38.06075544 71.56851734 -38.2613678 65.45052242 C-38.36499913 62.15479202 -38.43898259 58.85886399 -38.50582886 55.56220436 C-38.54295021 54.10137175 -38.59412682 52.64081293 -38.66091919 51.181036 C-39.1409322 40.58356058 -39.1409322 40.58356058 -36.24951172 36.57040405 C-31.22928178 32 -31.22928178 32 -28 32 C-28 31.34 -28 30.68 -28 30 C-26.55322266 28.55908203 -26.55322266 28.55908203 -24.5390625 26.8828125 C-19.23514446 22.37296409 -14.22095389 17.58422657 -9.1796875 12.78515625 C-5.22632833 9.03949168 -1.2307974 5.43001556 3 2 C2.01 1.34 1.02 0.68 0 0 Z " fill="#5A5A5A" transform="translate(196,12)"/>
<path d="M0 0 C19.69295171 -0.73980168 36.72851761 1.14648159 52.875 13.8125 C63.05397225 23.3111944 70.5388536 37.9437338 71.12011719 51.87988281 C71.25032551 58.92180491 71.16653594 65.95937288 71 73 C51.85908335 73.67598999 33.7442933 72.57768429 18.45947266 59.37670898 C7.66509507 49.1944582 0.65681966 35.0083768 -0.15722656 20.12548828 C-0.19568363 17.06026269 -0.17527782 14.00251297 -0.125 10.9375 C-0.11597656 9.88111328 -0.10695313 8.82472656 -0.09765625 7.73632812 C-0.0743167 5.15730747 -0.04157775 2.5787801 0 0 Z " fill="#FCFCFC" transform="translate(71,65)"/>
<path d="M0 0 C1.65 0 3.3 0 5 0 C6.35629653 19.98115426 6.09782358 39.98529624 6 60 C5.34 60 4.68 60 4 60 C3.566875 61.4540625 3.566875 61.4540625 3.125 62.9375 C2 66 2 66 0 67 C0 63.7 0 60.4 0 57 C-0.55429688 57.5053125 -1.10859375 58.010625 -1.6796875 58.53125 C-2.40414062 59.1809375 -3.12859375 59.830625 -3.875 60.5 C-4.59429687 61.1496875 -5.31359375 61.799375 -6.0546875 62.46875 C-8 64 -8 64 -10 64 C-10 64.66 -10 65.32 -10 66 C-11.46759766 66.99580078 -11.46759766 66.99580078 -12.96484375 68.01171875 C-15.020526 69.66434971 -15.88598491 70.52543 -16.50830078 73.11572266 C-16.63758573 75.69252338 -16.62461167 78.23324322 -16.5625 80.8125 C-16.70241185 93.00708963 -18.22176228 104.84435397 -27 114 C-27.66 114 -28.32 114 -29 114 C-29 114.66 -29 115.32 -29 116 C-29.66 116 -30.32 116 -31 116 C-31 118.97 -31 121.94 -31 125 C-31.99 125.495 -31.99 125.495 -33 126 C-33.68729254 128.11846285 -33.68729254 128.11846285 -34.125 130.5625 C-34.37636719 131.80193359 -34.37636719 131.80193359 -34.6328125 133.06640625 C-34.81457031 134.02353516 -34.81457031 134.02353516 -35 135 C-35.33 135 -35.66 135 -36 135 C-36.80274789 128.02434682 -37.19298642 121.11615791 -37.31640625 114.09765625 C-37.33759521 113.0735112 -37.35878418 112.04936615 -37.38061523 110.9941864 C-37.56215489 101.9498345 -37.69953087 92.90454172 -37.83143616 83.85934448 C-37.9234988 77.78802263 -38.05668466 71.72138399 -38.2613678 65.65281677 C-38.36574561 62.42534036 -38.43945208 59.19766568 -38.50582886 55.96920776 C-38.54324456 54.50403138 -38.5946664 53.03913753 -38.66091919 51.57498169 C-39.14717085 40.61147905 -39.14717085 40.61147905 -36.24951172 36.54101562 C-31.25326493 32 -31.25326493 32 -28 32 C-28 31.34 -28 30.68 -28 30 C-26.55322266 28.55908203 -26.55322266 28.55908203 -24.5390625 26.8828125 C-19.23514446 22.37296409 -14.22095389 17.58422657 -9.1796875 12.78515625 C-5.22632833 9.03949168 -1.2307974 5.43001556 3 2 C2.01 1.34 1.02 0.68 0 0 Z " fill="#5C5C5C" transform="translate(196,12)"/>
<path d="M0 0 C0.39424815 4.22913761 0.71640717 8.45631091 0.9765625 12.6953125 C1.07439845 14.13195622 1.1908436 15.56747105 1.32714844 17.00097656 C2.43501859 28.85684076 2.43501859 28.85684076 -1.16894531 34.23925781 C-3.66087882 36.78140661 -6.0592674 38.99624481 -9 41 C-9.66 41 -10.32 41 -11 41 C-11 44.3 -11 47.6 -11 51 C-7.9180922 51 -6.7401701 49.17376316 -4.5 47.125 C-3.613125 46.31417969 -2.72625 45.50335938 -1.8125 44.66796875 C1.88093553 41.16433477 5.43972383 37.53971748 8.96875 33.87109375 C11 32 11 32 13 32 C13.14695312 32.90878906 13.14695312 32.90878906 13.296875 33.8359375 C15.72157861 47.42263878 20.87563483 57.54473587 32 66 C34.33035499 67.27999426 36.47318971 68.13980926 39 69 C37.88559348 72.34321955 37.02527657 73.06019619 34.375 75.25 C26.85352668 81.08980895 26.85352668 81.08980895 22.0625 88.9375 C22.041875 89.618125 22.02125 90.29875 22 91 C22.99 91.495 22.99 91.495 24 92 C22.84826645 94.46800047 21.95216435 96.04783565 20 98 C11.04439499 98 3.26115539 91.87470654 -3.12109375 86.046875 C-6.729899 82.11545307 -9.36781161 77.61975921 -12 73 C-12.4021875 72.319375 -12.804375 71.63875 -13.21875 70.9375 C-18.45479219 61.41742329 -19.54309438 50.81102996 -19.5625 40.125 C-19.59923828 39.03703125 -19.63597656 37.9490625 -19.67382812 36.828125 C-19.71665663 29.0428553 -19.71665663 29.0428553 -17.67944336 26.07836914 C-16.17903028 24.65362237 -14.59184823 23.32180255 -13 22 C-11.86586607 19.61177563 -11.86586607 19.61177563 -11.4375 17.1875 C-10.1734815 12.26526325 -6.68796575 0 0 0 Z " fill="#666666" transform="translate(47,76)"/>
<path d="M0 0 C0.39424815 4.22913761 0.71640717 8.45631091 0.9765625 12.6953125 C1.07439845 14.13195622 1.1908436 15.56747105 1.32714844 17.00097656 C2.43501859 28.85684076 2.43501859 28.85684076 -1.16894531 34.23925781 C-3.66087882 36.78140661 -6.0592674 38.99624481 -9 41 C-9.66 41 -10.32 41 -11 41 C-11 44.3 -11 47.6 -11 51 C-7.9180922 51 -6.7401701 49.17376316 -4.5 47.125 C-3.613125 46.31417969 -2.72625 45.50335938 -1.8125 44.66796875 C1.88093553 41.16433477 5.43972383 37.53971748 8.96875 33.87109375 C11 32 11 32 13 32 C13.66 35.96 14.32 39.92 15 44 C14.34 44 13.68 44 13 44 C12.9175 44.94875 12.835 45.8975 12.75 46.875 C12 50 12 50 10.3125 51.125 C9.549375 51.41375 8.78625 51.7025 8 52 C3.84537272 54.21971336 3.84537272 54.21971336 1.1875 57.875 C1.0946875 58.926875 1.0946875 58.926875 1 60 C0.690625 61.546875 0.690625 61.546875 0.375 63.125 C-0.26430691 65.93733757 -0.26430691 65.93733757 1 68 C0.06421005 70.35981813 -0.93347808 72.69631264 -2 75 C-2.495 74.01 -2.495 74.01 -3 73 C-3.66 72.67 -4.32 72.34 -5 72 C-5 71.01 -5 70.02 -5 69 C-5.99 69 -6.98 69 -8 69 C-7.93489583 66.98177083 -7.86979167 64.96354167 -7.8046875 62.9453125 C-7.81668311 60.76136355 -7.81668311 60.76136355 -10 59 C-10.8971875 59.495 -10.8971875 59.495 -11.8125 60 C-14 61 -14 61 -17 61 C-19.08305687 54.09567439 -19.43249401 47.5643881 -19.5 40.375 C-19.54125 39.26898438 -19.5825 38.16296875 -19.625 37.0234375 C-19.70182103 29.03405017 -19.70182103 29.03405017 -17.68383789 26.06079102 C-16.18429228 24.63910861 -14.59455311 23.31423677 -13 22 C-11.86586607 19.61177563 -11.86586607 19.61177563 -11.4375 17.1875 C-10.1734815 12.26526325 -6.68796575 0 0 0 Z " fill="#656565" transform="translate(47,76)"/>
<path d="M0 0 C0.22369947 5.95881843 0.38635071 11.91515786 0.49438477 17.87719727 C0.53944592 19.9017192 0.60071767 21.92595147 0.67895508 23.94946289 C1.31051875 40.71273145 1.31051875 40.71273145 -1.85009766 46.22900391 C-4.1062301 48.51148534 -6.31287897 50.25752812 -9 52 C-9.9796875 52.8353125 -10.959375 53.670625 -11.96875 54.53125 C-13.22171875 55.50578125 -13.22171875 55.50578125 -14.5 56.5 C-19.09960137 60.17320278 -23.24435821 64.10489244 -27.3203125 68.34765625 C-29 70 -29 70 -30 70 C-31.09512394 60.54369166 -31.09512394 60.54369166 -28.6171875 57.05078125 C-28.02164063 56.47714844 -27.42609375 55.90351562 -26.8125 55.3125 C-18.57351057 47.02337473 -17.69842266 34.9116474 -17.5 23.8125 C-17.51957764 22.467323 -17.51957764 22.467323 -17.53955078 21.0949707 C-17.5247929 16.51612055 -17.48471722 14.62714225 -14.59375 10.88671875 C-12 9 -12 9 -10 9 C-10 8.34 -10 7.68 -10 7 C-8.3203125 5.2734375 -8.3203125 5.2734375 -6.125 3.375 C-5.04605469 2.42753906 -5.04605469 2.42753906 -3.9453125 1.4609375 C-2 0 -2 0 0 0 Z " fill="#212121" transform="translate(196,69)"/>
<path d="M0 0 C0.0093457 0.58789307 0.01869141 1.17578613 0.02832031 1.78149414 C0.44122328 22.53796447 2.98693838 41.38326632 18 57 C24.79802872 62.73446616 33.02191975 67.84153803 42 69 C42 69.33 42 69.66 42 70 C40.60550891 70.483059 39.20933293 70.96125517 37.8125 71.4375 C37.03519531 71.70433594 36.25789063 71.97117187 35.45703125 72.24609375 C28.83238297 74.27877597 28.83238297 74.27877597 25.52734375 73.171875 C8.08692006 63.59674043 -0.10488847 51.32544926 -5.7578125 32.47265625 C-7.05648118 27.12250712 -7.19535194 21.7919962 -7.25 16.3125 C-7.2641394 15.24261841 -7.2641394 15.24261841 -7.27856445 14.15112305 C-7.2494461 9.42460941 -6.623887 5.45425342 -5 1 C-3 0 -3 0 0 0 Z " fill="#747474" transform="translate(71,66)"/>
<path d="M0 0 C0.39424815 4.22913761 0.71640717 8.45631091 0.9765625 12.6953125 C1.07439845 14.13195622 1.1908436 15.56747105 1.32714844 17.00097656 C2.4340625 28.84660913 2.4340625 28.84660913 -1.13378906 34.20410156 C-4.5106819 37.64973522 -7.38300534 40.46100178 -12 42 C-15.17798838 35.64402324 -13.69867901 23.16167491 -11.8125 16.4375 C-5.78352076 0 -5.78352076 0 0 0 Z " fill="#F4F4F4" transform="translate(47,76)"/>
<path d="M0 0 C0.63804532 13.04448217 1.09691751 27.55462508 -7.48828125 38.38671875 C-10 41 -10 41 -13 42 C-13.19893013 37.57112659 -13.34344922 33.14466695 -13.43945312 28.71264648 C-13.47949646 27.20795367 -13.53395384 25.70356851 -13.60351562 24.19995117 C-14.16723263 11.69455262 -14.16723263 11.69455262 -11.2890625 7.51611328 C-9.2766534 5.76493036 -7.26705769 4.39504936 -5 3 C-4.46052734 2.45013428 -3.92105469 1.90026855 -3.36523438 1.33374023 C-2 0 -2 0 0 0 Z " fill="#F8F8F8" transform="translate(179,85)"/>
<path d="M0 0 C-1.14915607 1.14915607 -2.30241095 2.29438481 -3.47094727 3.42382812 C-5.05087085 4.99379761 -5.05087085 4.99379761 -6.44897461 6.87304688 C-8.99588944 9.95219402 -10.81175264 11.75676607 -14.80517578 12.57421875 C-18.0845267 12.72534562 -21.28386905 12.66039895 -24.5625 12.5 C-25.67302734 12.47679687 -26.78355469 12.45359375 -27.92773438 12.4296875 C-33.05430985 12.29469688 -37.94837048 11.91669233 -43 11 C-30.52111065 0.08097182 -15.79695819 -0.47390875 0 0 Z " fill="#F2F2F2" transform="translate(124,31)"/>
<path d="M0 0 C0.89460938 0.02320313 1.78921875 0.04640625 2.7109375 0.0703125 C8.38698244 0.25181394 13.99015969 0.81142481 19.625 1.5 C13.30649621 8.53719616 2.8782286 11.63014609 -6.375 12.5 C-11.70928377 12.69490149 -17.0398559 12.61914714 -22.375 12.5 C-21.22727692 11.35227692 -20.07624082 10.20775093 -18.91259766 9.07617188 C-17.32562047 7.49630338 -17.32562047 7.49630338 -15.84912109 5.62695312 C-11.00850669 -0.01153305 -7.22314595 -0.43338876 0 0 Z " fill="#F3F3F3" transform="translate(111.375,159.5)"/>
<path d="M0 0 C1.21358968 10.1132473 1.21358968 10.1132473 -1.5 14.33203125 C-3.5699047 16.38172203 -5.71291043 18.19664342 -8 20 C-9.48333993 21.30778169 -10.9627237 22.62006873 -12.4375 23.9375 C-13.42556641 24.78634766 -13.42556641 24.78634766 -14.43359375 25.65234375 C-15.31248398 26.40849619 -16.18017851 27.18017851 -17 28 C-19.18639453 28.07258946 -21.37500389 28.08373783 -23.5625 28.0625 C-25.35880859 28.04896484 -25.35880859 28.04896484 -27.19140625 28.03515625 C-28.11824219 28.02355469 -29.04507813 28.01195313 -30 28 C-30 26 -30 26 -28.671875 24.66015625 C-28.03765625 24.13292969 -27.4034375 23.60570313 -26.75 23.0625 C-23.11326691 19.97288605 -19.56872845 16.79867592 -16.0625 13.5625 C-12.32788299 10.1286139 -8.58714297 6.70246598 -4.8125 3.3125 C-4.09707031 2.66925781 -3.38164063 2.02601562 -2.64453125 1.36328125 C-1 0 -1 0 0 0 Z " fill="#5E5E5E" transform="translate(96,14)"/>
<path d="M0 0 C3 1 3 1 4.1328125 2.9609375 C4.46023437 3.75757812 4.78765625 4.55421875 5.125 5.375 C5.45757812 6.16648437 5.79015625 6.95796875 6.1328125 7.7734375 C6.80422288 9.49732902 7.41497061 11.24491183 8 13 C7.43410156 13.55429688 6.86820313 14.10859375 6.28515625 14.6796875 C5.55167969 15.40414062 4.81820312 16.12859375 4.0625 16.875 C3.33160156 17.59429687 2.60070312 18.31359375 1.84765625 19.0546875 C-0.05667999 20.87027192 -0.05667999 20.87027192 -1 23 C-2.9375 23.75 -2.9375 23.75 -5 24 C-5.66 23.34 -6.32 22.68 -7 22 C-7.99 22.33 -8.98 22.66 -10 23 C-10.33 25.31 -10.66 27.62 -11 30 C-12.32 30 -13.64 30 -15 30 C-14.649375 29.113125 -14.29875 28.22625 -13.9375 27.3125 C-12.93995078 23.78782611 -13.23807725 22.47098141 -14 19 C-13.875 15.375 -13.875 15.375 -13 12 C-10.8125 10.3125 -10.8125 10.3125 -8 9 C-3.68078888 6.45928758 -1.36724021 4.92206474 0 0 Z " fill="#707070" transform="translate(60,120)"/>
<path d="M0 0 C2 2 2 2 2.24050903 3.94888306 C2.23606781 4.743862 2.23162659 5.53884094 2.22705078 6.35791016 C2.22682419 7.70908432 2.22682419 7.70908432 2.22659302 9.08755493 C2.21627045 10.06155243 2.20594788 11.03554993 2.1953125 12.0390625 C2.1924826 13.03505463 2.18965271 14.03104675 2.18673706 15.05722046 C2.1755184 18.24660118 2.15041081 21.43570378 2.125 24.625 C2.11497238 26.78385012 2.10584615 28.94270463 2.09765625 31.1015625 C2.07557356 36.40114926 2.04103225 41.70052744 2 47 C-0.97 46.34 -3.94 45.68 -7 45 C-6.34 44.01 -5.68 43.02 -5 42 C-4.78381417 39.48647205 -4.6752107 37.0739798 -4.65625 34.55859375 C-4.6416272 33.83511246 -4.62700439 33.11163116 -4.61193848 32.3662262 C-4.54968845 29.27272964 -4.51000515 26.17903537 -4.46826172 23.08520508 C-4.43458297 20.82611976 -4.38946608 18.56746225 -4.34375 16.30859375 C-4.3384729 15.60649277 -4.3331958 14.90439178 -4.32775879 14.18101501 C-4.22562614 9.22562614 -4.22562614 9.22562614 -2 7 C-1.28072705 4.68234271 -0.6090107 2.34904126 0 0 Z " fill="#555555" transform="translate(200,70)"/>
<path d="M0 0 C0 3.63 0 7.26 0 11 C4.95 11 9.9 11 15 11 C15 11.33 15 11.66 15 12 C13.94941406 11.96777344 12.89882812 11.93554688 11.81640625 11.90234375 C3.4930829 11.78731589 3.4930829 11.78731589 -3.9609375 15 C-6.12516382 17.24331765 -8.05732352 19.566072 -10 22 C-13.5486135 24.36574234 -14.5764525 24.10865265 -18.6875 23.625 C-20.17830078 23.45871094 -20.17830078 23.45871094 -21.69921875 23.2890625 C-22.45847656 23.19367188 -23.21773438 23.09828125 -24 23 C-23.1875 21.0625 -23.1875 21.0625 -22 19 C-21.01 18.67 -20.02 18.34 -19 18 C-19 17.34 -19 16.68 -19 16 C-17.6015625 14.58984375 -17.6015625 14.58984375 -15.625 12.9375 C-11.32790445 9.29380896 -7.16129143 5.52460087 -3.00390625 1.72265625 C-1 0 -1 0 0 0 Z " fill="#5E5E5E" transform="translate(102,148)"/>
<path d="M0 0 C3.33538962 -0.38118738 4.61474461 -0.30414899 7.30078125 1.81640625 C8.19152344 2.53699219 9.08226563 3.25757812 10 4 C11.96937268 5.11824752 13.97128716 6.18090651 16 7.1875 C17.010625 7.69667969 18.02125 8.20585937 19.0625 8.73046875 C21.75110841 9.89243382 24.11619901 10.56000831 27 11 C27 11.33 27 11.66 27 12 C25.60550891 12.483059 24.20933293 12.96125517 22.8125 13.4375 C22.03519531 13.70433594 21.25789063 13.97117188 20.45703125 14.24609375 C19.64621094 14.49488281 18.83539063 14.74367187 18 15 C17.18789062 15.25136719 16.37578125 15.50273437 15.5390625 15.76171875 C9.91171859 16.28982333 4.32525933 11.72175691 -0.046875 8.484375 C-1.39942849 7.36368782 -2.70663055 6.18850165 -4 5 C-3.34 4.01 -2.68 3.02 -2 2 C-1.34 2 -0.68 2 0 2 C0 1.34 0 0.68 0 0 Z " fill="#585858" transform="translate(86,124)"/>
<path d="M0 0 C1.98 0.66 3.96 1.32 6 2 C4.88559348 5.34321955 4.02527657 6.06019619 1.375 8.25 C-6.14647332 14.08980895 -6.14647332 14.08980895 -10.9375 21.9375 C-10.958125 22.618125 -10.97875 23.29875 -11 24 C-10.34 24.33 -9.68 24.66 -9 25 C-10.15173355 27.46800047 -11.04783565 29.04783565 -13 31 C-15.625 31.125 -15.625 31.125 -18 31 C-17.34 30.67 -16.68 30.34 -16 30 C-14.96442703 28.28619384 -14.96442703 28.28619384 -15 26 C-16.85250004 22.76238866 -16.85250004 22.76238866 -19 20 C-15.25 17 -15.25 17 -13 17 C-12.505 16.505 -12.01 16.01 -11.5 15.5 C-11.005 15.005 -10.51 14.51 -10 14 C-9.34 14 -8.68 14 -8 14 C-7.731875 13.4225 -7.46375 12.845 -7.1875 12.25 C-5.06706257 8.23232908 -2.74450729 5.58241882 1 3 C0.67 2.01 0.34 1.02 0 0 Z " fill="#484848" transform="translate(80,143)"/>
<path d="M0 0 C2.35448165 2.55068845 2.98327924 3.71017358 3.1875 7.25 C3.125625 8.1575 3.06375 9.065 3 10 C4.32 10.66 5.64 11.32 7 12 C7 14.33333333 7 16.66666667 7 19 C5.35 19.66 3.7 20.32 2 21 C-6 8.54150198 -6 8.54150198 -6 3 C-4.02 2.01 -2.04 1.02 0 0 Z " fill="#727272" transform="translate(37,134)"/>
<path d="M0 0 C0.33 0 0.66 0 1 0 C1.33 10.56 1.66 21.12 2 32 C1.34 32 0.68 32 0 32 C0 34.97 0 37.94 0 41 C-0.99 41.495 -0.99 41.495 -2 42 C-2.68729254 44.11846285 -2.68729254 44.11846285 -3.125 46.5625 C-3.29257813 47.38878906 -3.46015625 48.21507812 -3.6328125 49.06640625 C-3.75398437 49.70449219 -3.87515625 50.34257812 -4 51 C-4.33 51 -4.66 51 -5 51 C-6.10102642 42.64399592 -6.10094304 34.41192037 -6 26 C-4.35 26.33 -2.7 26.66 -1 27 C-0.67 18.09 -0.34 9.18 0 0 Z " fill="#747474" transform="translate(165,96)"/>
<path d="M0 0 C0.00628673 3.23092938 -0.05346904 6.45743017 -0.125 9.6875 C-0.12242188 10.59951172 -0.11984375 11.51152344 -0.1171875 12.45117188 C-0.31148987 19.13031568 -0.31148987 19.13031568 -2.39355469 21.76025391 C-4.0546875 23.14453125 -4.0546875 23.14453125 -7 25 C-7.0544207 22.31222198 -7.09387266 19.62556788 -7.125 16.9375 C-7.14175781 16.18533203 -7.15851562 15.43316406 -7.17578125 14.65820312 C-7.21855271 9.71809978 -6.72888692 5.6486505 -5 1 C-3 0 -3 0 0 0 Z " fill="#5E5E5E" transform="translate(71,66)"/>
<path d="M0 0 C1.875 1.125 1.875 1.125 3 3 C3.38976435 6.11811483 3.50422245 8.11019567 1.9375 10.875 C-1.06732099 12.61973477 -3.60810131 12.30835443 -7 12 C-9 10 -9 10 -9.3125 6.5625 C-9 3 -9 3 -7.875 1.0625 C-5.11019567 -0.50422245 -3.11811483 -0.38976435 0 0 Z " fill="#7E7E7E" transform="translate(147,58)"/>
<path d="M0 0 C2 2 2 2 2.3125 5.4375 C2 9 2 9 0.875 10.9375 C-1.88980433 12.50422245 -3.88188517 12.38976435 -7 12 C-8.875 10.875 -8.875 10.875 -10 9 C-10.38976435 5.88188517 -10.50422245 3.88980433 -8.9375 1.125 C-5.93267901 -0.61973477 -3.39189869 -0.30835443 0 0 Z " fill="#7E7E7E" transform="translate(23,52)"/>
<path d="M0 0 C1.9375 1.1875 1.9375 1.1875 3 3 C3.41826612 5.78844081 3.36703913 7.33474158 2 9.8125 C-1.32357135 11.78587049 -4.18058245 11.30312838 -8 11 C-10 9 -10 9 -10.3125 6.0625 C-10 3 -10 3 -8.9375 1.125 C-5.8930714 -0.64273274 -3.4368988 -0.36823916 0 0 Z " fill="#808080" transform="translate(26,177)"/>
<path d="M0 0 C1.875 1.1875 1.875 1.1875 3 3 C3.46233717 6.00519158 3.20607683 7.57639764 1.875 10.3125 C0 12 0 12 -3 12.4375 C-6 12 -6 12 -7.875 10.9375 C-9.63763183 7.90185629 -9.37331109 5.42201828 -9 2 C-5.53076119 -0.31282587 -4.07794425 -0.42478586 0 0 Z " fill="#7C7C7C" transform="translate(150,183)"/>
<path d="M0 0 C0.8353125 0.2165625 0.8353125 0.2165625 1.6875 0.4375 C4.11384195 1.02769128 6.54906345 1.523429 9 2 C9.33 2.99 9.66 3.98 10 5 C9.43410156 5.55429688 8.86820313 6.10859375 8.28515625 6.6796875 C7.55167969 7.40414062 6.81820312 8.12859375 6.0625 8.875 C5.33160156 9.59429687 4.60070312 10.31359375 3.84765625 11.0546875 C1.94332001 12.87027192 1.94332001 12.87027192 1 15 C-0.9375 15.75 -0.9375 15.75 -3 16 C-4.33333333 14.66666667 -5.66666667 13.33333333 -7 12 C-6.360625 11.401875 -5.72125 10.80375 -5.0625 10.1875 C-2.79689611 8.09189663 -2.79689611 8.09189663 -2 5 C-1.34 5 -0.68 5 0 5 C0 3.35 0 1.7 0 0 Z " fill="#787878" transform="translate(58,128)"/>
<path d="M0 0 C0.33 0 0.66 0 1 0 C1.06058594 1.31355469 1.12117188 2.62710938 1.18359375 3.98046875 C1.26803256 5.71615541 1.35267888 7.45183198 1.4375 9.1875 C1.47681641 10.05181641 1.51613281 10.91613281 1.55664062 11.80664062 C1.7644602 15.97901824 2.11078165 19.90959558 3 24 C3.11678799 26.67678073 3.0454506 29.31841457 3 32 C-0.01031744 32.93423645 -0.86650268 33.04449911 -4 32 C-4.27694205 30.25406097 -4.52057383 28.50281592 -4.75 26.75 C-4.88921875 25.77546875 -5.0284375 24.8009375 -5.171875 23.796875 C-5 21 -5 21 -3.0625 19.1875 C0.0462854 15.89030336 -0.32991164 12.63061094 -0.25 8.25 C-0.22035156 7.45722656 -0.19070312 6.66445312 -0.16015625 5.84765625 C-0.08972213 3.89897906 -0.04256518 1.94948505 0 0 Z " fill="#676767" transform="translate(70,69)"/>
<path d="M0 0 C2 1 2 1 4 4 C3.82976099 6.72382422 3.26874696 7.73930306 1.3046875 9.64453125 C-1.68043791 11.40018975 -3.35208628 11.13246489 -6.75 10.6875 C-7.73484375 10.56761719 -8.7196875 10.44773438 -9.734375 10.32421875 C-10.48203125 10.21722656 -11.2296875 10.11023438 -12 10 C-11.1875 8.0625 -11.1875 8.0625 -10 6 C-9.01 5.67 -8.02 5.34 -7 5 C-7 4.34 -7 3.68 -7 3 C-5.5459375 2.5359375 -5.5459375 2.5359375 -4.0625 2.0625 C-1.15934208 1.30476658 -1.15934208 1.30476658 0 0 Z " fill="#5A5A5A" transform="translate(90,161)"/>
<path d="M0 0 C2.583964 0.97627211 3.61306271 2.20382838 5.328125 4.34765625 C5.84890625 4.98832031 6.3696875 5.62898438 6.90625 6.2890625 C7.29296875 6.78277344 7.6796875 7.27648437 8.078125 7.78515625 C7.088125 8.11515625 6.098125 8.44515625 5.078125 8.78515625 C5.078125 9.44515625 5.078125 10.10515625 5.078125 10.78515625 C3.428125 11.44515625 1.778125 12.10515625 0.078125 12.78515625 C-2.484375 10.72265625 -2.484375 10.72265625 -4.921875 7.78515625 C-4.859375 4.03515625 -4.859375 4.03515625 -3.921875 0.78515625 C-1.921875 -0.21484375 -1.921875 -0.21484375 0 0 Z " fill="#6E6E6E" transform="translate(80.921875,115.21484375)"/>
<path d="M0 0 C0 3.63 0 7.26 0 11 C-0.66 11 -1.32 11 -2 11 C-2 11.99 -2 12.98 -2 14 C-2.66 14 -3.32 14 -4 14 C-4 14.66 -4 15.32 -4 16 C-4.66 16 -5.32 16 -6 16 C-6.76394015 6.30644837 -6.76394015 6.30644837 -4.921875 3.15625 C-1.72892442 0 -1.72892442 0 0 0 Z " fill="#575757" transform="translate(34,99)"/>
<path d="M0 0 C0 3.96 0 7.92 0 12 C-1.32 12.33 -2.64 12.66 -4 13 C-6.76686364 11.05294781 -7.29140965 9.19859011 -8 6 C-6.85675161 4.9970458 -5.71032809 3.99770973 -4.5625 3 C-3.92441406 2.443125 -3.28632812 1.88625 -2.62890625 1.3125 C-1 0 -1 0 0 0 Z " fill="#636363" transform="translate(96,14)"/>
<path d="M0 0 C-0.66 2.31 -1.32 4.62 -2 7 C-10.57142857 6.14285714 -10.57142857 6.14285714 -14 4 C-9.02495953 0.75099398 -6.11774896 -0.49940808 0 0 Z " fill="#313131" transform="translate(115,136)"/>
<path d="M0 0 C2.375 -0.1875 2.375 -0.1875 5 0 C5.66 0.99 6.32 1.98 7 3 C5.02 3.99 5.02 3.99 3 5 C3.33 5.99 3.66 6.98 4 8 C4.66 8.33 5.32 8.66 6 9 C4.375 9.8125 4.375 9.8125 2 10 C-0.24609835 8.53181864 -2.02378677 6.84147142 -4 5 C-3.34 4.01 -2.68 3.02 -2 2 C-1.34 2 -0.68 2 0 2 C0 1.34 0 0.68 0 0 Z " fill="#676767" transform="translate(86,124)"/>
<path d="M0 0 C0.66 0 1.32 0 2 0 C-0.18222208 12.00222145 -0.18222208 12.00222145 -4.1875 15.25 C-5.115625 15.8275 -6.04375 16.405 -7 17 C-6.03445822 11.7860744 -5.11144196 7.40787611 -2 3 C-1.34 2.01 -0.68 1.02 0 0 Z " fill="#2F2F2F" transform="translate(36,86)"/>
<path d="M0 0 C3.125 0.375 3.125 0.375 6 1 C5.67 2.32 5.34 3.64 5 5 C5.66 5 6.32 5 7 5 C7 5.66 7 6.32 7 7 C6.34 7 5.68 7 5 7 C5 7.66 5 8.32 5 9 C5.66 9 6.32 9 7 9 C7 9.66 7 10.32 7 11 C4.0625 10.25 4.0625 10.25 1 9 C0.04582732 6.81903388 0 5.35817766 0 3 C-0.66 2.67 -1.32 2.34 -2 2 C-1.34 1.34 -0.68 0.68 0 0 Z " fill="#5B5B5B" transform="translate(90,127)"/>
<path d="M0 0 C2.24027294 2.88035092 4.16172132 5.84866512 6 9 C4.35 9.33 2.7 9.66 1 10 C1.33 11.32 1.66 12.64 2 14 C0.68 14 -0.64 14 -2 14 C-2.75 12.4375 -2.75 12.4375 -3 10 C-1.86915563 7.49713591 -0.47860484 5.32992278 1 3 C0.34 2.67 -0.32 2.34 -1 2 C-0.67 1.34 -0.34 0.68 0 0 Z " fill="#808080" transform="translate(76,106)"/>
<path d="M0 0 C1.32 0.66 2.64 1.32 4 2 C4 4.33333333 4 6.66666667 4 9 C2.35 9.66 0.7 10.32 -1 11 C-2.08597621 6.65609517 -1.99695254 3.99390508 0 0 Z " fill="#787878" transform="translate(40,144)"/>
<path d="M0 0 C0.66 0 1.32 0 2 0 C2.66 2.97 3.32 5.94 4 9 C1.03 8.505 1.03 8.505 -2 8 C-1.67 9.32 -1.34 10.64 -1 12 C-1.66 12 -2.32 12 -3 12 C-3.33 12.66 -3.66 13.32 -4 14 C-4 11.03 -4 8.06 -4 5 C-3.34 5 -2.68 5 -2 5 C-2 4.34 -2 3.68 -2 3 C-1.34 3 -0.68 3 0 3 C0 2.01 0 1.02 0 0 Z " fill="#6C6C6C" transform="translate(32,110)"/>
<path d="M0 0 C2 1 2 1 4 4 C3.625 6.1875 3.625 6.1875 3 8 C1.68 8.33 0.36 8.66 -1 9 C-1.99 7.68 -2.98 6.36 -4 5 C-2.68 3.35 -1.36 1.7 0 0 Z " fill="#545454" transform="translate(90,161)"/>
<path d="M0 0 C0.33 0 0.66 0 1 0 C1.95494281 6.57849492 1.8931507 12.41816638 1 19 C0.67 19 0.34 19 0 19 C0 12.73 0 6.46 0 0 Z M3 1 C3.66 1 4.32 1 5 1 C5.33 2.98 5.66 4.96 6 7 C4.68 7.33 3.36 7.66 2 8 C1.95745644 6.00045254 1.95919217 3.99958364 2 2 C2.33 1.67 2.66 1.34 3 1 Z " fill="#4D4D4D" transform="translate(196,93)"/>
<path d="M0 0 C2 2 2 2 2.125 4.625 C2.08375 5.40875 2.0425 6.1925 2 7 C1.01 7 0.02 7 -1 7 C-3.20142332 9.4390706 -3.20142332 9.4390706 -5 12 C-3.79881657 3.07692308 -3.79881657 3.07692308 -3 1 C-2.01 0.67 -1.02 0.34 0 0 Z " fill="#5E5E5E" transform="translate(33,117)"/>
<path d="M0 0 C-0.53625 0.515625 -1.0725 1.03125 -1.625 1.5625 C-3.41296883 4.10114009 -3.41296883 4.10114009 -2.1875 7.75 C-1.5996875 9.35875 -1.5996875 9.35875 -1 11 C-3.41103827 10.03558469 -4.77404758 9.31202953 -6.3125 7.1875 C-7.18467711 4.412391 -6.89063716 2.74613125 -6 0 C-3.50907189 -1.24546405 -2.58919267 -0.7767578 0 0 Z " fill="#767676" transform="translate(83,116)"/>
<path d="M0 0 C0 3.96 0 7.92 0 12 C-0.99 12.495 -0.99 12.495 -2 13 C-3.98974713 10.19094523 -4.1011012 8.12713336 -3.75 4.8125 C-3.5025 3.554375 -3.255 2.29625 -3 1 C-1 0 -1 0 0 0 Z " fill="#535353" transform="translate(201,35)"/>
<path d="M0 0 C1.98 0.66 3.96 1.32 6 2 C4.84826645 4.46800047 3.95216435 6.04783565 2 8 C-0.625 8.125 -0.625 8.125 -3 8 C-2.34 7.67 -1.68 7.34 -1 7 C-0.17195931 4.51587793 0 2.64779693 0 0 Z " fill="#505050" transform="translate(65,166)"/>
<path d="M0 0 C0.33 0 0.66 0 1 0 C1.33 3.63 1.66 7.26 2 11 C3.32 10.01 4.64 9.02 6 8 C5.8125 10.25 5.8125 10.25 5 13 C3.35 14.32 1.7 15.64 0 17 C0 11.39 0 5.78 0 0 Z " fill="#535353" transform="translate(64,74)"/>
<path d="M0 0 C0.66 0.33 1.32 0.66 2 1 C2 2.98 2 4.96 2 7 C-0.31 6.67 -2.62 6.34 -5 6 C-3.35 4.02 -1.7 2.04 0 0 Z " fill="#373737" transform="translate(71,169)"/>
<path d="M0 0 C0.33 0 0.66 0 1 0 C1 6.27 1 12.54 1 19 C0.34 19 -0.32 19 -1 19 C-1.33 19.99 -1.66 20.98 -2 22 C-2.99 21.67 -3.98 21.34 -5 21 C-4.35546875 20.52046875 -3.7109375 20.0409375 -3.046875 19.546875 C-0.12888423 15.91609259 -0.33272759 12.7849761 -0.25 8.25 C-0.22035156 7.45722656 -0.19070312 6.66445312 -0.16015625 5.84765625 C-0.08972213 3.89897906 -0.04256518 1.94948505 0 0 Z " fill="#7D7D7D" transform="translate(70,69)"/>
<path d="M0 0 C-0.54226981 3.79588866 -2.20127563 5.47211993 -5 8 C-6 7 -6 7 -6.25 4.5625 C-6.1675 3.716875 -6.085 2.87125 -6 2 C-3 0 -3 0 0 0 Z " fill="#4D4D4D" transform="translate(71,66)"/>
<path d="M0 0 C1.40194332 0.26072029 2.80078513 0.54267182 4.1875 0.875 C4.1875 1.205 4.1875 1.535 4.1875 1.875 C-5.22252278 5.13468109 -5.22252278 5.13468109 -9.8125 5.875 C-6.91530373 1.29556074 -5.61252464 -0.68164731 0 0 Z " fill="#494949" transform="translate(108.8125,134.125)"/>
<path d="M0 0 C0.375 2.1875 0.375 2.1875 0 5 C-1.83961648 6.99022836 -3.79186148 8.38989899 -6 10 C-6.3125 7.8125 -6.3125 7.8125 -6 5 C-1.66666667 0 -1.66666667 0 0 0 Z " fill="#454545" transform="translate(34,99)"/>
<path d="M0 0 C1.32 1.32 2.64 2.64 4 4 C3.34 4 2.68 4 2 4 C2 4.99 2 5.98 2 7 C0.68 6.67 -0.64 6.34 -2 6 C-1.125 1.125 -1.125 1.125 0 0 Z " fill="#868686" transform="translate(149,183)"/>
<path d="M0 0 C0.99 0.495 0.99 0.495 2 1 C1.01 1.495 1.01 1.495 0 2 C0 1.34 0 0.68 0 0 Z M-4 2 C-2.68 2 -1.36 2 0 2 C-1 4 -2 6 -3 8 C-4.32 7.34 -5.64 6.68 -7 6 C-5.75 4 -5.75 4 -4 2 Z " fill="#4E4E4E" transform="translate(68,158)"/>
<path d="M0 0 C0.99 0 1.98 0 3 0 C1.75023244 3.65316671 1.32901247 4.78065836 -2 7 C-2.66 6.01 -3.32 5.02 -4 4 C-2.68 3.34 -1.36 2.68 0 2 C0 1.34 0 0.68 0 0 Z " fill="#5E5E5E" transform="translate(86,124)"/>
<path d="M0 0 C5.94 0 11.88 0 18 0 C16.68 1.32 15.36 2.64 14 4 C14 3.01 14 2.02 14 1 C9.38 1 4.76 1 0 1 C0 0.67 0 0.34 0 0 Z " fill="#BDBDBD" transform="translate(106,31)"/>
<path d="M0 0 C3.875 1.875 3.875 1.875 5 3 C5.04063832 4.66617115 5.042721 6.33388095 5 8 C4.01 8.495 4.01 8.495 3 9 C2.67 7.35 2.34 5.7 2 4 C1.34 4 0.68 4 0 4 C0 2.68 0 1.36 0 0 Z " fill="#888888" transform="translate(24,177)"/>
<path d="M0 0 C0.66 0.33 1.32 0.66 2 1 C0.63016497 4.16115776 0.0109362 4.9927092 -3 7 C-3.99 6.67 -4.98 6.34 -6 6 C-4.02 4.02 -2.04 2.04 0 0 Z " fill="#2A2A2A" transform="translate(86,34)"/>
<path d="M0 0 C2 2 2 2 2 5 C-2.29 5 -6.58 5 -11 5 C-10.67 4.34 -10.34 3.68 -10 3 C-6.7 3.33 -3.4 3.66 0 4 C-0.33 3.01 -0.66 2.02 -1 1 C-0.67 0.67 -0.34 0.34 0 0 Z " fill="#4A4A4A" transform="translate(77,37)"/>
<path d="M0 0 C0.66 0.33 1.32 0.66 2 1 C1.34 2.65 0.68 4.3 0 6 C-0.99 5.67 -1.98 5.34 -3 5 C-1.125 1.125 -1.125 1.125 0 0 Z " fill="#373737" transform="translate(68,161)"/>
</svg>
