<?xml version="1.0" encoding="UTF-8"?>
<svg version="1.1" xmlns="http://www.w3.org/2000/svg" width="352" height="282">
<path d="M0 0 C116.16 0 232.32 0 352 0 C352 93.06 352 186.12 352 282 C235.84 282 119.68 282 0 282 C0 188.94 0 95.88 0 0 Z " fill="#FCFCFC" transform="translate(0,0)"/>
<path d="M0 0 C0.88602402 0.00222061 1.77204803 0.00444122 2.68492126 0.00672913 C3.68588333 0.00680466 4.6868454 0.00688019 5.71813965 0.00695801 C6.80666733 0.01211929 7.89519501 0.01728058 9.01670837 0.02259827 C10.67928932 0.02472069 10.67928932 0.02472069 12.37545776 0.02688599 C15.93168281 0.03250418 19.48784596 0.04505977 23.04405212 0.05775452 C25.44834809 0.06276717 27.85264504 0.06733048 30.25694275 0.07142639 C36.16518918 0.08163062 42.07330098 0.10120247 47.98155212 0.12025452 C47.98155212 12.99025452 47.98155212 25.86025452 47.98155212 39.12025452 C42.70155212 39.12025452 37.42155212 39.12025452 31.98155212 39.12025452 C31.73405212 40.48150452 31.48655212 41.84275452 31.23155212 43.24525452 C28.12887355 58.82561166 28.12887355 58.82561166 24.98155212 65.12025452 C24.75687382 66.65694317 24.57358407 68.19993505 24.41905212 69.74525452 C24.33526306 70.56252014 24.251474 71.37978577 24.16514587 72.22181702 C24.07426697 73.16154358 24.07426697 73.16154358 23.98155212 74.12025452 C23.65155212 74.12025452 23.32155212 74.12025452 22.98155212 74.12025452 C22.87850769 73.52454651 22.77546326 72.9288385 22.66929626 72.31507874 C21.45308643 65.73796918 19.61184911 59.55689285 17.41905212 53.24525452 C16.79148552 51.41495844 16.16513484 49.58424488 15.54014587 47.75306702 C15.26485046 46.95787659 14.98955505 46.16268616 14.70591736 45.34339905 C14.03906175 43.29675693 13.50362043 41.20852774 12.98155212 39.12025452 C7.70155212 39.12025452 2.42155212 39.12025452 -3.01844788 39.12025452 C-3.04309637 33.72678464 -3.06128318 28.33334726 -3.07337952 22.93983459 C-3.07842019 21.10356577 -3.08525264 19.26730098 -3.09388733 17.43104553 C-3.1059646 14.7974905 -3.11167869 12.16398835 -3.11610413 9.53041077 C-3.12126541 8.70436844 -3.1264267 7.87832611 -3.13174438 7.0272522 C-3.13193992 5.05789084 -3.08048939 3.08863838 -3.01844788 1.12025452 C-2.01844788 0.12025452 -2.01844788 0.12025452 0 0 Z " fill="#FDFDFD" transform="translate(276.01844787597656,16.879745483398438)"/>
<path d="M0 0 C4 0 4 0 5.625 1.58984375 C10.38527074 9.93384104 11.40345088 20.81208181 12.77856445 30.20458984 C14.41766229 41.21517155 16.75077539 52.10093832 19 63 C19.99 63.33 20.98 63.66 22 64 C29.23093313 50.92278052 32.75800211 36.66278288 36.41357422 22.27539062 C40.57868445 6.23451289 40.57868445 6.23451289 46 0 C48.74360862 0.28382158 49.77576696 0.73092035 51.5625 2.875 C56.68571519 14.01242432 57.95527084 26.96443211 60.125 38.9375 C60.66389284 41.88985261 61.20412497 44.84195381 61.74557495 47.7938385 C62.08011248 49.61988327 62.41297128 51.44623662 62.743927 53.27293396 C62.89433441 54.09801956 63.04474182 54.92310516 63.19970703 55.77319336 C63.3959819 56.85593788 63.3959819 56.85593788 63.59622192 57.96055603 C63.99879964 59.9939371 64.47991827 61.99376135 65 64 C65.99 64 66.98 64 68 64 C72.07955673 54.63764649 75.68139716 45.51118159 78.078125 35.5625 C78.97743763 32.08719018 80.05346097 28.73325875 81.21044922 25.33789062 C81.99306466 23.0205358 82.73384086 20.69347166 83.46484375 18.359375 C83.95572917 16.82291667 84.44661458 15.28645833 84.9375 13.75 C85.29618164 12.58597656 85.29618164 12.58597656 85.66210938 11.3984375 C87.12895287 6.86244654 88.69702974 3.56692253 92 0 C93.87109375 0.265625 93.87109375 0.265625 96 1 C101.45589751 8.56845042 102.58292454 19.82779011 103.875 28.8125 C105.38545234 39.29529742 107.71892954 49.6615502 110 60 C110.12624756 60.74628662 110.25249512 61.49257324 110.38256836 62.26147461 C110.5863208 62.83518799 110.79007324 63.40890137 111 64 C112.485 64.495 112.485 64.495 114 65 C114.26941406 64.17113281 114.53882813 63.34226563 114.81640625 62.48828125 C116.10644768 58.68627796 117.51077883 54.93967841 118.9375 51.1875 C121.08876678 45.49612431 123.13768274 39.79387592 125 34 C126.1441845 37.37365454 125.84979153 39.3475198 124.7421875 42.703125 C124.29746094 44.05083984 124.29746094 44.05083984 123.84375 45.42578125 C123.5240625 46.35777344 123.204375 47.28976563 122.875 48.25 C122.57851562 49.16652344 122.28203125 50.08304688 121.9765625 51.02734375 C120.00112273 56.89506951 117.54408974 61.92152363 114 67 C112.35 66.67 110.7 66.34 109 66 C106.20034207 58.46121097 104.830006 50.9888028 103.5625 43.0625 C102.14518249 34.55109588 100.72487436 26.05463427 98.875 17.625 C98.72877197 16.93801025 98.58254395 16.25102051 98.43188477 15.54321289 C97.42042148 11.07671232 95.89571853 7.14487611 94 3 C93.34 3 92.68 3 92 3 C88.42661622 10.23769636 86.24646323 17.66915439 84.125 25.4375 C74.75859784 58.80340262 74.75859784 58.80340262 68 67 C66.1875 66.875 66.1875 66.875 64 66 C61.45724483 61.70136984 60.34466484 57.69146728 59.46484375 52.80078125 C59.34065567 52.12508591 59.21646759 51.44939056 59.08851624 50.7532196 C58.69623587 48.60776976 58.3166386 46.46030684 57.9375 44.3125 C57.67987849 42.89112317 57.42142145 41.46989751 57.16210938 40.04882812 C56.23546725 34.95427275 55.32830449 29.85633899 54.42651367 24.75732422 C53.57032244 19.96118489 52.64975027 15.22206387 51.4375 10.5 C51.18871094 9.5203125 50.93992188 8.540625 50.68359375 7.53125 C50.18111407 5.67063953 49.60945526 3.82836579 49 2 C45.8326302 2.67066115 45.8326302 2.67066115 44.7890625 5.30859375 C42.4517608 11.59107248 40.42574053 17.84302679 38.6875 24.3125 C36.66871621 31.82103093 34.41161787 39.23310029 32 46.625 C31.5198645 48.13574097 31.5198645 48.13574097 31.0300293 49.67700195 C27.08646691 61.59724768 27.08646691 61.59724768 23 66 C20.96875 66.83447266 20.96875 66.83447266 19 67 C13.52636684 61.52636684 13.32766211 49.78652006 12.00219727 42.25732422 C11.36102116 38.51784511 11.36102116 38.51784511 10 35 C9.65319358 32.47909617 9.3447371 29.96559945 9.0625 27.4375 C8.02892378 18.7768441 6.72210104 10.9517613 3 3 C-0.29873327 3.70815993 -0.29873327 3.70815993 -1.52734375 7.02734375 C-3.13368946 11.12849609 -4.3687811 15.32611589 -5.5625 19.5625 C-6.94745105 24.41197258 -8.36381522 29.22716605 -10 34 C-10.66 34 -11.32 34 -12 34 C-11.00404881 28.81840865 -9.65479015 23.77099566 -8.25 18.6875 C-8.01023437 17.77548828 -7.77046875 16.86347656 -7.5234375 15.92382812 C-5.96430236 10.31817474 -4.21374755 4.22651193 0 0 Z " fill="#41DF40" transform="translate(33,76)"/>
<path d="M0 0 C2.36328125 0.2109375 2.36328125 0.2109375 5 1 C6.29296875 3.0390625 6.29296875 3.0390625 7.1875 5.625 C7.49042969 6.46289062 7.79335937 7.30078125 8.10546875 8.1640625 C8.40066406 9.09992188 8.69585937 10.03578125 9 11 C9.32871094 12.01449219 9.65742188 13.02898437 9.99609375 14.07421875 C11.47680165 19.34276745 12.09864776 24.78070474 12.875 30.1875 C14.55674122 41.54327269 16.61754659 52.77205467 19 64 C21.81692362 62.99266329 22.873814 62.20602486 24.45703125 59.62109375 C29.10622336 48.7015215 32.09143541 37.39479414 35.19042969 25.95507812 C36.29858726 21.91010247 37.46351353 17.88633528 38.6875 13.875 C39.21923828 12.10769531 39.21923828 12.10769531 39.76171875 10.3046875 C41.16463096 6.56063787 42.93450776 3.41784611 45 0 C46.65 0 48.3 0 50 0 C53.60069532 6.4003885 55.18430152 12.36732646 56.5 19.5625 C56.70794189 20.64644043 56.91588379 21.73038086 57.13012695 22.84716797 C58.74822388 31.36951582 60.24835234 39.91527568 61.65625 48.47485352 C62.48568562 53.44019773 63.50472502 58.19140646 65 63 C65.99 63 66.98 63 68 63 C73.78926826 49.081121 78.71085932 34.99955863 82.625 20.4375 C84.59275155 13.11821444 86.74633035 6.38050447 91 0 C95.75 0.75 95.75 0.75 98 3 C98.74532715 5.35535024 99.40121882 7.67027918 100 10.0625 C100.17515137 10.74425293 100.35030273 11.42600586 100.53076172 12.12841797 C101.02915239 14.08342855 101.51492104 16.04164405 102 18 C102.31324219 19.25490234 102.31324219 19.25490234 102.6328125 20.53515625 C103.59602817 24.62500056 104.26915969 28.71768199 104.875 32.875 C105.84363104 39.4384439 107.18615454 45.89562967 108.59130859 52.37646484 C109.49991121 56.57250913 110.33916589 60.75567369 111 65 C114.74826795 61.7871989 116.42151369 58.27804167 118.125 53.75 C118.51510254 52.74573975 118.51510254 52.74573975 118.91308594 51.72119141 C120.64265481 47.18575507 121.94916469 42.7287589 123 38 C123.63028587 36.31923769 124.28050817 34.64455275 125 33 C125.66 33 126.32 33 127 33 C124.17117059 44.75052217 121.13281876 56.06500244 114 66 C112.35 65.67 110.7 65.34 109 65 C106.68923228 58.68043168 105.19904651 52.47754636 104.09765625 45.84765625 C103.76126539 43.91728325 103.42467059 41.98694578 103.08789062 40.05664062 C102.57311601 37.05799881 102.06187703 34.05881339 101.55493164 31.05883789 C101.05774638 28.13256804 100.54710373 25.2088743 100.03515625 22.28515625 C99.89022232 21.4025563 99.74528839 20.51995636 99.59596252 19.61061096 C98.49444328 13.368053 96.55104896 7.79747738 94 2 C93.34 2 92.68 2 92 2 C89.20872435 8.93957465 86.67329081 15.7958136 84.81640625 23.04296875 C83.63945721 27.30588943 82.19287707 31.47324606 80.765625 35.65698242 C79.698174 38.81283661 78.71200175 41.93263488 78 45.1875 C76.05169127 52.61542704 73.4511916 60.41610148 68 66 C66.68 66 65.36 66 64 66 C60.63340317 57.77672495 58.80598662 49.68817149 57.375 40.9375 C56.96704574 38.52979527 56.55820711 36.12224019 56.1484375 33.71484375 C55.95548096 32.57072021 55.76252441 31.42659668 55.5637207 30.24780273 C54.41842187 23.64931404 53.09502861 17.08224038 51.5625 10.5625 C51.33691406 9.57378906 51.11132812 8.58507812 50.87890625 7.56640625 C49.97546913 4.92836987 49.12809115 3.74871 47 2 C46.38999919 3.3097987 45.78742568 4.62305609 45.1875 5.9375 C44.85105469 6.66839844 44.51460937 7.39929688 44.16796875 8.15234375 C40.36730161 17.41885326 37.84965608 27.18658348 35.04882812 36.78710938 C33.39810085 42.40721553 31.71325015 48.01404064 29.91796875 53.58984375 C29.61528076 54.53077881 29.31259277 55.47171387 29.00073242 56.44116211 C27.54523541 60.16281718 25.52200291 62.917552 23 66 C21.35 65.67 19.7 65.34 18 65 C17.79503906 64.37351562 17.59007812 63.74703125 17.37890625 63.1015625 C17.10949219 62.28429687 16.84007812 61.46703125 16.5625 60.625 C16.29566406 59.81289062 16.02882812 59.00078125 15.75390625 58.1640625 C15.04820271 55.98968201 15.04820271 55.98968201 14 54 C13.6735059 52.31474412 13.3875473 50.6215667 13.12109375 48.92578125 C11.96028522 41.73220463 10.72747268 34.55388325 9.45043945 27.38012695 C9.19033109 25.90999906 8.933531 24.43928225 8.67993164 22.96801758 C8.30645933 20.8039836 7.92192272 18.64216135 7.53515625 16.48046875 C7.312229 15.21098389 7.08930176 13.94149902 6.85961914 12.63354492 C5.94736812 8.77752904 4.65992884 5.58511148 3 2 C2.01 2.33 1.02 2.66 0 3 C-1.31620392 5.6970006 -1.31620392 5.6970006 -2.375 9.0625 C-2.58342529 9.67432129 -2.79185059 10.28614258 -3.0065918 10.91650391 C-5.47279728 18.23312847 -7.74633801 25.61566071 -10 33 C-10.66 33 -11.32 33 -12 33 C-10.46242233 26.28716091 -8.68090985 19.67615186 -6.5625 13.125 C-6.17191406 11.91070312 -5.78132812 10.69640625 -5.37890625 9.4453125 C-3.93095769 5.82749201 -2.26533127 3.14549183 0 0 Z " fill="#434444" transform="translate(170,76)"/>
<path d="M0 0 C0.88602402 0.00222061 1.77204803 0.00444122 2.68492126 0.00672913 C3.68588333 0.00680466 4.6868454 0.00688019 5.71813965 0.00695801 C6.80666733 0.01211929 7.89519501 0.01728058 9.01670837 0.02259827 C10.67928932 0.02472069 10.67928932 0.02472069 12.37545776 0.02688599 C15.93168281 0.03250418 19.48784596 0.04505977 23.04405212 0.05775452 C25.44834809 0.06276717 27.85264504 0.06733048 30.25694275 0.07142639 C36.16518918 0.08163062 42.07330098 0.10120247 47.98155212 0.12025452 C47.98155212 12.99025452 47.98155212 25.86025452 47.98155212 39.12025452 C42.70155212 39.12025452 37.42155212 39.12025452 31.98155212 39.12025452 C31.73405212 40.48150452 31.48655212 41.84275452 31.23155212 43.24525452 C28.12887355 58.82561166 28.12887355 58.82561166 24.98155212 65.12025452 C24.75687382 66.65694317 24.57358407 68.19993505 24.41905212 69.74525452 C24.33526306 70.56252014 24.251474 71.37978577 24.16514587 72.22181702 C24.07426697 73.16154358 24.07426697 73.16154358 23.98155212 74.12025452 C23.65155212 74.12025452 23.32155212 74.12025452 22.98155212 74.12025452 C22.87850769 73.52454651 22.77546326 72.9288385 22.66929626 72.31507874 C21.45308643 65.73796918 19.61184911 59.55689285 17.41905212 53.24525452 C16.79148552 51.41495844 16.16513484 49.58424488 15.54014587 47.75306702 C15.26485046 46.95787659 14.98955505 46.16268616 14.70591736 45.34339905 C14.03906175 43.29675693 13.50362043 41.20852774 12.98155212 39.12025452 C7.70155212 39.12025452 2.42155212 39.12025452 -3.01844788 39.12025452 C-3.04309637 33.72678464 -3.06128318 28.33334726 -3.07337952 22.93983459 C-3.07842019 21.10356577 -3.08525264 19.26730098 -3.09388733 17.43104553 C-3.1059646 14.7974905 -3.11167869 12.16398835 -3.11610413 9.53041077 C-3.12126541 8.70436844 -3.1264267 7.87832611 -3.13174438 7.0272522 C-3.13193992 5.05789084 -3.08048939 3.08863838 -3.01844788 1.12025452 C-2.01844788 0.12025452 -2.01844788 0.12025452 0 0 Z M-1.01844788 2.12025452 C-1.01844788 13.67025452 -1.01844788 25.22025452 -1.01844788 37.12025452 C14.82155212 37.12025452 30.66155212 37.12025452 46.98155212 37.12025452 C46.98155212 25.57025452 46.98155212 14.02025452 46.98155212 2.12025452 C31.14155212 2.12025452 15.30155212 2.12025452 -1.01844788 2.12025452 Z " fill="#C13E00" transform="translate(276.01844787597656,16.879745483398438)"/>
<path d="M0 0 C14.16420082 9.78131604 19.77517609 28.34208874 25.92456055 43.60302734 C30.02777126 54.77892013 30.02777126 54.77892013 38.0078125 62.9296875 C46.79643347 64.15420436 52.90485766 62.06922393 60.0078125 56.9296875 C67.53606892 50.85187203 74.23660511 43.87347088 80.58203125 36.58740234 C81.68619206 35.33386002 82.8426223 34.1267135 84.0078125 32.9296875 C84.6678125 32.9296875 85.3278125 32.9296875 86.0078125 32.9296875 C84.56555649 36.2676924 82.75559394 38.36812216 80.1328125 40.8671875 C77.93380126 42.97004425 75.94912224 45.00485846 74.07421875 47.40625 C67.40739575 55.54758772 56.39345952 64.82002902 45.67578125 66.23828125 C41.42863224 66.45899923 37.92208053 66.47633324 34.3828125 63.9296875 C26.67464349 56.20338162 22.9627185 44.10945502 19.36914062 34.02441406 C17.43540302 28.74422171 15.06376793 23.7785103 12.4453125 18.8046875 C12.08123291 18.10609619 11.71715332 17.40750488 11.34204102 16.68774414 C8.15345711 10.78060092 4.44781688 4.56423475 -1.9921875 1.9296875 C-10.2367982 0.62536432 -16.30768715 3.38699846 -22.9921875 8 C-33.08375746 15.41819453 -42.18890897 24.04549649 -50.9921875 32.9296875 C-51.6521875 32.5996875 -52.3121875 32.2696875 -52.9921875 31.9296875 C-37.01394881 15.74947669 -37.01394881 15.74947669 -30.9921875 10.9296875 C-30.15429688 10.25292969 -29.31640625 9.57617188 -28.453125 8.87890625 C-21.24997398 3.32943638 -9.32245255 -5.00853333 0 0 Z " fill="#4A4A4A" transform="translate(210.9921875,162.0703125)"/>
<path d="M0 0 C2.31698247 2.83735461 3.66879963 5.37447413 4.82421875 8.84375 C5.13037109 9.76027344 5.43652344 10.67679688 5.75195312 11.62109375 C6.06068359 12.57113281 6.36941406 13.52117187 6.6875 14.5 C7.00783203 15.45003906 7.32816406 16.40007812 7.65820312 17.37890625 C9.02034569 21.50889927 10 24.60319849 10 29 C3.73 29 -2.54 29 -9 29 C-7.4430921 19.1914802 -4.4596878 8.9193756 0 0 Z " fill="#BE4000" transform="translate(299,230)"/>
<path d="M0 0 C2.36328125 0.2109375 2.36328125 0.2109375 5 1 C6.29296875 3.0390625 6.29296875 3.0390625 7.1875 5.625 C7.49042969 6.46289062 7.79335937 7.30078125 8.10546875 8.1640625 C8.40066406 9.09992188 8.69585937 10.03578125 9 11 C9.32871094 12.01449219 9.65742188 13.02898437 9.99609375 14.07421875 C11.47680165 19.34276745 12.09864776 24.78070474 12.875 30.1875 C14.55674122 41.54327269 16.61754659 52.77205467 19 64 C21.81692362 62.99266329 22.873814 62.20602486 24.45703125 59.62109375 C29.12102537 48.66675597 32.13295287 37.31956344 35.22900391 25.83935547 C36.2139592 22.21205018 37.24157594 18.60292295 38.3125 15 C38.59738281 14.030625 38.88226563 13.06125 39.17578125 12.0625 C40 10 40 10 42 9 C39.78282378 23.2688777 35.2970524 37.45749116 30.875 51.1875 C30.6581958 51.88584961 30.4413916 52.58419922 30.21801758 53.30371094 C28.57480299 58.23154032 26.17022959 61.88510603 23 66 C21.35 65.67 19.7 65.34 18 65 C17.79503906 64.37351562 17.59007812 63.74703125 17.37890625 63.1015625 C17.10949219 62.28429687 16.84007812 61.46703125 16.5625 60.625 C16.29566406 59.81289062 16.02882812 59.00078125 15.75390625 58.1640625 C15.04820271 55.98968201 15.04820271 55.98968201 14 54 C13.6735059 52.31474412 13.3875473 50.6215667 13.12109375 48.92578125 C11.96028522 41.73220463 10.72747268 34.55388325 9.45043945 27.38012695 C9.19033109 25.90999906 8.933531 24.43928225 8.67993164 22.96801758 C8.30645933 20.8039836 7.92192272 18.64216135 7.53515625 16.48046875 C7.312229 15.21098389 7.08930176 13.94149902 6.85961914 12.63354492 C5.94736812 8.77752904 4.65992884 5.58511148 3 2 C2.01 2.33 1.02 2.66 0 3 C-1.31620392 5.6970006 -1.31620392 5.6970006 -2.375 9.0625 C-2.58342529 9.67432129 -2.79185059 10.28614258 -3.0065918 10.91650391 C-5.47279728 18.23312847 -7.74633801 25.61566071 -10 33 C-10.66 33 -11.32 33 -12 33 C-10.46242233 26.28716091 -8.68090985 19.67615186 -6.5625 13.125 C-6.17191406 11.91070312 -5.78132812 10.69640625 -5.37890625 9.4453125 C-3.93095769 5.82749201 -2.26533127 3.14549183 0 0 Z " fill="#3B3B3B" transform="translate(170,76)"/>
<path d="M0 0 C4 0 4 0 5.625 1.58984375 C10.38527074 9.93384104 11.40345088 20.81208181 12.77856445 30.20458984 C14.41766229 41.21517155 16.75077539 52.10093832 19 63 C19.99 63.33 20.98 63.66 22 64 C27.1421018 54.70045419 31.15989283 44.50061158 33 34 C33.66 34 34.32 34 35 34 C34.11388385 40.35559166 32.3447087 46.25332903 30.125 52.25 C29.88056152 52.92289063 29.63612305 53.59578125 29.38427734 54.2890625 C25.35288071 64.89276202 25.35288071 64.89276202 20.875 67 C20.25625 67 19.6375 67 19 67 C13.52636684 61.52636684 13.32766211 49.78652006 12.00219727 42.25732422 C11.36102116 38.51784511 11.36102116 38.51784511 10 35 C9.65319358 32.47909617 9.3447371 29.96559945 9.0625 27.4375 C8.02892378 18.7768441 6.72210104 10.9517613 3 3 C-0.29873327 3.70815993 -0.29873327 3.70815993 -1.52734375 7.02734375 C-3.13368946 11.12849609 -4.3687811 15.32611589 -5.5625 19.5625 C-6.94745105 24.41197258 -8.36381522 29.22716605 -10 34 C-10.66 34 -11.32 34 -12 34 C-11.00404881 28.81840865 -9.65479015 23.77099566 -8.25 18.6875 C-8.01023437 17.77548828 -7.77046875 16.86347656 -7.5234375 15.92382812 C-5.96430236 10.31817474 -4.21374755 4.22651193 0 0 Z " fill="#3F3F3D" transform="translate(33,76)"/>
<path d="M0 0 C1.87109375 0.265625 1.87109375 0.265625 4 1 C9.45589751 8.56845042 10.58292454 19.82779011 11.875 28.8125 C13.38545234 39.29529742 15.71892954 49.6615502 18 60 C18.18937134 61.11942993 18.18937134 61.11942993 18.38256836 62.26147461 C18.5863208 62.83518799 18.79007324 63.40890137 19 64 C19.99 64.33 20.98 64.66 22 65 C22.26941406 64.17113281 22.53882813 63.34226563 22.81640625 62.48828125 C24.10644768 58.68627796 25.51077883 54.93967841 26.9375 51.1875 C29.08876678 45.49612431 31.13768274 39.79387592 33 34 C34.1441845 37.37365454 33.84979153 39.3475198 32.7421875 42.703125 C32.44570312 43.60160156 32.14921875 44.50007813 31.84375 45.42578125 C31.36421875 46.82376953 31.36421875 46.82376953 30.875 48.25 C30.43027344 49.62478516 30.43027344 49.62478516 29.9765625 51.02734375 C28.00112273 56.89506951 25.54408974 61.92152363 22 67 C20.35 66.67 18.7 66.34 17 66 C14.20034207 58.46121097 12.830006 50.9888028 11.5625 43.0625 C10.14518249 34.55109588 8.72487436 26.05463427 6.875 17.625 C6.65565796 16.59451538 6.65565796 16.59451538 6.43188477 15.54321289 C5.42042148 11.07671232 3.89571853 7.14487611 2 3 C1.34 3 0.68 3 0 3 C-3.02779388 9.33865848 -5.2316558 15.68056527 -7.125 22.4375 C-7.62160493 24.20872425 -8.12393831 25.97835541 -8.6328125 27.74609375 C-8.84824707 28.51622803 -9.06368164 29.2863623 -9.28564453 30.07983398 C-10 32 -10 32 -12 34 C-11.10278587 26.97697906 -9.31040002 20.33914796 -7.125 13.625 C-6.88056152 12.85236816 -6.63612305 12.07973633 -6.38427734 11.28369141 C-4.88802965 6.81439275 -3.24900386 3.53030289 0 0 Z " fill="#3C3C3C" transform="translate(125,76)"/>
<path d="M0 0 C0.88602402 0.00222061 1.77204803 0.00444122 2.68492126 0.00672913 C3.68588333 0.00680466 4.6868454 0.00688019 5.71813965 0.00695801 C6.80666733 0.01211929 7.89519501 0.01728058 9.01670837 0.02259827 C10.67928932 0.02472069 10.67928932 0.02472069 12.37545776 0.02688599 C15.93168281 0.03250418 19.48784596 0.04505977 23.04405212 0.05775452 C25.44834809 0.06276717 27.85264504 0.06733048 30.25694275 0.07142639 C36.16516716 0.08247952 42.07335522 0.09923535 47.98155212 0.12025452 C47.65155212 0.78025452 47.32155212 1.44025452 46.98155212 2.12025452 C31.14155212 2.12025452 15.30155212 2.12025452 -1.01844788 2.12025452 C-1.01844788 13.67025452 -1.01844788 25.22025452 -1.01844788 37.12025452 C14.82155212 37.12025452 30.66155212 37.12025452 46.98155212 37.12025452 C46.98155212 37.45025452 46.98155212 37.78025452 46.98155212 38.12025452 C36.42155212 38.12025452 25.86155212 38.12025452 14.98155212 38.12025452 C14.98155212 39.77025452 14.98155212 41.42025452 14.98155212 43.12025452 C14.32155212 41.80025452 13.66155212 40.48025452 12.98155212 39.12025452 C7.70155212 39.12025452 2.42155212 39.12025452 -3.01844788 39.12025452 C-3.04309637 33.72678464 -3.06128318 28.33334726 -3.07337952 22.93983459 C-3.07842019 21.10356577 -3.08525264 19.26730098 -3.09388733 17.43104553 C-3.1059646 14.7974905 -3.11167869 12.16398835 -3.11610413 9.53041077 C-3.12126541 8.70436844 -3.1264267 7.87832611 -3.13174438 7.0272522 C-3.13193992 5.05789084 -3.08048939 3.08863838 -3.01844788 1.12025452 C-2.01844788 0.12025452 -2.01844788 0.12025452 0 0 Z " fill="#D17043" transform="translate(276.01844787597656,16.879745483398438)"/>
<path d="M0 0 C3.77579781 0.61645679 4.72172002 1.52443223 7.0625 4.5 C7.86229089 8.55962824 7.71675087 12.42088805 7.0625 16.5 C4.9375 19.3125 4.9375 19.3125 2.0625 20.5 C-1.125 20.4375 -1.125 20.4375 -3.9375 19.5 C-6.22750466 16.06499301 -6.23498064 14.61271981 -6.25 10.5625 C-6.26675781 9.52222656 -6.28351563 8.48195313 -6.30078125 7.41015625 C-5.74488468 2.9570063 -4.51176307 0.76795967 0 0 Z " fill="#3F3F3E" transform="translate(297.9375,25.5)"/>
<path d="M0 0 C0.33 0 0.66 0 1 0 C2.50750937 6.70339165 3.96421689 13.38328658 4.9375 20.1875 C5.87637797 26.64825345 7.20889635 33.0003664 8.59155273 39.37768555 C9.50010193 43.57331578 10.33923 47.75608545 11 52 C14.74826795 48.7871989 16.42151369 45.27804167 18.125 40.75 C18.38506836 40.08049316 18.64513672 39.41098633 18.91308594 38.72119141 C20.64265481 34.18575507 21.94916469 29.7287589 23 25 C23.63028587 23.31923769 24.28050817 21.64455275 25 20 C25.66 20 26.32 20 27 20 C24.17117059 31.75052217 21.13281876 43.06500244 14 53 C12.35 52.67 10.7 52.34 9 52 C6.87211856 46.0515592 5.27750885 40.19551193 4.140625 33.984375 C3.98712585 33.16551819 3.83362671 32.34666138 3.67547607 31.50299072 C3.35639054 29.78938321 3.0406054 28.07515804 2.72802734 26.36035156 C2.24826602 23.74053131 1.75164958 21.12426861 1.25390625 18.5078125 C0.94429114 16.83352188 0.63566235 15.15904851 0.328125 13.484375 C0.17925842 12.7072113 0.03039185 11.93004761 -0.12298584 11.1293335 C-0.83487199 7.1408598 -1.15878417 3.91502123 0 0 Z " fill="#4E4C48" transform="translate(270,89)"/>
<path d="M0 0 C8.43907226 5.68345683 14.19459328 15.83995991 18.0625 25.0625 C18.25 27.94921875 18.25 27.94921875 18.0625 30.0625 C15.32628947 26.73289441 13.63226699 23.2071415 11.8125 19.3125 C8.3350771 12.13321422 3.87814779 4.11250889 -3.9375 1.0625 C-12.99132107 0.00622088 -19.82100567 3.79425796 -26.81640625 9.26953125 C-30.25347353 12.17489751 -33.55400627 15.22597183 -36.8359375 18.3046875 C-38.9375 20.0625 -38.9375 20.0625 -40.9375 20.0625 C-40.9375 20.7225 -40.9375 21.3825 -40.9375 22.0625 C-44.32690904 25.75097454 -48.06202876 28.90804667 -51.9375 32.0625 C-52.5975 31.7325 -53.2575 31.4025 -53.9375 31.0625 C-52.64784824 29.68687146 -51.31060707 28.35483607 -49.9375 27.0625 C-49.2775 27.0625 -48.6175 27.0625 -47.9375 27.0625 C-47.67582031 26.46308594 -47.41414063 25.86367187 -47.14453125 25.24609375 C-45.86529812 22.93188236 -44.67499558 21.76590555 -42.625 20.125 C-40.49284553 18.37296323 -38.55611645 16.67080878 -36.625 14.6875 C-26.32968698 4.63161287 -14.97324438 -4.77869502 0 0 Z " fill="#D9FF3E" transform="translate(73.9375,161.9375)"/>
<path d="M0 0 C7.54902444 5.21309989 11.8214812 12.24296084 15.9453125 20.2421875 C16.26443604 20.85320312 16.58355957 21.46421875 16.91235352 22.09375 C19.12863322 26.56722534 19.12863322 26.56722534 18.0078125 29.9296875 C17.73106689 29.38554199 17.45432129 28.84139648 17.16918945 28.28076172 C15.89406363 25.78464652 14.60730708 23.29470254 13.3203125 20.8046875 C12.88525391 19.94875 12.45019531 19.0928125 12.00195312 18.2109375 C6.8621354 8.28434348 6.8621354 8.28434348 -1.9921875 1.9296875 C-10.2367982 0.62536432 -16.30768715 3.38699846 -22.9921875 8 C-33.08375746 15.41819453 -42.18890897 24.04549649 -50.9921875 32.9296875 C-51.6521875 32.5996875 -52.3121875 32.2696875 -52.9921875 31.9296875 C-37.01394881 15.74947669 -37.01394881 15.74947669 -30.9921875 10.9296875 C-30.15429688 10.25292969 -29.31640625 9.57617188 -28.453125 8.87890625 C-21.24997398 3.32943638 -9.32245255 -5.00853333 0 0 Z " fill="#3B3C3A" transform="translate(210.9921875,162.0703125)"/>
<path d="M0 0 C3.11306418 1.55653209 3.5385851 4.6394858 4.6875 7.75 C9.86587686 22.19176182 9.86587686 22.19176182 20 33 C27.38900652 34.23150109 33.38353015 31.21303465 39.30078125 27.09375 C43.76645249 23.62978504 47.92923982 19.91740962 52 16 C52.6496875 15.37867188 53.299375 14.75734375 53.96875 14.1171875 C57.89582365 10.27623388 61.47563747 6.21204303 65 2 C65.99 2.99 65.99 2.99 67 4 C63.77854804 7.32147315 60.54330759 10.62869788 57.29541016 13.92431641 C56.19595852 15.04369379 55.10014493 16.16665804 54.00830078 17.29345703 C45.25365872 26.32092936 36.90051143 34.75244631 23.6875 35.5 C19.70128623 35.42059335 17.26736701 35.11276191 14.25 32.4375 C9.49576143 26.82818255 6.82000843 19.72005844 4 13 C3.34257813 11.47052734 3.34257813 11.47052734 2.671875 9.91015625 C0 3.50330106 0 3.50330106 0 0 Z " fill="#D8FF33" transform="translate(92,192)"/>
<path d="M0 0 C0.66 0.66 1.32 1.32 2 2 C1.81501599 12.77531851 -4.0928418 26.87393154 -11 35 C-12.8125 34.875 -12.8125 34.875 -15 34 C-17.71598967 29.7126163 -18.7723111 25.38081477 -19.75 20.4375 C-20.01296875 19.15746094 -20.2759375 17.87742187 -20.546875 16.55859375 C-20.96270195 13.29291831 -20.88999117 11.13300945 -20 8 C-19.67 8 -19.34 8 -19 8 C-17.35 15.92 -15.7 23.84 -14 32 C-13.01 32 -12.02 32 -11 32 C-6.41413975 21.47570836 -2.62258139 11.19076656 0 0 Z " fill="#40DC41" transform="translate(112,108)"/>
<path d="M0 0 C2.34055563 2.85880091 3.67483485 5.41019319 4.82421875 8.9140625 C5.13037109 9.83960938 5.43652344 10.76515625 5.75195312 11.71875 C6.06068359 12.6778125 6.36941406 13.636875 6.6875 14.625 C7.00783203 15.59179688 7.32816406 16.55859375 7.65820312 17.5546875 C10 24.70490738 10 24.70490738 10 27 C9.34 27 8.68 27 8 27 C3.71428571 19.57142857 3.71428571 19.57142857 2 16 C1.34 16.33 0.68 16.66 0 17 C-0.33 15.68 -0.66 14.36 -1 13 C-1.99 13 -2.98 13 -4 13 C-3.71517632 11.58194169 -3.42181856 10.16559621 -3.125 8.75 C-2.96257812 7.96109375 -2.80015625 7.1721875 -2.6328125 6.359375 C-2.00849925 4.03168856 -1.15161458 2.10968048 0 0 Z " fill="#C44B0D" transform="translate(299,230)"/>
<path d="M0 0 C4.75 0.75 4.75 0.75 7 3 C8.69544479 7.14442059 9.2125756 10.5359125 9 15 C7.1727089 12.25906335 6.06301822 9.86174676 4.875 6.8125 C4.52179688 5.91144531 4.16859375 5.01039062 3.8046875 4.08203125 C3.53914063 3.39496094 3.27359375 2.70789063 3 2 C2.34 2 1.68 2 1 2 C-1.7885156 8.93271271 -4.31331119 15.78420956 -6.18359375 23.01953125 C-7.20224547 26.73834113 -8.36196599 30.39895181 -9.5625 34.0625 C-9.77261719 34.71847168 -9.98273438 35.37444336 -10.19921875 36.05029297 C-11.15780276 38.93893733 -11.81761663 40.81761663 -14 43 C-13.03819011 35.76984287 -11.19773039 28.85125519 -9.125 21.875 C-8.88056152 21.0406543 -8.63612305 20.20630859 -8.38427734 19.34667969 C-6.32371481 12.54776057 -3.95762241 5.93643362 0 0 Z " fill="#3C3E3C" transform="translate(261,76)"/>
<path d="M0 0 C2.0625 0.25 2.0625 0.25 4 1 C5.38226016 3.76452033 5.09525387 6.0461363 5.0625 9.125 C5.05347656 10.22070312 5.04445313 11.31640625 5.03515625 12.4453125 C5.02355469 13.28835937 5.01195312 14.13140625 5 15 C3.35 15.33 1.7 15.66 0 16 C-2.66965874 12.68962317 -3.21168302 10.43739116 -2.8125 6.3125 C-2.41522276 3.16076722 -2.30675688 2.30675688 0 0 Z " fill="#F0F1F1" transform="translate(297,28)"/>
<path d="M0 0 C1.32 0 2.64 0 4 0 C6.71794571 2.73704134 7.58262131 5.39203266 8.3125 9.125 C8.49425781 9.99382812 8.67601563 10.86265625 8.86328125 11.7578125 C8.90839844 12.49773437 8.95351563 13.23765625 9 14 C8.34 14.66 7.68 15.32 7 16 C6.71125 14.96875 6.4225 13.9375 6.125 12.875 C5.17691202 9.54992003 4.11743406 6.27248547 3 3 C-0.29873327 3.70815993 -0.29873327 3.70815993 -1.52734375 7.02734375 C-3.13368946 11.12849609 -4.3687811 15.32611589 -5.5625 19.5625 C-6.94745105 24.41197258 -8.36381522 29.22716605 -10 34 C-10.66 34 -11.32 34 -12 34 C-11.00404881 28.81840865 -9.65479015 23.77099566 -8.25 18.6875 C-8.01023437 17.77548828 -7.77046875 16.86347656 -7.5234375 15.92382812 C-5.96430236 10.31817474 -4.21374755 4.22651193 0 0 Z " fill="#464645" transform="translate(33,76)"/>
<path d="M0 0 C0.66 0 1.32 0 2 0 C0.55774399 3.3380049 -1.25221856 5.43843466 -3.875 7.9375 C-6.0726863 10.03908975 -8.05644237 12.07232393 -9.9296875 14.47265625 C-15.47719315 21.24479994 -23.30556415 26.8779808 -31 31 C-31.99 30.67 -32.98 30.34 -34 30 C-33.34515625 29.62230469 -32.6903125 29.24460938 -32.015625 28.85546875 C-20.87381638 22.13576214 -11.97653708 13.45918299 -3.4765625 3.70825195 C-2.35561584 2.43769099 -1.18209776 1.21387458 0 0 Z " fill="#383836" transform="translate(295,195)"/>
<path d="M0 0 C0.66 0 1.32 0 2 0 C-3.84520885 24.28009828 -3.84520885 24.28009828 -11 33 C-12.32 33 -13.64 33 -15 33 C-14 31 -14 31 -11 30 C-9.66899613 27.31724164 -8.52451973 24.71699775 -7.4375 21.9375 C-7.13392578 21.19822266 -6.83035156 20.45894531 -6.51757812 19.69726562 C-4.57359442 14.85636504 -3.19630488 10.07473624 -2 5 C-1.36971413 3.31923769 -0.71949183 1.64455275 0 0 Z " fill="#3E3C37" transform="translate(295,109)"/>
<path d="M0 0 C0.99 0 1.98 0 3 0 C3.66 0.99 4.32 1.98 5 3 C5.99 3 6.98 3 8 3 C7.38722388 5.96175123 6.74627478 7.38058783 5 10 C4.34 9.67 3.68 9.34 3 9 C2.67 9.66 2.34 10.32 2 11 C1.67 10.34 1.34 9.68 1 9 C0.01 9 -0.98 9 -2 9 C-2 8.34 -2 7.68 -2 7 C-1.34 7 -0.68 7 0 7 C0 4.69 0 2.38 0 0 Z " fill="#BF3C00" transform="translate(295,243)"/>
<path d="M0 0 C3.16819186 1.58409593 3.63583098 4.83435379 4.8125 8 C6.87184482 13.39513776 9.11164943 18.36884131 12.21484375 23.265625 C13 25 13 25 12 28 C6.53895748 21.19348323 0 8.8493711 0 0 Z " fill="#DAFF4E" transform="translate(92,192)"/>
<path d="M0 0 C2.11845655 3.60412738 2.81281907 7.3797032 3.5625 11.4375 C3.68818359 12.09298828 3.81386719 12.74847656 3.94335938 13.42382812 C4.29930758 15.28184051 4.64979224 17.14089708 5 19 C5.33080515 20.66717031 5.6629638 22.33407819 6 24 C5.34 24.33 4.68 24.66 4 25 C-2.12804878 8.08658537 -2.12804878 8.08658537 0 0 Z " fill="#4C4A4E" transform="translate(275,116)"/>
<path d="M0 0 C0.66 0.33 1.32 0.66 2 1 C1.41514285 5.43959745 0.27434569 9.1442466 -1.5 13.25 C-1.9434375 14.28640625 -2.386875 15.3228125 -2.84375 16.390625 C-3.53094369 17.94145401 -4.24140844 19.48281688 -5 21 C-5.66 21 -6.32 21 -7 21 C-4.66666667 14 -2.33333333 7 0 0 Z " fill="#50514F" transform="translate(246,118)"/>
<path d="M0 0 C1.0625 1.8125 1.0625 1.8125 2 4 C1.67 4.99 1.34 5.98 1 7 C1.33 7.33 1.66 7.66 2 8 C2.33 8.66 2.66 9.32 3 10 C1.1875 13 1.1875 13 -1 16 C-1.99 16 -2.98 16 -4 16 C-2.98408579 10.53135543 -1.92908943 5.23609987 0 0 Z " fill="#C84E15" transform="translate(294,243)"/>
<path d="M0 0 C0.33 0 0.66 0 1 0 C1.20496094 1.03640625 1.40992188 2.0728125 1.62109375 3.140625 C1.89317769 4.51042689 2.16531596 5.88021799 2.4375 7.25 C2.57220703 7.93191406 2.70691406 8.61382812 2.84570312 9.31640625 C3.22306625 11.21242585 3.61118619 13.10629541 4 15 C4.1546875 15.7940625 4.309375 16.588125 4.46875 17.40625 C4.88765925 19.23620581 4.88765925 19.23620581 7.0625 20.25 C7.701875 20.4975 8.34125 20.745 9 21 C7.35 21.33 5.7 21.66 4 22 C-2.61746231 6.9798995 -2.61746231 6.9798995 0 0 Z " fill="#4B4B49" transform="translate(139,121)"/>
<path d="M0 0 C0 3 0 3 -2.66796875 5.7421875 C-3.83374349 6.79471555 -5.00730402 7.83866825 -6.1875 8.875 C-7.34853951 9.91307546 -8.50870722 10.95212687 -9.66796875 11.9921875 C-10.22919434 12.49331055 -10.79041992 12.99443359 -11.36865234 13.51074219 C-13.65788367 15.60058222 -15.83101083 17.78607885 -18 20 C-18.66 19.67 -19.32 19.34 -20 19 C-17.79595379 16.76656047 -15.58599185 14.53906222 -13.375 12.3125 C-12.75753906 11.68666016 -12.14007813 11.06082031 -11.50390625 10.41601562 C-7.82315047 6.71588744 -4.06668776 3.27211954 0 0 Z " fill="#2F3131" transform="translate(178,175)"/>
<path d="M0 0 C0.33 0 0.66 0 1 0 C1.33 1.32 1.66 2.64 2 4 C3.32 3.34 4.64 2.68 6 2 C4.76368629 7.03356296 3.4512573 12.02426068 2 17 C-0.25998595 13.40537669 -0.20868087 10.43404325 -0.125 6.25 C-0.09792969 4.49429688 -0.09792969 4.49429688 -0.0703125 2.703125 C-0.04710937 1.81109375 -0.02390625 0.9190625 0 0 Z " fill="#C24D0B" transform="translate(300,63)"/>
<path d="M0 0 C0.33 0 0.66 0 1 0 C1.66 3.96 2.32 7.92 3 12 C7.22754195 9.88622902 7.174425 9.772855 9 6 C9.99 5.67 10.98 5.34 12 5 C10.7508258 8.45925163 9.32472205 11.14693203 7 14 C4.625 13.8125 4.625 13.8125 2 13 C-0.60054192 8.91343412 -0.15851928 4.67631878 0 0 Z " fill="#3E403D" transform="translate(186,128)"/>
<path d="M0 0 C0.33 0 0.66 0 1 0 C1.55816226 2.58075024 2.0968763 5.16308901 2.625 7.75 C2.78484375 8.47960937 2.9446875 9.20921875 3.109375 9.9609375 C4.20458069 15.43696596 4.20458069 15.43696596 3.0859375 18.515625 C2.72757812 19.00546875 2.36921875 19.4953125 2 20 C1.46706163 17.60629375 0.9484183 15.21091562 0.4375 12.8125 C0.28603516 12.13896484 0.13457031 11.46542969 -0.02148438 10.77148438 C-0.8403763 6.86746475 -1.1282845 3.84812264 0 0 Z " fill="#51E04E" transform="translate(92,116)"/>
<path d="M0 0 C0.66 0.33 1.32 0.66 2 1 C2.77681874 10.04562269 2.77681874 10.04562269 -0.1875 13.6875 C-3.39069832 15.18232588 -4.70635844 15.12924853 -8 14 C-8 13.67 -8 13.34 -8 13 C-4.535 12.505 -4.535 12.505 -1 12 C-0.67 8.04 -0.34 4.08 0 0 Z " fill="#191919" transform="translate(303,31)"/>
<path d="M0 0 C0.66 0 1.32 0 2 0 C2.12375 0.969375 2.2475 1.93875 2.375 2.9375 C3.15161694 8.38491311 4.25929332 13.77787996 6 19 C5.34 19.66 4.68 20.32 4 21 C3.32151792 18.81613582 2.6577449 16.62769916 2 14.4375 C1.62875 13.21933594 1.2575 12.00117187 0.875 10.74609375 C0.00485057 7.02076651 -0.15688404 3.80934051 0 0 Z " fill="#C04810" transform="translate(291,55)"/>
<path d="M0 0 C2.09749995 2.35968744 2.96905704 3.54616994 3.1875 6.75 C3.125625 7.4925 3.06375 8.235 3 9 C2.34 9 1.68 9 1 9 C0.67 9.99 0.34 10.98 0 12 C-0.33 12 -0.66 12 -1 12 C-1.02698189 10.37509046 -1.04638757 8.75005367 -1.0625 7.125 C-1.07410156 6.22007812 -1.08570313 5.31515625 -1.09765625 4.3828125 C-1 2 -1 2 0 0 Z " fill="#C24508" transform="translate(299,230)"/>
<path d="M0 0 C0.66 0 1.32 0 2 0 C0.66666667 5.33333333 -0.66666667 10.66666667 -2 16 C-2.33 16 -2.66 16 -3 16 C-3.37952295 9.80112515 -2.8352113 5.5522888 0 0 Z " fill="#51544F" transform="translate(295,109)"/>
<path d="M0 0 C2 0.0625 2 0.0625 4 1 C5.25 3.5625 5.25 3.5625 6 6 C5.34 6.66 4.68 7.32 4 8 C3.34 6.35 2.68 4.7 2 3 C1.34 3 0.68 3 0 3 C-0.66 4.32 -1.32 5.64 -2 7 C-2.66 7 -3.32 7 -4 7 C-2.92598892 4.08482708 -2.22189824 2.22189824 0 0 Z " fill="#4F4F4E" transform="translate(125,76)"/>
<path d="M0 0 C2.58091932 1.59595623 3.82276335 2.52454342 4.8984375 5.41015625 C5.05570313 6.28542969 5.21296875 7.16070312 5.375 8.0625 C5.54773437 8.94035156 5.72046875 9.81820312 5.8984375 10.72265625 C5.93195312 11.47417969 5.96546875 12.22570312 6 13 C5.34 13.66 4.68 14.32 4 15 C2.5487427 10.02426068 1.23631371 5.03356296 0 0 Z " fill="#464749" transform="translate(36,77)"/>
<path d="M0 0 C1.9375 0.75 1.9375 0.75 4 2 C5.12530576 5.05440135 4.98514925 7.55665014 4.5625 10.75 C4.46066406 11.54921875 4.35882813 12.3484375 4.25390625 13.171875 C4.12822266 14.07679687 4.12822266 14.07679687 4 15 C3.67 15 3.34 15 3 15 C2 10 1 5 0 0 Z " fill="#C64811" transform="translate(296,76)"/>
<path d="M0 0 C0.66 0.66 1.32 1.32 2 2 C1.7578125 4.3828125 1.7578125 4.3828125 1.125 7.125 C0.92132813 8.03507812 0.71765625 8.94515625 0.5078125 9.8828125 C0.34023437 10.58148438 0.17265625 11.28015625 0 12 C-0.66 11.34 -1.32 10.68 -2 10 C-1.7578125 7.6171875 -1.7578125 7.6171875 -1.125 4.875 C-0.92132813 3.96492188 -0.71765625 3.05484375 -0.5078125 2.1171875 C-0.34023437 1.41851562 -0.17265625 0.71984375 0 0 Z " fill="#5FDD5F" transform="translate(112,108)"/>
<path d="M0 0 C2.09350689 3.4019487 2.17942163 6.05272412 2 10 C1.34 10 0.68 10 0 10 C-1.125 2.25 -1.125 2.25 0 0 Z " fill="#5B5A57" transform="translate(275,116)"/>
<path d="M0 0 C0.33 0 0.66 0 1 0 C1.33 3.3 1.66 6.6 2 10 C1.01 10.495 1.01 10.495 0 11 C-0.19491452 9.54263913 -0.38069358 8.08405407 -0.5625 6.625 C-0.66691406 5.81289062 -0.77132812 5.00078125 -0.87890625 4.1640625 C-1 2 -1 2 0 0 Z " fill="#575456" transform="translate(227,103)"/>
<path d="M0 0 C0 3.99904969 -1.72586967 5.80200422 -4 9 C-4.99 8.34 -5.98 7.68 -7 7 C-4.66666667 4.66666667 -2.33333333 2.33333333 0 0 Z " fill="#575954" transform="translate(197,133)"/>
<path d="M0 0 C2 4 2 4 1.125 7.25 C0.75375 8.1575 0.3825 9.065 0 10 C-0.66 10 -1.32 10 -2 10 C-1.34 6.7 -0.68 3.4 0 0 Z " fill="#4DDF49" transform="translate(69,100)"/>
<path d="M0 0 C0.33 0 0.66 0 1 0 C1.33 2.97 1.66 5.94 2 9 C0.68 9 -0.64 9 -2 9 C-1.34 6.03 -0.68 3.06 0 0 Z " fill="#C64D18" transform="translate(297,234)"/>
<path d="M0 0 C0.66 0.66 1.32 1.32 2 2 C0.37660195 3.70884005 -1.29319053 5.37446717 -3 7 C-3.66 7 -4.32 7 -5 7 C-3.70700306 4.11562221 -2.34058637 2.12780579 0 0 Z " fill="#D7F949" transform="translate(157,194)"/>
<path d="M0 0 C-1.39332574 3.36720387 -2.9789286 4.9859524 -6 7 C-6 4 -6 4 -4.125 1.8125 C-2 0 -2 0 0 0 Z " fill="#484847" transform="translate(297,195)"/>
<path d="M0 0 C0.33 0.99 0.66 1.98 1 3 C0.34 3.66 -0.32 4.32 -1 5 C-3.0625 4.8125 -3.0625 4.8125 -5 4 C-5.33 3.01 -5.66 2.02 -6 1 C-3.525 1.495 -3.525 1.495 -1 2 C-0.67 1.34 -0.34 0.68 0 0 Z " fill="#4B4C4B" transform="translate(56,138)"/>
<path d="M0 0 C0.2475 0.61875 0.495 1.2375 0.75 1.875 C2.20628639 4.35068687 3.37812506 4.95125002 6 6 C4.35 6.33 2.7 6.66 1 7 C-0.0625 4.625 -0.0625 4.625 -1 2 C-0.67 1.34 -0.34 0.68 0 0 Z " fill="#555553" transform="translate(142,136)"/>
<path d="M0 0 C0.66 0.33 1.32 0.66 2 1 C1.34 3.31 0.68 5.62 0 8 C-0.66 8 -1.32 8 -2 8 C-2.125 5.125 -2.125 5.125 -2 2 C-1.34 1.34 -0.68 0.68 0 0 Z " fill="#C65819" transform="translate(304,65)"/>
</svg>
