<?xml version="1.0" encoding="UTF-8"?>
<svg version="1.1" xmlns="http://www.w3.org/2000/svg" width="512" height="512">
<path d="M0 0 C1.3878067 -0.02114868 1.3878067 -0.02114868 2.8036499 -0.04272461 C4.30777435 -0.02754288 4.30777435 -0.02754288 5.84228516 -0.01205444 C6.90787659 -0.02081604 7.97346802 -0.02957764 9.0713501 -0.03860474 C12.59176415 -0.06060139 16.11092095 -0.04604379 19.63134766 -0.02914429 C22.07845297 -0.03251231 24.52555666 -0.03736481 26.97265625 -0.04364014 C32.10058524 -0.05101189 37.22807868 -0.04029545 42.35595703 -0.01693726 C48.93035551 0.01154977 55.50373345 -0.00485245 62.07809448 -0.03479958 C67.13101903 -0.05286383 72.18370147 -0.04711832 77.2366333 -0.03416061 C79.66074748 -0.03082423 82.08488362 -0.03492176 84.50897217 -0.04655838 C87.89671079 -0.05925181 91.28279484 -0.03990838 94.67041016 -0.01205444 C95.67315979 -0.0221756 96.67590942 -0.03229675 97.70904541 -0.04272461 C98.63424988 -0.02862549 99.55945435 -0.01452637 100.51269531 0 C101.31277008 0.00188513 102.11284485 0.00377026 102.93716431 0.00571251 C106.55028557 0.98596985 108.01524175 2.67833452 110.25634766 5.63491821 C110.74645103 8.49366681 110.92845862 10.75512193 110.88212585 13.60740662 C110.8890704 14.4048495 110.89601494 15.20229239 110.90316993 16.02390021 C110.92042181 18.69396066 110.90212898 21.36258596 110.8840332 24.03262329 C110.88921203 25.94826961 110.89661203 27.86391103 110.90606689 29.77954102 C110.92164196 33.90586644 110.92144939 38.03178566 110.90906334 42.15812111 C110.88951458 48.69500239 110.9047275 55.23152331 110.92451477 61.76838684 C110.95168659 72.1225355 110.95515365 82.47653761 110.94874173 92.83071488 C110.93782697 111.3316275 110.96256982 129.83249418 111.00248939 148.3333618 C111.01549285 154.81772413 111.01685859 161.30195167 111.00835645 167.78632033 C111.00470306 171.84275212 111.00906491 175.89915026 111.01519775 179.95557785 C111.01627329 181.82104177 111.01397956 183.68651155 111.00785255 185.55196571 C110.93158769 209.96818087 113.4865289 233.13682819 131.25634766 251.63491821 C139.125307 258.67941099 147.30923606 263.89549537 157.25634766 267.63491821 C158.15095703 267.97394165 159.04556641 268.31296509 159.96728516 268.66226196 C177.60226378 274.14476964 197.13670435 271.23239448 213.31616211 263.09951782 C229.19641886 254.54537832 240.62023803 239.40788624 246.32666016 222.45523071 C249.75329691 209.64692828 249.3980722 196.53146161 249.38232422 183.38150024 C249.38372115 181.44712788 249.38562187 179.51275582 249.38798523 177.5783844 C249.39246009 173.43262613 249.39433781 169.28687771 249.39444733 165.1411171 C249.39559261 158.58587407 249.40846426 152.03068671 249.42401123 145.47546387 C249.42658408 144.36698314 249.42915694 143.25850241 249.43180776 142.11643136 C249.43707332 139.85115937 249.4423588 137.58588743 249.44766378 135.32061553 C249.48273748 120.07218368 249.50931745 104.82382352 249.50683594 89.5753479 C249.50524898 79.26930708 249.52123597 68.96345835 249.55754256 58.65747917 C249.5760141 53.20853648 249.58533376 47.75991471 249.57306671 42.31094742 C249.56165561 37.19385175 249.57327355 32.07733262 249.60270119 26.9603138 C249.6093555 25.08217347 249.60745154 23.20398059 249.59640312 21.32586098 C249.58257839 18.76356441 249.59936887 16.2032276 249.62384033 13.64105225 C249.61248495 12.89660296 249.60112957 12.15215367 249.58943009 11.38514531 C249.66073757 7.55113774 250.1596524 5.76255036 252.49940109 2.67421722 C255.37485385 0.5472598 256.50166992 0.00824273 260 0 C260.92520447 -0.01409912 261.85040894 -0.02819824 262.8036499 -0.04272461 C264.30777435 -0.02754288 264.30777435 -0.02754288 265.84228516 -0.01205444 C266.90787659 -0.02081604 267.97346802 -0.02957764 269.0713501 -0.03860474 C272.59176415 -0.06060139 276.11092095 -0.04604379 279.63134766 -0.02914429 C282.07845297 -0.03251231 284.52555666 -0.03736481 286.97265625 -0.04364014 C292.10058524 -0.05101189 297.22807868 -0.04029545 302.35595703 -0.01693726 C308.93035551 0.01154977 315.50373345 -0.00485245 322.07809448 -0.03479958 C327.13101903 -0.05286383 332.18370147 -0.04711832 337.2366333 -0.03416061 C339.66074748 -0.03082423 342.08488362 -0.03492176 344.50897217 -0.04655838 C347.89671079 -0.05925181 351.28279484 -0.03990838 354.67041016 -0.01205444 C355.67315979 -0.0221756 356.67590942 -0.03229675 357.70904541 -0.04272461 C358.63424988 -0.02862549 359.55945435 -0.01452637 360.51269531 0 C361.31277008 0.00188513 362.11284485 0.00377026 362.93716431 0.00571251 C366.57865506 0.99366663 368.0149058 2.63360578 370.25634766 5.63491821 C370.74632834 8.7167625 370.92927901 11.2421262 370.88453674 14.31958008 C370.89163113 15.19375505 370.89872552 16.06793002 370.90603489 16.96859515 C370.92363936 19.89866937 370.9054964 22.82742126 370.88745117 25.75747681 C370.89258972 27.8588064 370.8998705 29.96013169 370.90913391 32.06144714 C370.92768465 37.77548461 370.91467766 43.48905668 370.89504361 49.20307493 C370.87864747 55.19945529 370.88747317 61.19580636 370.89256287 67.19219971 C370.89708901 77.28190515 370.88119714 87.37142558 370.85327148 97.46109009 C370.82137357 109.07436237 370.82117283 120.68729806 370.83848625 132.30059373 C370.85445121 143.50841768 370.84754403 154.71611999 370.83054924 165.92393875 C370.82373171 170.6721387 370.82465668 175.42023959 370.83209419 180.16843796 C370.83985558 185.79103611 370.8273154 191.41326043 370.80024529 197.03579521 C370.79345627 199.08052526 370.79315897 201.12529087 370.80046082 203.17001915 C370.88300102 229.3349367 365.77248203 254.65837669 355.25634766 278.63491821 C354.96920898 279.30345825 354.68207031 279.97199829 354.38623047 280.66079712 C334.42112041 326.79638929 295.52447261 361.99725896 249.25634766 380.63491821 C237.56340711 385.15325059 225.57715162 388.36119725 213.25634766 390.63491821 C212.34755859 390.81296997 211.43876953 390.99102173 210.50244141 391.17446899 C200.63588358 392.92584561 190.86998876 393.03197206 180.88134766 393.00991821 C179.9978363 393.00970673 179.11432495 393.00949524 178.20404053 393.00927734 C164.20454231 392.97586754 150.882657 392.05951977 137.25634766 388.63491821 C136.45165039 388.4423645 135.64695313 388.24981079 134.81787109 388.05142212 C124.24740253 385.49115282 114.22049911 382.00520471 104.25634766 377.63491821 C103.58780762 377.34777954 102.91926758 377.06064087 102.23046875 376.76480103 C56.09487658 356.79969096 20.89400691 317.90304316 2.25634766 271.63491821 C-2.26486053 259.9345354 -5.44025796 247.95566326 -7.74365234 235.63491821 C-7.99642488 234.37710037 -7.99642488 234.37710037 -8.25430393 233.09387207 C-10.15597502 222.52192407 -10.04760592 212.02771912 -10.05004883 201.31851196 C-10.05768232 199.18680027 -10.06611184 197.0550913 -10.07527161 194.92338562 C-10.09708727 189.16986554 -10.10599627 183.41639854 -10.11109805 177.6628418 C-10.11475249 174.06612527 -10.1209977 170.46942245 -10.12809944 166.87271118 C-10.1525345 154.32062167 -10.16563605 141.76857325 -10.16918945 129.21646118 C-10.17283541 117.51858522 -10.20282169 105.82096987 -10.24459404 94.12317371 C-10.27924282 84.06770585 -10.29473684 74.01232478 -10.29543549 63.9567976 C-10.29622917 57.95566731 -10.30501297 51.95480388 -10.33343315 45.95373535 C-10.35952564 40.3195897 -10.36186834 34.68593418 -10.34577751 29.05175591 C-10.34395687 26.98331067 -10.35070885 24.91483774 -10.36659622 22.84645271 C-10.38694344 20.02600629 -10.37657272 17.20729409 -10.35838318 14.38687134 C-10.37158315 13.56596732 -10.38478311 12.7450633 -10.39838308 11.89928341 C-10.33691346 7.73578988 -10.06977593 6.07237649 -7.50170994 2.62760353 C-4.63077843 0.55336727 -3.46874371 0.00817302 0 0 Z M10.25634766 20.63491821 C10.25634766 44.39491821 10.25634766 68.15491821 10.25634766 92.63491821 C36.65634766 92.63491821 63.05634766 92.63491821 90.25634766 92.63491821 C90.25634766 68.87491821 90.25634766 45.11491821 90.25634766 20.63491821 C63.85634766 20.63491821 37.45634766 20.63491821 10.25634766 20.63491821 Z M270.25634766 20.63491821 C270.25634766 44.39491821 270.25634766 68.15491821 270.25634766 92.63491821 C296.65634766 92.63491821 323.05634766 92.63491821 350.25634766 92.63491821 C350.25634766 68.87491821 350.25634766 45.11491821 350.25634766 20.63491821 C323.85634766 20.63491821 297.45634766 20.63491821 270.25634766 20.63491821 Z M10.25634766 112.63491821 C10.22718939 128.19155706 10.22718939 128.19155706 10.20751953 143.74819946 C10.20157658 150.10709483 10.19459993 156.4659756 10.1809082 162.82485962 C10.16992216 167.9601571 10.16403806 173.09543888 10.16147041 178.23074722 C10.15964414 180.17521537 10.15607907 182.1196828 10.1506176 184.06414413 C10.02155579 207.99979636 10.02155579 207.99979636 13.00634766 231.69741821 C13.26967896 233.07727905 13.26967896 233.07727905 13.53833008 234.48501587 C16.40393237 248.95975618 20.86142971 262.34673527 27.25634766 275.63491821 C27.57555176 276.30990356 27.89475586 276.98488892 28.22363281 277.68032837 C39.01233065 300.22109567 55.29753415 320.56342019 75.25634766 335.63491821 C76.30300371 336.47732423 77.34852285 337.32114422 78.39306641 338.16616821 C101.13845229 356.1455742 127.96637309 365.84665421 156.25634766 370.63491821 C157.17488525 370.80998901 158.09342285 370.98505981 159.03979492 371.16543579 C162.68407331 371.6973483 166.26900953 371.83267064 169.94384766 371.87319946 C170.67512375 371.882948 171.40639984 371.89269653 172.15983582 371.90274048 C188.58741712 372.07649802 204.24940545 371.77598408 220.25634766 367.63491821 C221.01351074 367.44768188 221.77067383 367.26044556 222.55078125 367.0675354 C233.27818291 364.36996078 243.30181317 360.42552288 253.25634766 355.63491821 C253.93133301 355.31571411 254.60631836 354.99651001 255.30175781 354.66763306 C277.84252512 343.87893522 298.18484963 327.59373172 313.25634766 307.63491821 C314.09875368 306.58826216 314.94257366 305.54274301 315.78759766 304.49819946 C333.76700364 281.75281358 343.46808366 254.92489278 348.25634766 226.63491821 C348.41749557 225.76559158 348.57864349 224.89626495 348.74467468 224.00059509 C349.32172161 220.20490214 349.6077404 216.42987484 349.81274414 212.60025024 C349.85492537 211.8192502 349.89710661 211.03825016 349.94056606 210.23358345 C350.41651159 200.55464024 350.38121505 190.877661 350.35400391 181.18960571 C350.3521329 179.19751013 350.35071223 177.20541408 350.34971619 175.21331787 C350.34594468 170.03499015 350.33616198 164.85669163 350.32501221 159.67837524 C350.31285634 153.43050235 350.30837024 147.18261956 350.3025589 140.93473816 C350.29294594 131.5014447 350.27375226 122.06821497 350.25634766 112.63491821 C323.85634766 112.63491821 297.45634766 112.63491821 270.25634766 112.63491821 C270.23056641 119.87300415 270.20478516 127.11109009 270.17822266 134.56851196 C270.15302262 139.18508262 270.12666529 143.8015898 270.09619141 148.41812134 C270.04805087 155.72744898 270.0039335 163.03662949 269.98535156 170.34609985 C269.97008118 176.24667331 269.9354537 182.14685882 269.88803864 188.04725838 C269.87333115 190.28558012 269.86531284 192.52395729 269.86446381 194.76232719 C269.85210671 211.0220592 269.00385498 226.72269109 261.50634766 241.50991821 C261.16563232 242.20770386 260.82491699 242.9054895 260.47387695 243.62442017 C257.3732517 249.78374151 253.58809372 255.27225442 249.25634766 260.63491821 C248.11166016 262.18179321 248.11166016 262.18179321 246.94384766 263.75991821 C231.66364674 280.10617966 209.54847574 291.00230436 187.18212891 291.95523071 C162.89543726 292.57087426 142.80434341 287.53993522 123.25634766 272.63491821 C122.51771484 272.0819104 121.77908203 271.52890259 121.01806641 270.95913696 C112.28012984 263.90224631 105.04747961 253.73866588 100.25634766 243.63491821 C99.75361328 242.58819946 99.25087891 241.54148071 98.73291016 240.46304321 C91.38902126 224.34231149 90.79338249 209.20042587 90.74462891 191.73648071 C90.72775475 189.44719497 90.7096009 187.15791833 90.69023132 184.86865234 C90.64302239 178.88803963 90.61302549 172.90746388 90.58679199 166.92672729 C90.55155803 159.72689401 90.49462919 152.52720254 90.44139862 145.32748413 C90.36322667 134.42998098 90.31236228 123.53265911 90.25634766 112.63491821 C63.85634766 112.63491821 37.45634766 112.63491821 10.25634766 112.63491821 Z " fill="#000000" transform="translate(75.74365234375,119.36508178710938)"/>
<path d="M0 0 C2.90140313 0.73601771 4.65735558 2.18426883 6.31665039 4.6640625 C8.35096552 9.38273969 7.75871051 13.87234512 5.99243164 18.51782227 C4.45449282 21.76402293 2.82010325 24.93469731 1.125 28.1015625 C0.26648438 29.75768555 0.26648438 29.75768555 -0.609375 31.44726562 C-2.01519741 34.15347377 -3.4371455 36.84977745 -4.875 39.5390625 C-4.08327393 39.54317139 -3.29154785 39.54728027 -2.47583008 39.55151367 C1.12103252 39.58446404 4.71620475 39.65511293 8.3125 39.7265625 C9.55837891 39.73236328 10.80425781 39.73816406 12.08789062 39.74414062 C21.11719948 39.96200599 21.11719948 39.96200599 25.48828125 42.46484375 C27.82529054 46.85440535 27.68921783 50.64852309 27.125 55.5390625 C26.08191116 58.91528431 24.58460527 61.95751362 22.9609375 65.08984375 C22.31640121 66.38259468 22.31640121 66.38259468 21.65884399 67.70146179 C20.75206779 69.50871216 19.83551091 71.31108539 18.90966797 73.10864258 C17.50091198 75.84978797 16.12948439 78.60735336 14.76171875 81.36914062 C13.8719462 83.13129789 12.98008871 84.89240426 12.0859375 86.65234375 C11.67942963 87.47011795 11.27292175 88.28789215 10.85409546 89.13044739 C8.25121757 94.12959175 5.76045892 97.29220799 1.125 100.5390625 C-2.02941083 101.46622102 -4.69225961 101.34644885 -7.875 100.5390625 C-11.98016038 97.27168995 -12.71546924 95.8052594 -13.37109375 90.6015625 C-13.22529213 84.01226973 -9.91962992 78.66467178 -6.875 72.9765625 C-6.30265625 71.87248047 -5.7303125 70.76839844 -5.140625 69.63085938 C-3.73480259 66.92465123 -2.3128545 64.22834755 -0.875 61.5390625 C-1.66672607 61.53495361 -2.45845215 61.53084473 -3.27416992 61.52661133 C-6.87103252 61.49366096 -10.46620475 61.42301207 -14.0625 61.3515625 C-15.30837891 61.34576172 -16.55425781 61.33996094 -17.83789062 61.33398438 C-26.86719948 61.11611901 -26.86719948 61.11611901 -31.23828125 58.61328125 C-33.57529054 54.22371965 -33.43921783 50.42960191 -32.875 45.5390625 C-31.83191116 42.16284069 -30.33460527 39.12061138 -28.7109375 35.98828125 C-28.06640121 34.69553032 -28.06640121 34.69553032 -27.40884399 33.37666321 C-26.50206779 31.56941284 -25.58551091 29.76703961 -24.65966797 27.96948242 C-23.25091198 25.22833703 -21.87948439 22.47077164 -20.51171875 19.70898438 C-19.6219462 17.94682711 -18.73008871 16.18572074 -17.8359375 14.42578125 C-17.42942963 13.60800705 -17.02292175 12.79023285 -16.60409546 11.94767761 C-12.86884771 4.77367886 -8.6913455 -0.55789042 0 0 Z " fill="#000000" transform="translate(398.875,-0.5390625)"/>
<path d="M0 0 C2.90140313 0.73601771 4.65735558 2.18426883 6.31665039 4.6640625 C8.35096552 9.38273969 7.75871051 13.87234512 5.99243164 18.51782227 C4.45449282 21.76402293 2.82010325 24.93469731 1.125 28.1015625 C0.26648438 29.75768555 0.26648438 29.75768555 -0.609375 31.44726562 C-2.01519741 34.15347377 -3.4371455 36.84977745 -4.875 39.5390625 C-4.08327393 39.54317139 -3.29154785 39.54728027 -2.47583008 39.55151367 C1.12103252 39.58446404 4.71620475 39.65511293 8.3125 39.7265625 C9.55837891 39.73236328 10.80425781 39.73816406 12.08789062 39.74414062 C21.11719948 39.96200599 21.11719948 39.96200599 25.48828125 42.46484375 C27.82529054 46.85440535 27.68921783 50.64852309 27.125 55.5390625 C26.08191116 58.91528431 24.58460527 61.95751362 22.9609375 65.08984375 C22.31640121 66.38259468 22.31640121 66.38259468 21.65884399 67.70146179 C20.75206779 69.50871216 19.83551091 71.31108539 18.90966797 73.10864258 C17.50091198 75.84978797 16.12948439 78.60735336 14.76171875 81.36914062 C13.8719462 83.13129789 12.98008871 84.89240426 12.0859375 86.65234375 C11.67942963 87.47011795 11.27292175 88.28789215 10.85409546 89.13044739 C8.25121757 94.12959175 5.76045892 97.29220799 1.125 100.5390625 C-2.02941083 101.46622102 -4.69225961 101.34644885 -7.875 100.5390625 C-11.98016038 97.27168995 -12.71546924 95.8052594 -13.37109375 90.6015625 C-13.22529213 84.01226973 -9.91962992 78.66467178 -6.875 72.9765625 C-6.30265625 71.87248047 -5.7303125 70.76839844 -5.140625 69.63085938 C-3.73480259 66.92465123 -2.3128545 64.22834755 -0.875 61.5390625 C-1.66672607 61.53495361 -2.45845215 61.53084473 -3.27416992 61.52661133 C-6.87103252 61.49366096 -10.46620475 61.42301207 -14.0625 61.3515625 C-15.30837891 61.34576172 -16.55425781 61.33996094 -17.83789062 61.33398438 C-26.86719948 61.11611901 -26.86719948 61.11611901 -31.23828125 58.61328125 C-33.57529054 54.22371965 -33.43921783 50.42960191 -32.875 45.5390625 C-31.83191116 42.16284069 -30.33460527 39.12061138 -28.7109375 35.98828125 C-28.06640121 34.69553032 -28.06640121 34.69553032 -27.40884399 33.37666321 C-26.50206779 31.56941284 -25.58551091 29.76703961 -24.65966797 27.96948242 C-23.25091198 25.22833703 -21.87948439 22.47077164 -20.51171875 19.70898438 C-19.6219462 17.94682711 -18.73008871 16.18572074 -17.8359375 14.42578125 C-17.42942963 13.60800705 -17.02292175 12.79023285 -16.60409546 11.94767761 C-12.86884771 4.77367886 -8.6913455 -0.55789042 0 0 Z " fill="#000000" transform="translate(118.875,-0.5390625)"/>
<path d="M0 0 C4.80787179 3.39655913 6.1849554 8.96349672 8.1875 14.25 C17.59869941 38.03303931 31.53660772 57.34611259 51.4765625 73.5 C54.03602877 76.02008987 54.9021666 78.35709481 55.4375 81.875 C54.96543678 85.24688014 54.01835119 87.28333068 51.6875 89.79296875 C48.47739949 92.08908231 44.85148936 92.6197799 41 92 C34.73691047 88.39118772 29.67919084 83.31241504 24.45898438 78.37548828 C23.18611655 77.1754653 21.89892028 75.99067692 20.609375 74.80859375 C5.3082585 60.30555707 -6.05300266 40.76694967 -13 21 C-13.5259375 19.55947266 -13.5259375 19.55947266 -14.0625 18.08984375 C-15.74736621 13.10294063 -16.65836572 9.18239289 -15 4 C-10.31346099 -0.56637135 -6.38681842 -1.98834913 0 0 Z " fill="#000000" transform="translate(127,352)"/>
<path d="M0 0 C3.125 1.875 3.125 1.875 5 5 C5.98876625 10.02622846 5.7769173 13.70513784 3.125 18.125 C-1.29486216 20.7769173 -4.97377154 20.98876625 -10 20 C-13.125 18.125 -13.125 18.125 -15 15 C-15.98876625 9.97377154 -15.7769173 6.29486216 -13.125 1.875 C-8.70513784 -0.7769173 -5.02622846 -0.98876625 0 0 Z " fill="#000000" transform="translate(121,312)"/>
</svg>
