<?xml version="1.0" encoding="UTF-8"?>
<svg version="1.1" xmlns="http://www.w3.org/2000/svg" width="512" height="512">
<path d="M0 0 C2.18781533 1.54066323 4.26033497 3.16916731 6.33984375 4.8515625 C8.00812686 6.21254808 8.00812686 6.21254808 10.5 6.1875 C12.69583089 5.14448033 14.5905397 4.00536902 16.625 2.6875 C28.63586425 -4.93563156 41.83864268 -5.9221271 55.67578125 -3.3046875 C61.48824491 -1.54691577 65.6549694 1.06133561 70.33984375 4.8515625 C72.00812686 6.21254808 72.00812686 6.21254808 74.5 6.1875 C76.69583089 5.14448033 78.5905397 4.00536902 80.625 2.6875 C92.66244013 -4.9524989 105.70071037 -5.8029391 119.5703125 -3.375 C131.10344149 -0.00238787 140.68954259 7.8602423 147 18 C153.77274605 31.73554364 154.24154466 45.0242308 154 60 C159.94 59.67 165.88 59.34 172 59 C172.639375 57.55625 173.27875 56.1125 173.9375 54.625 C179.71550215 43.15014742 189.47709951 34.36516869 201.375 29.5625 C213.48141427 25.94934535 228.66974811 26.22445931 240 32 C251.95238931 38.9880829 261.90552728 49.13723497 265.52734375 62.84375 C267.67916834 77.21295886 266.87405614 90.97735122 258.6875 103.3125 C250.95495752 113.55156578 241.09084438 122.03961365 228 124 C210.55420701 125.42928455 197.64691225 122.81767553 184.03515625 111.34375 C178.63011598 106.32900804 174.33750326 100.01250978 172 93 C170.81970215 92.9906543 169.6394043 92.98130859 168.42333984 92.97167969 C164.02843002 92.93169352 159.63421387 92.86591085 155.23974609 92.79248047 C153.34074846 92.7643208 151.4416347 92.74308142 149.54248047 92.72900391 C146.80636362 92.70750482 144.07163548 92.66081992 141.3359375 92.609375 C140.06996231 92.60753204 140.06996231 92.60753204 138.77841187 92.60565186 C132.08990798 92.44086934 128.34079682 90.45803206 123.66015625 85.54296875 C121.16223714 80.21211549 121.45201521 75.12906762 121.4375 69.3125 C121.26190197 60.85072736 120.98609692 52.50578746 119.75 44.125 C119.60389282 42.98671753 119.60389282 42.98671753 119.45483398 41.82543945 C118.63164997 36.74962285 116.95542617 34.23067417 113 31 C109.31313877 29.15656938 105.03302333 29.6443318 101 30 C98.13754325 31.19269031 96.6727385 32.02813123 94.92163086 34.55786133 C93.52994637 38.24554872 93.47125634 41.91146406 93.25390625 45.82421875 C93.13751301 47.59310839 93.0209718 49.36198829 92.90429688 51.13085938 C92.73175561 53.90400125 92.56310517 56.67732173 92.39819336 59.45092773 C92.23526708 62.13861151 92.05768205 64.82504929 91.87890625 67.51171875 C91.83504288 68.32767014 91.7911795 69.14362152 91.74598694 69.98429871 C91.34099149 75.95707423 90.67643314 82.98951619 86.55006409 87.63090515 C81.3226136 92.06910118 77.66257409 92.34923824 70.984375 92.27734375 C66.95984118 91.90333603 64.91990837 90.77391295 62 88 C56.99785468 81.64592351 56.82699708 75.69977386 56.3515625 67.9375 C56.23236744 66.15360587 56.11255698 64.36975277 55.9921875 62.5859375 C55.80634098 59.78840657 55.62443948 56.99084371 55.453125 54.19238281 C55.28542087 51.48148362 55.10107948 48.77212634 54.9140625 46.0625 C54.86706207 45.22904053 54.82006165 44.39558105 54.77163696 43.53686523 C54.44049193 38.94878929 53.90847024 35.75493474 51 32 C46.76578306 29.08622494 41.93827038 29.47976082 37 30 C34.13754325 31.19269031 32.6727385 32.02813123 30.92163086 34.55786133 C29.52994637 38.24554872 29.47125634 41.91146406 29.25390625 45.82421875 C29.13751301 47.59310839 29.0209718 49.36198829 28.90429688 51.13085938 C28.73175561 53.90400125 28.56310517 56.67732173 28.39819336 59.45092773 C28.23526708 62.13861151 28.05768205 64.82504929 27.87890625 67.51171875 C27.83504288 68.32767014 27.7911795 69.14362152 27.74598694 69.98429871 C27.34099149 75.95707423 26.67643314 82.98951619 22.55006409 87.63090515 C17.3226136 92.06910118 13.66257409 92.34923824 6.984375 92.27734375 C2.95984118 91.90333603 0.91990837 90.77391295 -2 88 C-7.00214532 81.64592351 -7.17300292 75.69977386 -7.6484375 67.9375 C-7.76763256 66.15360587 -7.88744302 64.36975277 -8.0078125 62.5859375 C-8.19365902 59.78840657 -8.37556052 56.99084371 -8.546875 54.19238281 C-8.71457913 51.48148362 -8.89892052 48.77212634 -9.0859375 46.0625 C-9.13293793 45.22904053 -9.17993835 44.39558105 -9.22836304 43.53686523 C-9.55950807 38.94878929 -10.09152976 35.75493474 -13 32 C-17.24563655 29.07836653 -22.05070003 29.50185617 -27 30 C-30.64863557 31.31971925 -31.66542889 32.454773 -33.6875 35.75 C-36.68716394 44.0202599 -36.98673161 53.06210154 -37.203125 61.76953125 C-37.23390137 62.96868164 -37.26467773 64.16783203 -37.29638672 65.40332031 C-37.34814505 67.8124939 -37.38150416 70.22214433 -37.39501953 72.63183594 C-37.60368564 83.40518984 -37.60368564 83.40518984 -42 88 C-47.12266259 92.22707515 -50.97200604 92.60011064 -57.3359375 92.609375 C-58.21528961 92.62591125 -59.09464172 92.64244751 -60.00064087 92.65948486 C-62.79216592 92.70782914 -65.58314676 92.72930535 -68.375 92.75 C-70.27476676 92.77817108 -72.17450832 92.8081001 -74.07421875 92.83984375 C-78.716101 92.91358434 -83.35768355 92.96324173 -88 93 C-88.31235596 93.66169189 -88.62471191 94.32338379 -88.9465332 95.00512695 C-95.03692969 107.59685766 -104.24387081 117.13703013 -117.375 122.4375 C-129.48141427 126.05065465 -144.66974811 125.77554069 -156 120 C-167.95238931 113.0119171 -177.90552728 102.86276503 -181.52734375 89.15625 C-183.67916834 74.78704114 -182.87405614 61.02264878 -174.6875 48.6875 C-166.95495752 38.44843422 -157.09084438 29.96038635 -144 28 C-126.55420701 26.57071545 -113.64691225 29.18232447 -100.03515625 40.65625 C-94.63011598 45.67099196 -90.33750326 51.98749022 -88 59 C-82.06 59.33 -76.12 59.66 -70 60 C-70.061875 57.504375 -70.12375 55.00875 -70.1875 52.4375 C-70.2776545 36.84978748 -66.92812996 20.22838717 -55.77734375 8.515625 C-40.64224313 -4.39079048 -18.36492411 -9.57289745 0 0 Z M-147.375 67.625 C-149.57907893 72.20270239 -149.7971639 76.00552411 -149 81 C-146.67031069 85.83858548 -143.83858548 88.67031069 -139 91 C-134.00552411 91.7971639 -130.20270239 91.57907893 -125.625 89.375 C-122.04092287 86.13226355 -119.40464759 83.53524104 -118.6171875 78.6015625 C-118.36116081 72.91777006 -119.06373068 69.35061345 -123 65 C-127.35061345 61.06373068 -130.91777006 60.36116081 -136.6015625 60.6171875 C-141.53524104 61.40464759 -144.13226355 64.04092287 -147.375 67.625 Z M204.625 67.625 C202.42092107 72.20270239 202.2028361 76.00552411 203 81 C205.32968931 85.83858548 208.16141452 88.67031069 213 91 C217.99447589 91.7971639 221.79729761 91.57907893 226.375 89.375 C229.95907713 86.13226355 232.59535241 83.53524104 233.3828125 78.6015625 C233.63883919 72.91777006 232.93626932 69.35061345 229 65 C224.64938655 61.06373068 221.08222994 60.36116081 215.3984375 60.6171875 C210.46475896 61.40464759 207.86773645 64.04092287 204.625 67.625 Z " fill="#000000" transform="translate(214,244)"/>
<path d="M0 0 C1.25090675 -0.00935994 1.25090675 -0.00935994 2.52708435 -0.01890898 C5.31391906 -0.03482936 8.09987796 -0.0222386 10.88671875 -0.00964355 C12.88770049 -0.0150651 14.88867824 -0.02218794 16.88964844 -0.03088379 C22.3193745 -0.04911614 27.74879647 -0.04204986 33.17852783 -0.02936745 C38.86121438 -0.0192394 44.54387493 -0.02863259 50.2265625 -0.03491211 C59.76957879 -0.04218906 69.31247126 -0.03259948 78.85546875 -0.0135498 C89.88799463 0.00821896 100.92022482 0.00116763 111.95274353 -0.02085543 C121.42551708 -0.03900799 130.89820162 -0.04156843 140.37098694 -0.03110075 C146.02846117 -0.02486506 151.68579642 -0.02403236 157.34326172 -0.0372467 C162.66212809 -0.0488024 167.98061328 -0.04078433 173.29943848 -0.01766968 C175.25133633 -0.01238113 177.20326628 -0.01389885 179.15515137 -0.02272034 C181.82001297 -0.0336536 184.48365366 -0.01993932 187.1484375 0 C188.30671303 -0.01338433 188.30671303 -0.01338433 189.48838806 -0.02703905 C194.6676624 0.04811473 197.57125259 1.26427255 201.57421875 4.50793457 C205.20255538 8.32723629 205.88422333 11.39072463 206.07421875 16.50793457 C205.88422333 21.62514451 205.20255538 24.68863285 201.57421875 28.50793457 C196.83204604 32.35058647 193.08756051 33.08449805 187.1484375 33.01586914 C185.89753075 33.02522908 185.89753075 33.02522908 184.62135315 33.03477812 C181.83451844 33.0506985 179.04855954 33.03810774 176.26171875 33.0255127 C174.26073701 33.03093424 172.25975926 33.03805708 170.25878906 33.04675293 C164.829063 33.06498529 159.39964103 33.057919 153.96990967 33.04523659 C148.28722312 33.03510854 142.60456257 33.04450173 136.921875 33.05078125 C127.37885871 33.0580582 117.83596624 33.04846862 108.29296875 33.02941895 C97.26044287 33.00765018 86.22821268 33.01470151 75.19569397 33.03672457 C65.72292042 33.05487713 56.25023588 33.05743757 46.77745056 33.04696989 C41.11997633 33.0407342 35.46264108 33.0399015 29.80517578 33.05311584 C24.48630941 33.06467154 19.16782422 33.05665347 13.84899902 33.03353882 C11.89710117 33.02825027 9.94517122 33.02976799 7.99328613 33.03858948 C5.32842453 33.04952274 2.66478384 33.03580846 0 33.01586914 C-1.15827553 33.02925347 -1.15827553 33.02925347 -2.33995056 33.04290819 C-7.5192249 32.96775441 -10.42281509 31.75159659 -14.42578125 28.50793457 C-18.05411788 24.68863285 -18.73578583 21.62514451 -18.92578125 16.50793457 C-18.73578583 11.39072463 -18.05411788 8.32723629 -14.42578125 4.50793457 C-9.68360854 0.66528267 -5.93912301 -0.06862891 0 0 Z " fill="#000000" transform="translate(162.42578125,191.4920654296875)"/>
<path d="M0 0 C1.25090675 -0.00935994 1.25090675 -0.00935994 2.52708435 -0.01890898 C5.31391906 -0.03482936 8.09987796 -0.0222386 10.88671875 -0.00964355 C12.88770049 -0.0150651 14.88867824 -0.02218794 16.88964844 -0.03088379 C22.3193745 -0.04911614 27.74879647 -0.04204986 33.17852783 -0.02936745 C38.86121438 -0.0192394 44.54387493 -0.02863259 50.2265625 -0.03491211 C59.76957879 -0.04218906 69.31247126 -0.03259948 78.85546875 -0.0135498 C89.88799463 0.00821896 100.92022482 0.00116763 111.95274353 -0.02085543 C121.42551708 -0.03900799 130.89820162 -0.04156843 140.37098694 -0.03110075 C146.02846117 -0.02486506 151.68579642 -0.02403236 157.34326172 -0.0372467 C162.66212809 -0.0488024 167.98061328 -0.04078433 173.29943848 -0.01766968 C175.25133633 -0.01238113 177.20326628 -0.01389885 179.15515137 -0.02272034 C181.82001297 -0.0336536 184.48365366 -0.01993932 187.1484375 0 C188.30671303 -0.01338433 188.30671303 -0.01338433 189.48838806 -0.02703905 C194.6676624 0.04811473 197.57125259 1.26427255 201.57421875 4.50793457 C205.20255538 8.32723629 205.88422333 11.39072463 206.07421875 16.50793457 C205.88422333 21.62514451 205.20255538 24.68863285 201.57421875 28.50793457 C196.83204604 32.35058647 193.08756051 33.08449805 187.1484375 33.01586914 C185.89753075 33.02522908 185.89753075 33.02522908 184.62135315 33.03477812 C181.83451844 33.0506985 179.04855954 33.03810774 176.26171875 33.0255127 C174.26073701 33.03093424 172.25975926 33.03805708 170.25878906 33.04675293 C164.829063 33.06498529 159.39964103 33.057919 153.96990967 33.04523659 C148.28722312 33.03510854 142.60456257 33.04450173 136.921875 33.05078125 C127.37885871 33.0580582 117.83596624 33.04846862 108.29296875 33.02941895 C97.26044287 33.00765018 86.22821268 33.01470151 75.19569397 33.03672457 C65.72292042 33.05487713 56.25023588 33.05743757 46.77745056 33.04696989 C41.11997633 33.0407342 35.46264108 33.0399015 29.80517578 33.05311584 C24.48630941 33.06467154 19.16782422 33.05665347 13.84899902 33.03353882 C11.89710117 33.02825027 9.94517122 33.02976799 7.99328613 33.03858948 C5.32842453 33.04952274 2.66478384 33.03580846 0 33.01586914 C-1.15827553 33.02925347 -1.15827553 33.02925347 -2.33995056 33.04290819 C-7.5192249 32.96775441 -10.42281509 31.75159659 -14.42578125 28.50793457 C-18.05411788 24.68863285 -18.73578583 21.62514451 -18.92578125 16.50793457 C-18.73578583 11.39072463 -18.05411788 8.32723629 -14.42578125 4.50793457 C-9.68360854 0.66528267 -5.93912301 -0.06862891 0 0 Z " fill="#000000" transform="translate(162.42578125,143.4920654296875)"/>
</svg>
