<svg width="24" height="24" viewBox="0 0 24 24" fill="none" xmlns="http://www.w3.org/2000/svg">
<path d="M2.44999 14.49C2.44999 14.49 4.65999 13.13 8.11999 12.46C9.37998 12.22 10.91 12.05 12.63 12.1C12.63 12.1 12.71 12.1 12.75 12.1C12.95 12.1 13.15 12.12 13.35 12.13C13.35 12.13 13.43 12.13 13.47 12.14C13.7 12.15 13.93 12.17 14.16 12.2C14.16 12.2 14.24 12.21 14.28 12.22C14.5 12.24 14.72 12.27 14.94 12.3C14.94 12.3 15.02 12.32 15.06 12.32C15.27 12.35 15.48 12.38 15.69 12.42C15.69 12.42 15.77 12.44 15.81 12.45C16.05 12.49 16.29 12.54 16.53 12.6C16.53 12.6 16.61 12.63 16.66 12.64C17.46 12.82 18.28 13.06 19.12 13.36C19.33 13.44 19.54 13.52 19.76 13.6C20.4 13.86 21.05 14.15 21.71 14.48C21.72 14.48 21.74 14.49 21.76 14.49C21.8 14.49 21.83 14.47 21.85 14.44C21.88 14.39 21.85 14.33 21.81 14.31C21.08 13.94 20.36 13.62 19.65 13.34C18.83 11.71 17.16 9.44999 13.98 8.76999H13.94C13.36 8.64999 12.72 8.57999 12.03 8.57999C11.34 8.57999 10.7 8.64999 10.12 8.76999H10.08C6.87998 9.44999 5.15999 11.74 4.31999 13.37C3.07999 13.87 2.37999 14.3 2.35999 14.31C2.30999 14.34 2.29999 14.4 2.32999 14.45C2.35999 14.5 2.41999 14.51 2.46999 14.48L2.44999 14.49ZM18.34 12.13C18.59 12.46 18.8 12.79 18.98 13.11C18.74 13.03 18.5 12.95 18.27 12.87L17.88 11.56C18.04 11.74 18.2 11.93 18.35 12.13H18.34ZM17.68 11.36L18.12 12.83C17.88 12.76 17.65 12.69 17.41 12.63L17.01 10.75C17.24 10.94 17.46 11.15 17.67 11.37L17.68 11.36ZM16.88 10.62L17.29 12.58C17.06 12.52 16.84 12.47 16.62 12.42L16.2 10.15C16.43 10.29 16.66 10.45 16.87 10.62H16.88ZM16.07 10.08L16.5 12.4C16.26 12.35 16.02 12.3 15.78 12.25L15.4 9.73999C15.63 9.83999 15.85 9.94999 16.06 10.08H16.07ZM15.27 9.67999L15.65 12.23C15.44 12.19 15.23 12.16 15.02 12.13L14.69 9.46999C14.89 9.52999 15.08 9.60999 15.27 9.68999V9.67999ZM14.57 9.41999L14.91 12.1C14.69 12.07 14.47 12.04 14.26 12.02L14.01 9.26999C14.2 9.30999 14.39 9.36999 14.58 9.41999H14.57ZM13.88 9.23999L14.13 12.01C13.9 11.99 13.67 11.97 13.44 11.95L13.27 9.13999C13.48 9.16999 13.68 9.19999 13.88 9.23999ZM13.16 9.12999L13.33 11.95C13.13 11.94 12.93 11.93 12.74 11.92L12.65 9.08999C12.82 9.09999 12.99 9.11999 13.16 9.13999V9.12999ZM12.07 9.05999C12.22 9.05999 12.38 9.05999 12.53 9.06999L12.62 11.91C12.44 11.91 12.25 11.91 12.07 11.91V9.06999V9.05999ZM11.49 9.06999C11.64 9.06999 11.8 9.05999 11.96 9.05999V11.9C11.77 11.9 11.59 11.9 11.4 11.9L11.49 9.06999ZM11.37 9.07999L11.28 11.91C11.08 11.91 10.88 11.93 10.69 11.94L10.86 9.12999C11.03 9.10999 11.19 9.08999 11.37 9.07999ZM10.13 9.24999C10.33 9.20999 10.53 9.16999 10.74 9.13999L10.57 11.94C10.34 11.96 10.11 11.98 9.87999 12L10.13 9.24999ZM10.01 9.27999L9.75999 12.02C9.53999 12.04 9.31998 12.07 9.10998 12.1L9.44999 9.43999C9.62998 9.37999 9.81999 9.32999 10.02 9.28999L10.01 9.27999ZM9.31998 9.46999L8.98998 12.11C8.77998 12.14 8.56998 12.18 8.36999 12.21L8.74999 9.68999C8.93999 9.60999 9.12999 9.53999 9.32999 9.46999H9.31998ZM8.60998 9.74999L8.23998 12.24C8.17999 12.25 8.11999 12.26 8.05999 12.27C7.87999 12.31 7.69999 12.34 7.51999 12.38L7.93999 10.09C8.14999 9.96999 8.36999 9.84999 8.60998 9.74999ZM7.80999 10.17L7.39999 12.41C7.16999 12.46 6.94999 12.52 6.72999 12.57L7.13999 10.62C7.34999 10.46 7.57999 10.31 7.80999 10.16V10.17ZM6.99999 10.74L6.60999 12.61C6.35999 12.68 6.12999 12.74 5.89999 12.81L6.34999 11.33C6.54998 11.13 6.76999 10.93 7.00999 10.74H6.99999ZM6.15999 11.52L5.75999 12.86C5.47999 12.95 5.21999 13.04 4.97999 13.12C5.27999 12.6 5.66999 12.05 6.15999 11.52Z" fill="#222222"/>
<path d="M21.84 15.1H20.3C20.3 15.1 20.28 15.04 20.27 14.99L20.66 14.55C20.97 14.69 21.28 14.84 21.59 15C21.61 15.01 21.64 15.02 21.66 15.02C21.72 15.02 21.77 14.99 21.8 14.93C21.84 14.85 21.8 14.76 21.73 14.72C16.2 11.89 11.2 12.04 7.96999 12.67C4.46999 13.35 2.24999 14.72 2.22999 14.73C2.15999 14.78 2.12999 14.87 2.17999 14.95C2.22999 15.02 2.31999 15.05 2.39999 15C2.39999 15 2.69999 14.82 3.22999 14.56L3.62999 15.02C3.62999 15.02 3.60999 15.1 3.59999 15.12H2.14999C2.05999 15.12 1.98999 15.19 1.98999 15.28C1.98999 15.37 2.05999 15.44 2.14999 15.44H21.83C21.92 15.44 21.99 15.37 21.99 15.28C21.99 15.19 21.92 15.12 21.83 15.12L21.84 15.1ZM3.80999 14.47L3.68999 14.33C3.75999 14.3 3.82999 14.27 3.89999 14.24C3.86999 14.32 3.83999 14.4 3.80999 14.48V14.47ZM4.09999 15.1C4.15999 14.9 4.29999 14.49 4.52999 13.98C5.44999 13.62 6.63999 13.24 8.03999 12.97C10.79 12.44 14.85 12.26 19.43 14.02C19.64 14.51 19.76 14.91 19.82 15.1H4.09999ZM20.1 14.45C20.08 14.39 20.06 14.33 20.03 14.27C20.08 14.29 20.14 14.32 20.19 14.34L20.1 14.45Z" fill="#222222"/>
</svg>
