<svg width="24" height="24" viewBox="0 0 24 24" fill="none" xmlns="http://www.w3.org/2000/svg">
<path fill-rule="evenodd" clip-rule="evenodd" d="M20.47 11.47C20.76 11.47 21 11.71 21 12V20.47C21 20.76 20.76 21 20.47 21H3.53C3.24 21 3 20.76 3 20.47V12C3 11.71 3.24 11.47 3.53 11.47H5.96L7.39 10.04C7.49 9.93999 7.62 9.87999 7.76 9.87999H9.35C9.64 9.87999 9.88 10.12 9.88 10.41V17.82H14.12V10.41C14.12 10.12 14.36 9.87999 14.65 9.87999H16.24C16.38 9.87999 16.52 9.93999 16.61 10.04L18.04 11.47H20.47ZM8.82 13.59H8.29C8 13.59 7.76 13.35 7.76 13.06C7.76 12.77 8 12.53 8.29 12.53H8.82V10.94H7.98L6.55 12.37C6.45 12.47 6.32 12.53 6.18 12.53H4.06V19.94H19.94V17.03H19.41C19.12 17.03 18.88 16.79 18.88 16.5C18.88 16.21 19.12 15.97 19.41 15.97H19.94V12.53H17.82C17.68 12.53 17.54 12.47 17.45 12.37L16.02 10.94H15.18V18.35C15.18 18.64 14.94 18.88 14.65 18.88H9.36C9.07 18.88 8.83 18.64 8.83 18.35V13.59H8.82ZM17.29 14.65C17 14.65 16.76 14.41 16.76 14.12C16.76 13.83 17 13.59 17.29 13.59H18.08C18.37 13.59 18.61 13.83 18.61 14.12C18.61 14.41 18.37 14.65 18.08 14.65H17.29ZM16.5 18.88C16.21 18.88 15.97 18.64 15.97 18.35C15.97 18.06 16.21 17.82 16.5 17.82H17.29C17.58 17.82 17.82 18.06 17.82 18.35C17.82 18.64 17.58 18.88 17.29 18.88H16.5ZM5.38 15.97C5.09 15.97 4.85 15.73 4.85 15.44C4.85 15.15 5.09 14.91 5.38 14.91H6.17C6.46 14.91 6.7 15.15 6.7 15.44C6.7 15.73 6.46 15.97 6.17 15.97H5.38ZM6.44 19.15C6.15 19.15 5.91 18.91 5.91 18.62C5.91 18.33 6.15 18.09 6.44 18.09H7.23C7.52 18.09 7.76 18.33 7.76 18.62C7.76 18.91 7.52 19.15 7.23 19.15H6.44ZM11.47 7.75999H10.41C10.12 7.75999 9.88 7.51999 9.88 7.22999V5.76999L8.88 3.75999C8.7 3.40999 8.96 2.98999 9.35 2.98999H14.64C15.03 2.98999 15.29 3.39999 15.11 3.75999L14.11 5.76999V7.22999C14.11 7.51999 13.87 7.75999 13.58 7.75999H12.52V8.97999L12.86 8.84999C13.13 8.74999 13.44 8.88999 13.54 9.15999C13.64 9.42999 13.5 9.73999 13.23 9.83999L12.51 10.11V11.1L12.85 10.97C13.12 10.87 13.43 11.01 13.53 11.28C13.63 11.55 13.49 11.86 13.22 11.96L12.5 12.23V13.22L12.84 13.09C13.11 12.99 13.42 13.13 13.52 13.4C13.62 13.67 13.48 13.98 13.21 14.08L12.49 14.35V15.34L12.83 15.21C13.1 15.11 13.41 15.25 13.51 15.52C13.61 15.79 13.47 16.1 13.2 16.2L12.48 16.47V16.76C12.48 17.05 12.24 17.29 11.95 17.29C11.69 17.29 11.48 17.1 11.43 16.86L11.08 16.99C10.81 17.09 10.5 16.95 10.4 16.68C10.3 16.41 10.44 16.1 10.71 16L11.43 15.73V14.74L11.09 14.87C10.82 14.97 10.51 14.83 10.41 14.56C10.31 14.29 10.45 13.98 10.72 13.88L11.44 13.61V12.62L11.1 12.75C10.83 12.85 10.52 12.71 10.42 12.44C10.32 12.17 10.46 11.86 10.73 11.76L11.45 11.49V10.5L11.11 10.63C10.84 10.73 10.53 10.59 10.43 10.32C10.33 10.05 10.47 9.73999 10.74 9.63999L11.46 9.36999V7.74999L11.47 7.75999ZM10.89 5.40999C10.93 5.47999 10.95 5.55999 10.95 5.64999V6.70999H13.07V5.64999C13.07 5.56999 13.09 5.48999 13.13 5.40999L13.81 4.05999H10.23L10.91 5.40999H10.89Z" fill="#222222"/>
</svg>
