<svg width="24" height="24" viewBox="0 0 24 24" fill="none" xmlns="http://www.w3.org/2000/svg">
<path d="M4.87 16.89C4.96 16.88 5.03 16.79 5.01 16.7C5 16.63 4.94 16.57 4.87 16.56C4.78 16.57 4.71 16.66 4.73 16.75C4.74 16.82 4.8 16.88 4.87 16.89Z" fill="#222222"/>
<path d="M14.54 18.95C14.45 18.96 14.38 19.05 14.4 19.14C14.41 19.21 14.47 19.27 14.54 19.28C14.63 19.27 14.7 19.18 14.68 19.09C14.67 19.02 14.61 18.96 14.54 18.95Z" fill="#222222"/>
<path d="M4.26001 16.61V19.18C4.26001 19.49 4.51001 19.74 4.82001 19.74H7.03001C6.79001 19.4 6.88001 18.93 7.22001 18.69C7.34001 18.61 7.49001 18.56 7.64001 18.56H8.08001C8.17001 18.56 8.24001 18.63 8.24001 18.72C8.24001 18.81 8.17001 18.88 8.08001 18.88H7.66001C7.42001 18.86 7.21001 19.04 7.19001 19.27C7.17001 19.51 7.35001 19.72 7.58001 19.74C7.60001 19.74 7.63001 19.74 7.65001 19.74H10.04V16.05H4.82001C4.51001 16.05 4.26001 16.3 4.26001 16.61ZM9.37001 16.24C9.64001 16.26 9.83001 16.49 9.81001 16.76C9.79001 17 9.60001 17.18 9.37001 17.2C9.10001 17.18 8.91001 16.95 8.93001 16.68C8.95001 16.44 9.14001 16.26 9.37001 16.24ZM9.37001 18.63C9.64001 18.65 9.83001 18.88 9.81001 19.15C9.79001 19.39 9.60001 19.57 9.37001 19.59C9.11001 19.55 8.92001 19.31 8.96001 19.04C8.99001 18.83 9.16001 18.66 9.37001 18.63ZM4.87001 19.58C4.60001 19.56 4.41001 19.33 4.43001 19.06C4.45001 18.82 4.64001 18.64 4.87001 18.62C5.14001 18.64 5.33001 18.87 5.31001 19.14C5.29001 19.38 5.10001 19.56 4.87001 19.58ZM5.35001 16.74C5.30001 17 5.04001 17.17 4.78001 17.12C4.59001 17.08 4.44001 16.93 4.40001 16.74C4.45001 16.48 4.71001 16.31 4.97001 16.36C5.16001 16.4 5.31001 16.55 5.35001 16.74Z" fill="#222222"/>
<path d="M19.08 19.26C19.17 19.25 19.24 19.16 19.22 19.07C19.21 19 19.15 18.94 19.08 18.93C18.99 18.94 18.92 19.03 18.94 19.12C18.95 19.19 19.01 19.25 19.08 19.26Z" fill="#222222"/>
<path d="M9.37 16.89C9.46 16.88 9.53 16.79 9.51 16.7C9.5 16.63 9.44 16.57 9.37 16.56C9.28 16.57 9.21 16.66 9.23 16.75C9.24 16.82 9.3 16.88 9.37 16.89Z" fill="#222222"/>
<path d="M13.63 3H10.36V4.76H13.63V3Z" fill="#222222"/>
<path d="M14.54 16.56C14.45 16.57 14.38 16.66 14.4 16.75C14.41 16.82 14.47 16.88 14.54 16.89C14.63 16.88 14.7 16.79 14.68 16.7C14.67 16.63 14.61 16.57 14.54 16.56Z" fill="#222222"/>
<path d="M4.87 18.95C4.78 18.96 4.71 19.05 4.73 19.14C4.74 19.21 4.8 19.27 4.87 19.28C4.96 19.27 5.03 19.18 5.01 19.09C5 19.02 4.94 18.96 4.87 18.95Z" fill="#222222"/>
<path d="M9.37 19.26C9.46 19.25 9.53 19.16 9.51 19.07C9.5 19 9.44 18.94 9.37 18.93C9.28 18.94 9.21 19.03 9.23 19.12C9.24 19.19 9.3 19.25 9.37 19.26Z" fill="#222222"/>
<path d="M19.08 16.89C19.17 16.88 19.24 16.79 19.22 16.7C19.21 16.63 19.15 16.57 19.08 16.56C18.99 16.57 18.92 16.66 18.94 16.75C18.95 16.82 19.01 16.88 19.08 16.89Z" fill="#222222"/>
<path d="M13.63 7.63H10.36V9.86H13.63V7.63Z" fill="#222222"/>
<path d="M20.84 14.78H14.9V3.16C14.9 3.07 14.83 3 14.74 3H13.95V4.76C14.08 4.76 14.27 4.74 14.27 4.92C14.27 5.1 14.07 5.08 13.95 5.08V7.31C14.08 7.31 14.27 7.29 14.27 7.47C14.27 7.65 14.07 7.63 13.95 7.63V9.86C14.08 9.86 14.27 9.84 14.27 10.02C14.27 10.2 14.07 10.18 13.95 10.18V12.41C14.08 12.41 14.27 12.39 14.27 12.57C14.27 12.75 14.07 12.73 13.95 12.73V14.96C14.08 14.96 14.27 14.94 14.27 15.12C14.27 15.3 14.07 15.28 13.95 15.28V15.74H19.17C19.65 15.74 20.05 16.13 20.05 16.62V19.19C20.05 19.67 19.66 20.07 19.17 20.07H4.83C4.35 20.07 3.95 19.68 3.95 19.19V16.62C3.95 16.14 4.34 15.74 4.83 15.74H10.05V15.28C9.92 15.28 9.73 15.3 9.73 15.12C9.73 14.94 9.93 14.96 10.05 14.96V12.73C9.92 12.73 9.73 12.75 9.73 12.57C9.73 12.39 9.93 12.41 10.05 12.41V10.18C9.92 10.18 9.73 10.2 9.73 10.02C9.73 9.84 9.93 9.86 10.05 9.86V7.63C9.92 7.63 9.73 7.65 9.73 7.47C9.73 7.29 9.93 7.31 10.05 7.31V5.08C9.92 5.08 9.73 5.1 9.73 4.92C9.73 4.74 9.93 4.76 10.05 4.76V3H9.26C9.17 3 9.1 3.07 9.1 3.16V14.78H3.16C3.07 14.78 3 14.85 3 14.94V20.84C3 20.93 3.07 21 3.16 21H20.84C20.93 21 21 20.93 21 20.84V14.94C21 14.85 20.93 14.78 20.84 14.78Z" fill="#222222"/>
<path d="M13.63 10.17H10.36V12.4H13.63V10.17Z" fill="#222222"/>
<path d="M13.63 15.27H10.36V15.73H13.63V15.27Z" fill="#222222"/>
<path d="M13.63 16.05H10.36V19.74H13.63V16.05Z" fill="#222222"/>
<path d="M13.63 12.72H10.36V14.95H13.63V12.72Z" fill="#222222"/>
<path d="M13.63 5.07999H10.36V7.30999H13.63V5.07999Z" fill="#222222"/>
<path d="M16.34 19.74C16.58 19.72 16.75 19.51 16.73 19.27C16.71 19.06 16.55 18.89 16.34 18.88H15.9C15.81 18.88 15.74 18.81 15.74 18.72C15.74 18.63 15.81 18.56 15.9 18.56H16.34C16.76 18.56 17.09 18.91 17.08 19.32C17.08 19.47 17.03 19.61 16.95 19.74H19.16C19.47 19.74 19.72 19.49 19.72 19.18V16.61C19.72 16.3 19.47 16.05 19.16 16.05H13.95V19.74H16.34ZM19.08 16.24C19.35 16.26 19.54 16.49 19.52 16.76C19.5 17 19.31 17.18 19.08 17.2C18.81 17.18 18.62 16.95 18.64 16.68C18.66 16.44 18.85 16.26 19.08 16.24ZM19.08 18.63C19.35 18.65 19.54 18.88 19.52 19.15C19.5 19.39 19.31 19.57 19.08 19.59C18.82 19.55 18.63 19.31 18.67 19.04C18.7 18.83 18.87 18.66 19.08 18.63ZM14.54 19.58C14.27 19.56 14.08 19.33 14.1 19.06C14.12 18.82 14.31 18.64 14.54 18.62C14.81 18.64 15 18.87 14.98 19.14C14.96 19.38 14.77 19.56 14.54 19.58ZM14.54 17.2C14.27 17.18 14.08 16.95 14.1 16.68C14.12 16.44 14.31 16.26 14.54 16.24C14.81 16.24 15.03 16.46 15.03 16.73C15.03 17 14.81 17.22 14.54 17.22V17.2Z" fill="#222222"/>
</svg>
