<svg width="24" height="24" viewBox="0 0 24 24" fill="none" xmlns="http://www.w3.org/2000/svg">
<path d="M9 3.33C10 2 12 2 12 2C12 2 14 2 15 3.33V21.11C14.45 21.99 11.59 21.99 11.59 21.99C11.59 21.99 9.73 21.99 9 21.11C9 15.18 9 9.27 9 3.33Z" fill="#222222"/>
<path d="M13 15.6397L10.0909 15.6397L10.0909 14.492C10.0909 14.2714 10.133 14.0834 10.2173 13.9281C10.3007 13.7728 10.4167 13.6544 10.5653 13.573C10.7131 13.4906 10.8835 13.4494 11.0767 13.4494C11.2699 13.4494 11.4403 13.4911 11.5881 13.5744C11.7358 13.6577 11.8509 13.7785 11.9332 13.9366C12.0156 14.0938 12.0568 14.2841 12.0568 14.5076L12.0568 15.2392L11.5639 15.2392L11.5639 14.6071C11.5639 14.4887 11.5436 14.3912 11.5028 14.3145C11.4612 14.2368 11.4039 14.179 11.331 14.1412C11.2571 14.1023 11.1723 14.0829 11.0767 14.0829C10.9801 14.0829 10.8958 14.1023 10.8239 14.1412C10.7509 14.179 10.6946 14.2368 10.6548 14.3145C10.6141 14.3921 10.5937 14.4906 10.5937 14.6099L10.5937 15.0247L13 15.0247L13 15.6397ZM10.0909 12.4348L13 12.4348L13 13.0499L10.0909 13.0499L10.0909 12.4348ZM13 11.9288L10.0909 11.9288L10.0909 9.96857L10.598 9.96857L10.598 11.3137L11.2912 11.3137L11.2912 10.0694L11.7983 10.0694L11.7983 11.3137L12.4929 11.3137L12.4929 9.96289L13 9.96289L13 11.9288ZM13 9.47958L10.0909 9.47958L10.0909 8.33185C10.0909 8.11216 10.1302 7.92466 10.2088 7.76935C10.2865 7.6131 10.3968 7.49426 10.5398 7.41282C10.6818 7.33043 10.849 7.28924 11.0412 7.28924C11.2344 7.28924 11.4006 7.33091 11.5398 7.41424C11.678 7.49757 11.7841 7.61831 11.858 7.77646C11.9318 7.93365 11.9687 8.12399 11.9687 8.34748L11.9687 9.11594L11.4744 9.11594L11.4744 8.44691C11.4744 8.32949 11.4583 8.23195 11.4261 8.1543C11.3939 8.07665 11.3456 8.01888 11.2812 7.981C11.2169 7.94218 11.1368 7.92276 11.0412 7.92276C10.9446 7.92276 10.8632 7.94218 10.7969 7.981C10.7306 8.01888 10.6804 8.07712 10.6463 8.15572C10.6113 8.23337 10.5937 8.33138 10.5937 8.44975L10.5937 8.86452L13 8.86452L13 9.47958ZM11.6761 7.90856L13 7.18555L13 7.86452L11.6761 8.57191L11.6761 7.90856Z" fill="white"/>
</svg>
