<svg width="24" height="24" viewBox="0 0 24 24" fill="none" xmlns="http://www.w3.org/2000/svg">
<path d="M3.01001 15.47C3.10001 15.33 3.23001 15.25 3.39001 15.26C3.58001 15.28 3.61001 15.18 3.61001 15.02C3.61001 12.8 3.61001 10.58 3.61001 8.34999C3.61001 8.29999 3.61001 8.23999 3.61001 8.18999C3.61001 7.76999 3.72001 7.66999 4.13001 7.66999C6.55001 7.66999 8.97001 7.66999 11.39 7.66999C11.5633 7.66999 11.65 7.58333 11.65 7.40999C11.65 6.98999 11.65 6.56999 11.65 6.14999C11.65 5.76999 11.77 5.65999 12.14 5.64999C12.56 5.64999 12.97 5.64999 13.39 5.64999C13.75 5.64999 13.86 5.76999 13.86 6.12999C13.86 7.49999 13.86 8.86999 13.86 10.23C13.86 10.4167 13.95 10.51 14.13 10.51C16.04 10.51 17.95 10.51 19.87 10.51C20.28 10.51 20.38 10.61 20.38 11.03C20.38 12.36 20.38 13.68 20.38 15.01C20.38 15.17 20.41 15.26 20.6 15.26C20.74 15.26 20.88 15.29 20.95 15.44C21.05 15.64 20.92 15.88 20.69 15.92C20.63 15.93 20.56 15.92 20.5 15.92C14.83 15.92 9.16001 15.92 3.48001 15.92C3.28001 15.92 3.11001 15.9 3.01001 15.7V15.45V15.47ZM7.96001 13.96C9.11001 13.96 10.25 13.96 11.4 13.96C11.65 13.96 11.65 13.96 11.65 13.72C11.65 12.47 11.65 11.22 11.65 9.96999C11.65 9.73999 11.65 9.72999 11.42 9.72999C9.12001 9.72999 6.81001 9.72999 4.51001 9.72999C4.34001 9.72999 4.29001 9.77999 4.29001 9.94999C4.29001 11.21 4.29001 12.48 4.29001 13.74C4.29001 13.97 4.29001 13.97 4.53001 13.97C5.68001 13.97 6.82001 13.97 7.97001 13.97L7.96001 13.96ZM11.99 15.26C14.44 15.26 16.89 15.26 19.34 15.26C19.75 15.26 19.7 15.3 19.7 14.89C19.7 14.63 19.7 14.63 19.44 14.63C17.53 14.63 15.62 14.63 13.7 14.63C13.27 14.63 13.17 14.53 13.17 14.1C13.17 11.6 13.17 9.10999 13.17 6.60999C13.17 6.55999 13.17 6.49999 13.17 6.44999C13.17 6.34999 13.13 6.30999 13.03 6.31999C12.87 6.31999 12.71 6.31999 12.56 6.31999C12.3933 6.31999 12.31 6.40333 12.31 6.56999C12.31 9.06999 12.31 11.56 12.31 14.06C12.31 14.53 12.22 14.62 11.75 14.62C9.39001 14.62 7.03001 14.62 4.66001 14.62C4.22001 14.62 4.28001 14.57 4.27001 15C4.27001 15.25 4.27001 15.25 4.52001 15.25C7.00001 15.25 9.49001 15.25 11.97 15.25L11.99 15.26ZM16.79 12.57C15.88 12.57 14.97 12.57 14.06 12.57C13.92 12.57 13.86 12.61 13.86 12.76C13.86 13.1 13.86 13.45 13.86 13.79C13.86 13.91 13.9 13.96 14.02 13.96C15.86 13.96 17.7 13.96 19.54 13.96C19.68 13.96 19.71 13.9 19.71 13.78C19.71 13.45 19.71 13.13 19.71 12.8C19.71 12.57 19.71 12.57 19.47 12.57C18.58 12.57 17.68 12.57 16.79 12.57ZM7.96001 9.04999C9.05001 9.04999 10.14 9.04999 11.22 9.04999C11.71 9.04999 11.64 9.11999 11.65 8.61999C11.65 8.35999 11.65 8.35999 11.39 8.35999C9.17001 8.35999 6.96001 8.35999 4.74001 8.35999C4.44001 8.35999 4.29001 8.51333 4.29001 8.81999C4.29001 9.04999 4.29001 9.04999 4.52001 9.04999C5.67001 9.04999 6.81001 9.04999 7.96001 9.04999ZM16.77 11.89H19.24C19.5533 11.89 19.7067 11.7367 19.7 11.43C19.7 11.2 19.7 11.2 19.47 11.2C17.75 11.2 16.03 11.2 14.32 11.2C13.86 11.2 13.87 11.2 13.86 11.67C13.86 11.85 13.92 11.9 14.09 11.9C14.98 11.9 15.88 11.9 16.77 11.9V11.89Z" fill="#222222"/>
<path d="M11.98 17.14C9.83004 17.14 7.68004 17.14 5.53004 17.14C5.46004 17.14 5.39004 17.14 5.32004 17.14C5.15004 17.12 5.04004 16.99 5.04004 16.82C5.04004 16.64 5.15004 16.52 5.32004 16.5C5.35004 16.5 5.39004 16.5 5.43004 16.5C9.81004 16.5 14.19 16.5 18.56 16.5C18.68 16.5 18.8 16.5 18.87 16.62C18.95 16.73 18.97 16.84 18.91 16.97C18.85 17.09 18.76 17.16 18.62 17.16C18.56 17.16 18.49 17.16 18.43 17.16C16.28 17.16 14.13 17.16 11.98 17.16V17.14Z" fill="#222222"/>
<path d="M12 17.67C13.67 17.67 15.33 17.67 17 17.67C17.27 17.67 17.41 17.8 17.39 18.03C17.38 18.19 17.3 18.29 17.14 18.32C17.05 18.34 16.95 18.34 16.86 18.34C13.62 18.34 10.39 18.34 7.14999 18.34C7.05999 18.34 6.95999 18.34 6.86999 18.32C6.69999 18.29 6.58999 18.14 6.59999 17.98C6.60999 17.81 6.72999 17.69 6.89999 17.67C6.95999 17.67 7.02999 17.67 7.08999 17.67C8.72999 17.67 10.36 17.67 12 17.67Z" fill="#222222"/>
<path d="M7.13003 11.5C7.21003 11.5 7.29003 11.5 7.37003 11.5C7.54003 11.52 7.66003 11.64 7.67003 11.81C7.68003 11.98 7.58003 12.13 7.41003 12.16C7.19003 12.2 6.97003 12.2 6.75003 12.14C6.60003 12.1 6.53003 11.99 6.53003 11.84C6.53003 11.69 6.59003 11.58 6.74003 11.53C6.86003 11.49 6.99003 11.49 7.12003 11.5H7.13003Z" fill="#222222"/>
<path d="M7.14004 10.27C7.22004 10.27 7.29004 10.27 7.37004 10.27C7.55004 10.29 7.68004 10.41 7.68004 10.59C7.68004 10.76 7.59004 10.89 7.41004 10.93C7.20004 10.97 6.98004 10.97 6.77004 10.91C6.62004 10.87 6.54004 10.76 6.54004 10.6C6.54004 10.44 6.62004 10.34 6.78004 10.29C6.90004 10.26 7.02004 10.27 7.15004 10.27H7.14004Z" fill="#222222"/>
<path d="M7.11 13.41C6.99 13.41 6.87 13.42 6.75 13.38C6.6 13.32 6.53 13.21 6.54 13.06C6.54 12.91 6.63 12.81 6.78 12.77C6.99 12.72 7.21 12.72 7.42 12.76C7.59 12.79 7.69 12.93 7.68 13.1C7.68 13.27 7.55 13.39 7.38 13.41C7.29 13.41 7.21 13.41 7.12 13.41H7.11Z" fill="#222222"/>
<path d="M5.41006 12.18C5.28006 12.18 5.15006 12.18 5.03006 12.14C4.88006 12.1 4.81006 11.99 4.81006 11.84C4.81006 11.7 4.87006 11.59 5.01006 11.54C5.24006 11.46 5.48006 11.48 5.72006 11.52C5.88006 11.55 5.94006 11.68 5.95006 11.83C5.95006 11.99 5.88006 12.1 5.73006 12.15C5.63006 12.19 5.52006 12.17 5.42006 12.18H5.41006Z" fill="#222222"/>
<path d="M8.85002 12.18C8.74002 12.18 8.63002 12.18 8.52002 12.15C8.37002 12.11 8.28002 12.02 8.27002 11.86C8.27002 11.69 8.34002 11.58 8.50002 11.53C8.72002 11.47 8.94002 11.48 9.16002 11.51C9.32002 11.54 9.41002 11.66 9.41002 11.83C9.41002 11.99 9.33002 12.11 9.17002 12.15C9.07002 12.18 8.96002 12.17 8.86002 12.17L8.85002 12.18Z" fill="#222222"/>
<path d="M10.58 11.51C10.67 11.51 10.76 11.5 10.84 11.51C11.01 11.53 11.12 11.67 11.12 11.84C11.12 12 11.02 12.13 10.86 12.16C10.65 12.2 10.43 12.2 10.22 12.15C10.07 12.11 9.98998 12 9.97998 11.84C9.97998 11.68 10.06 11.58 10.21 11.53C10.33 11.49 10.45 11.5 10.57 11.51H10.58Z" fill="#222222"/>
<path d="M5.40006 13.41C5.28006 13.41 5.16006 13.42 5.04006 13.38C4.89006 13.33 4.81006 13.22 4.81006 13.07C4.81006 12.91 4.90006 12.81 5.05006 12.77C5.26006 12.72 5.47006 12.72 5.67006 12.76C5.86006 12.79 5.95006 12.92 5.94006 13.11C5.93006 13.29 5.82006 13.4 5.62006 13.42C5.54006 13.42 5.47006 13.42 5.39006 13.42L5.40006 13.41Z" fill="#222222"/>
<path d="M8.85 10.27C8.93 10.27 9.01 10.27 9.09 10.27C9.26 10.29 9.38 10.41 9.39 10.58C9.4 10.74 9.29 10.89 9.13 10.92C8.92 10.96 8.7 10.96 8.49 10.91C8.34 10.87 8.25 10.77 8.25 10.61C8.25 10.45 8.32 10.35 8.48 10.3C8.6 10.26 8.72 10.28 8.84 10.28L8.85 10.27Z" fill="#222222"/>
<path d="M8.85002 13.41C8.74002 13.41 8.63002 13.42 8.52002 13.39C8.34002 13.34 8.27002 13.25 8.27002 13.06C8.27002 12.88 8.37002 12.79 8.53002 12.76C8.74002 12.71 8.95002 12.71 9.15002 12.76C9.31002 12.79 9.41002 12.93 9.40002 13.09C9.40002 13.25 9.28002 13.39 9.11002 13.41C9.02002 13.41 8.94002 13.41 8.85002 13.41Z" fill="#222222"/>
<path d="M5.39005 10.27C5.47005 10.27 5.54005 10.27 5.62005 10.27C5.81005 10.28 5.93005 10.39 5.94005 10.57C5.95005 10.76 5.86005 10.89 5.66005 10.93C5.46005 10.96 5.25005 10.96 5.05005 10.91C4.90005 10.87 4.80005 10.77 4.80005 10.61C4.80005 10.45 4.88005 10.34 5.04005 10.29C5.15005 10.26 5.27005 10.27 5.39005 10.27Z" fill="#222222"/>
<path d="M10.57 10.28C10.66 10.28 10.75 10.28 10.83 10.28C11 10.3 11.11 10.44 11.12 10.6C11.12 10.76 11.03 10.89 10.86 10.93C10.64 10.98 10.42 10.97 10.2 10.91C10.05 10.87 9.97998 10.77 9.97998 10.61C9.97998 10.46 10.05 10.36 10.19 10.3C10.31 10.25 10.44 10.27 10.57 10.27V10.28Z" fill="#222222"/>
<path d="M10.57 13.41C10.45 13.41 10.33 13.42 10.21 13.38C10.06 13.33 9.97997 13.22 9.98997 13.06C9.98997 12.9 10.08 12.8 10.23 12.76C10.43 12.71 10.63 12.71 10.84 12.75C11.03 12.78 11.13 12.92 11.13 13.09C11.13 13.27 10.99 13.4 10.8 13.41C10.72 13.41 10.65 13.41 10.57 13.41Z" fill="#222222"/>
<path d="M16.7899 13.59C16.6699 13.59 16.5499 13.6 16.4299 13.56C16.2799 13.51 16.1999 13.4 16.2099 13.24C16.2099 13.08 16.2999 12.98 16.4599 12.94C16.6699 12.9 16.8799 12.89 17.0899 12.94C17.2699 12.98 17.3699 13.11 17.3499 13.29C17.3399 13.46 17.2299 13.58 17.0499 13.59C16.9699 13.59 16.8899 13.59 16.8099 13.59H16.7899Z" fill="#222222"/>
<path d="M18.5301 13.58C18.4001 13.58 18.2701 13.6 18.1501 13.55C18.0001 13.5 17.9301 13.39 17.9301 13.25C17.9301 13.1 18.0001 12.99 18.1501 12.95C18.3801 12.89 18.6101 12.88 18.8401 12.94C19.0001 12.98 19.0701 13.11 19.0601 13.27C19.0601 13.43 18.9501 13.55 18.8001 13.58C18.7101 13.59 18.6101 13.58 18.5201 13.58H18.5301Z" fill="#222222"/>
<path d="M15.07 13.59C14.94 13.59 14.81 13.6 14.69 13.56C14.55 13.51 14.49 13.4 14.49 13.26C14.49 13.11 14.56 13 14.71 12.96C14.93 12.9 15.16 12.9 15.39 12.95C15.55 12.99 15.64 13.13 15.63 13.29C15.62 13.45 15.51 13.58 15.34 13.59C15.25 13.59 15.17 13.59 15.08 13.59H15.07Z" fill="#222222"/>
</svg>
