<svg width="24" height="24" viewBox="0 0 24 24" fill="none" xmlns="http://www.w3.org/2000/svg">
<path d="M6.34 3.99999H6.46C6.52 4.00999 6.58 3.99999 6.64 4.00999C6.93 4.03999 7.21 4.10999 7.47 4.24999C8.1 4.56999 8.53 5.06999 8.73 5.75999C8.74 5.78999 8.76 5.80999 8.79 5.80999C10.94 5.80999 13.08 5.80999 15.23 5.80999C15.27 5.80999 15.28 5.79999 15.29 5.75999C15.33 5.58999 15.4 5.41999 15.49 5.26999C15.7 4.88999 15.99 4.58999 16.36 4.35999C16.65 4.17999 16.98 4.06999 17.32 4.02999C17.4 4.02999 17.48 4.01999 17.56 4.00999C17.59 4.00999 17.63 4.00999 17.66 4.00999C17.67 4.00999 17.69 4.00999 17.7 4.00999C17.81 4.00999 17.91 4.01999 18.02 4.03999C18.76 4.17999 19.32 4.56999 19.7 5.21999C19.87 5.49999 19.96 5.80999 20 6.12999C20 6.20999 20 6.28999 20.02 6.36999V6.47999C20.02 6.47999 20.02 6.50999 20.02 6.51999C20.02 6.65999 20 6.78999 19.97 6.91999C19.78 7.78999 19.13 8.46999 18.27 8.71999C18.23 8.72999 18.22 8.74999 18.22 8.77999C18.22 10.93 18.22 13.07 18.22 15.22C18.22 15.26 18.23 15.27 18.27 15.28C18.77 15.42 19.18 15.7 19.5 16.1C19.78 16.45 19.95 16.86 20.01 17.31C20.02 17.39 20.02 17.48 20.03 17.56V17.65C20.03 17.65 20.03 17.68 20.03 17.7C20.03 17.81 20.01 17.93 19.99 18.04C19.88 18.61 19.61 19.08 19.16 19.45C18.8 19.75 18.39 19.93 17.92 19.99C17.84 20 17.75 20 17.67 20.01H17.57C17.5 20.01 17.44 20.01 17.37 19.99C16.98 19.95 16.62 19.82 16.29 19.6C15.8 19.27 15.47 18.82 15.3 18.25C15.29 18.22 15.28 18.2 15.24 18.2C14.95 18.2 14.67 18.2 14.38 18.2C12.52 18.2 10.65 18.2 8.79 18.2C8.75 18.2 8.74 18.22 8.73 18.25C8.52 18.96 8.08 19.47 7.41 19.78C7.18 19.89 6.95 19.95 6.7 19.98C6.62 19.98 6.54 19.98 6.46 20H6.36C6.26 20 6.16 19.99 6.07 19.97C5.48 19.88 4.99 19.6 4.6 19.15C4.3 18.8 4.12 18.4 4.05 17.94C4.04 17.84 4.03 17.75 4.02 17.65C4.02 17.6 4.02 17.55 4.02 17.49C4.02 17.48 4.02 17.47 4.02 17.46C4.02 17.32 4.04 17.18 4.08 17.04C4.32 16.15 4.87 15.56 5.75 15.28C5.78 15.27 5.81 15.26 5.81 15.21C5.81 13.06 5.81 10.92 5.81 8.76999C5.81 8.72999 5.8 8.71999 5.76 8.70999C5.4 8.60999 5.08 8.43999 4.8 8.17999C4.38 7.78999 4.12 7.31999 4.03 6.74999C4.01 6.64999 4.01 6.54999 4 6.44999V6.28999C4.01 6.18999 4.02 6.08999 4.04 5.98999C4.22 4.94999 5.06 4.14999 6.1 4.00999C6.18 3.99999 6.26 3.99999 6.34 3.98999V3.99999ZM12 7.00999C11.52 7.00999 11.04 7.00999 10.57 7.00999C9.98 7.00999 9.4 7.00999 8.81 7.00999C8.73 7.00999 8.73 7.00999 8.71 7.07999C8.58 7.50999 8.35 7.87999 8.01 8.18999C7.73 8.43999 7.41 8.60999 7.05 8.71999C7.02 8.71999 7 8.73999 7 8.77999C7 9.42999 7 10.09 7 10.74C7 12.22 7 13.71 7 15.19C7 15.27 6.99 15.26 7.07 15.29C7.64 15.46 8.09 15.8 8.42 16.31C8.55 16.51 8.65 16.73 8.71 16.96C8.71 16.99 8.73 17 8.76 17C8.79 17 8.81 17 8.84 17C10.94 17 13.04 17 15.14 17C15.16 17 15.19 17 15.21 17C15.25 17 15.26 17 15.27 16.96C15.38 16.58 15.56 16.25 15.83 15.96C16.13 15.64 16.49 15.42 16.92 15.3C16.95 15.3 16.98 15.29 16.98 15.24C16.98 14.16 16.98 13.08 16.98 12C16.98 10.95 16.98 9.88999 16.98 8.83999C16.98 8.72999 17 8.74999 16.89 8.71999C16.67 8.64999 16.46 8.55999 16.26 8.42999C15.78 8.10999 15.46 7.67999 15.28 7.12999C15.27 7.09999 15.28 7.04999 15.25 7.02999C15.22 7.00999 15.18 7.02999 15.15 7.02999C14.1 7.02999 13.04 7.02999 11.99 7.02999L12 7.00999Z" fill="#222222"/>
</svg>
