<svg width="24" height="24" viewBox="0 0 24 24" fill="none" xmlns="http://www.w3.org/2000/svg">
<path d="M2 14H9V9L2 12.8479V14Z" stroke="#222222" stroke-width="0.75" stroke-linejoin="round"/>
<path d="M15 9H9V14H15V9Z" stroke="#222222" stroke-width="0.75" stroke-linejoin="round"/>
<path d="M15 14H22V12.8479L15 9V14Z" stroke="#222222" stroke-width="0.75" stroke-linejoin="round"/>
<path d="M15 9H9V11H15V9Z" stroke="#222222" stroke-width="0.75" stroke-linejoin="round"/>
<path d="M5.72283 12L5.51758 11.2727H5.65927L5.79031 11.8072H5.79705L5.93697 11.2727H6.06587L6.20614 11.8075H6.21254L6.34357 11.2727H6.48526L6.28001 12H6.15004L6.00444 11.4897H5.99876L5.85281 12H5.72283ZM6.57093 12V11.4545H6.69949V12H6.57093ZM6.63556 11.3771C6.6152 11.3771 6.59769 11.3704 6.58301 11.3569C6.56833 11.3432 6.56099 11.3267 6.56099 11.3075C6.56099 11.2881 6.56833 11.2717 6.58301 11.2582C6.59769 11.2444 6.6152 11.2376 6.63556 11.2376C6.65616 11.2376 6.67368 11.2444 6.68812 11.2582C6.7028 11.2717 6.71014 11.2881 6.71014 11.3075C6.71014 11.3267 6.7028 11.3432 6.68812 11.3569C6.67368 11.3704 6.65616 11.3771 6.63556 11.3771ZM6.96023 11.6804V12H6.83168V11.4545H6.95455V11.5472H6.96094C6.97348 11.5167 6.99349 11.4924 7.02095 11.4744C7.04865 11.4564 7.08286 11.4474 7.12358 11.4474C7.16122 11.4474 7.19401 11.4555 7.22195 11.4716C7.25012 11.4877 7.2719 11.511 7.28729 11.5415C7.30291 11.5721 7.31061 11.6091 7.31037 11.6527V12H7.18182V11.6726C7.18182 11.6361 7.17235 11.6076 7.15341 11.587C7.13471 11.5664 7.10878 11.5561 7.07564 11.5561C7.05315 11.5561 7.03314 11.5611 7.01562 11.571C6.99834 11.5807 6.98473 11.5948 6.97479 11.6133C6.96508 11.6317 6.96023 11.6541 6.96023 11.6804ZM7.67827 12.2159C7.6321 12.2159 7.59245 12.2096 7.5593 12.1971C7.52616 12.1848 7.49953 12.1682 7.4794 12.1474C7.45928 12.1265 7.44531 12.1035 7.4375 12.0781L7.55327 12.0501C7.55848 12.0607 7.56605 12.0713 7.57599 12.0817C7.58594 12.0923 7.59931 12.1011 7.61612 12.108C7.63317 12.1151 7.65459 12.1186 7.6804 12.1186C7.71686 12.1186 7.74704 12.1097 7.77095 12.092C7.79486 12.0745 7.80682 12.0456 7.80682 12.0053V11.902H7.80043C7.7938 11.9152 7.78409 11.9289 7.77131 11.9428C7.75876 11.9568 7.74207 11.9685 7.72124 11.978C7.70064 11.9875 7.67472 11.9922 7.64347 11.9922C7.60156 11.9922 7.56357 11.9824 7.52947 11.9627C7.49562 11.9428 7.46863 11.9132 7.44851 11.8739C7.42862 11.8344 7.41868 11.7849 7.41868 11.7255C7.41868 11.6656 7.42862 11.6151 7.44851 11.5739C7.46863 11.5324 7.49574 11.5011 7.52983 11.4798C7.56392 11.4582 7.60192 11.4474 7.64382 11.4474C7.67578 11.4474 7.70206 11.4529 7.72266 11.4638C7.74349 11.4744 7.76006 11.4873 7.77237 11.5025C7.78468 11.5174 7.79403 11.5315 7.80043 11.5447H7.80753V11.4545H7.9343V12.0089C7.9343 12.0555 7.92318 12.0941 7.90092 12.1246C7.87867 12.1552 7.84825 12.178 7.80966 12.1932C7.77107 12.2083 7.72727 12.2159 7.67827 12.2159ZM7.67933 11.8913C7.70656 11.8913 7.72976 11.8847 7.74893 11.8714C7.76811 11.8582 7.78267 11.8391 7.79261 11.8143C7.80256 11.7894 7.80753 11.7596 7.80753 11.7248C7.80753 11.6905 7.80256 11.6604 7.79261 11.6346C7.78291 11.6088 7.76847 11.5888 7.74929 11.5746C7.73035 11.5601 7.70703 11.5529 7.67933 11.5529C7.65069 11.5529 7.62678 11.5604 7.6076 11.5753C7.58842 11.5902 7.57398 11.6107 7.56428 11.6367C7.55457 11.6625 7.54972 11.6919 7.54972 11.7248C7.54972 11.7582 7.55457 11.7874 7.56428 11.8125C7.57422 11.8374 7.58878 11.8568 7.60795 11.8707C7.62737 11.8845 7.65116 11.8913 7.67933 11.8913ZM6.17791 13L5.97266 12.2727H6.11435L6.24538 12.8072H6.25213L6.39205 12.2727H6.52095L6.66122 12.8075H6.66761L6.79865 12.2727H6.94034L6.73509 13H6.60511L6.45952 12.4897H6.45384L6.30788 13H6.17791ZM7.12731 13.011C7.09274 13.011 7.06161 13.0049 7.03391 12.9925C7.00645 12.98 6.98467 12.9615 6.96857 12.9371C6.95271 12.9128 6.94478 12.8827 6.94478 12.8469C6.94478 12.8162 6.95046 12.7907 6.96183 12.7706C6.97319 12.7505 6.9887 12.7344 7.00835 12.7223C7.02799 12.7102 7.05013 12.7011 7.07475 12.695C7.09961 12.6886 7.1253 12.6839 7.15181 12.6811C7.18377 12.6778 7.20969 12.6748 7.22958 12.6722C7.24947 12.6694 7.26391 12.6651 7.2729 12.6594C7.28214 12.6535 7.28675 12.6444 7.28675 12.6321V12.63C7.28675 12.6032 7.27882 12.5825 7.26296 12.5678C7.2471 12.5531 7.22425 12.5458 7.19442 12.5458C7.16294 12.5458 7.13796 12.5527 7.1195 12.5664C7.10127 12.5801 7.08896 12.5964 7.08256 12.6151L6.96254 12.598C6.97201 12.5649 6.98763 12.5372 7.00941 12.5149C7.03119 12.4924 7.05782 12.4756 7.08931 12.4645C7.1208 12.4531 7.1556 12.4474 7.19371 12.4474C7.21999 12.4474 7.24615 12.4505 7.27219 12.4567C7.29824 12.4628 7.32203 12.473 7.34357 12.4872C7.36512 12.5012 7.3824 12.5202 7.39542 12.5444C7.40868 12.5685 7.41531 12.5987 7.41531 12.6349V13H7.29173V12.9251H7.28746C7.27965 12.9402 7.26864 12.9544 7.25444 12.9677C7.24047 12.9807 7.22283 12.9912 7.20153 12.9993C7.18046 13.0071 7.15572 13.011 7.12731 13.011ZM7.16069 12.9165C7.18649 12.9165 7.20887 12.9115 7.22781 12.9013C7.24674 12.8909 7.2613 12.8771 7.27148 12.8601C7.2819 12.843 7.28711 12.8245 7.28711 12.8043V12.7401C7.28308 12.7434 7.27622 12.7464 7.26651 12.7493C7.25704 12.7521 7.24639 12.7546 7.23455 12.7567C7.22272 12.7589 7.211 12.7608 7.1994 12.7624C7.1878 12.7641 7.17773 12.7655 7.16921 12.7667C7.15004 12.7693 7.13287 12.7736 7.11772 12.7795C7.10257 12.7854 7.09061 12.7937 7.08185 12.8043C7.07309 12.8147 7.06871 12.8282 7.06871 12.8448C7.06871 12.8685 7.07736 12.8864 7.09464 12.8984C7.11192 12.9105 7.13394 12.9165 7.16069 12.9165ZM7.67312 12.2727V13H7.54457V12.2727H7.67312ZM7.93386 12.2727V13H7.80531V12.2727H7.93386Z" fill="black"/>
<path d="M16.2248 12L16.0195 11.2727H16.1612L16.2923 11.8072H16.299L16.4389 11.2727H16.5678L16.7081 11.8075H16.7145L16.8455 11.2727H16.9872L16.782 12H16.652L16.5064 11.4897H16.5007L16.3548 12H16.2248ZM17.0729 12V11.4545H17.2014V12H17.0729ZM17.1375 11.3771C17.1172 11.3771 17.0996 11.3704 17.085 11.3569C17.0703 11.3432 17.0629 11.3267 17.0629 11.3075C17.0629 11.2881 17.0703 11.2717 17.085 11.2582C17.0996 11.2444 17.1172 11.2376 17.1375 11.2376C17.1581 11.2376 17.1756 11.2444 17.1901 11.2582C17.2048 11.2717 17.2121 11.2881 17.2121 11.3075C17.2121 11.3267 17.2048 11.3432 17.1901 11.3569C17.1756 11.3704 17.1581 11.3771 17.1375 11.3771ZM17.4622 11.6804V12H17.3336V11.4545H17.4565V11.5472H17.4629C17.4754 11.5167 17.4954 11.4924 17.5229 11.4744C17.5506 11.4564 17.5848 11.4474 17.6255 11.4474C17.6632 11.4474 17.696 11.4555 17.7239 11.4716C17.7521 11.4877 17.7739 11.511 17.7892 11.5415C17.8049 11.5721 17.8126 11.6091 17.8123 11.6527V12H17.6838V11.6726C17.6838 11.6361 17.6743 11.6076 17.6554 11.587C17.6367 11.5664 17.6107 11.5561 17.5776 11.5561C17.5551 11.5561 17.5351 11.5611 17.5176 11.571C17.5003 11.5807 17.4867 11.5948 17.4767 11.6133C17.467 11.6317 17.4622 11.6541 17.4622 11.6804ZM18.1802 12.2159C18.1341 12.2159 18.0944 12.2096 18.0613 12.1971C18.0281 12.1848 18.0015 12.1682 17.9814 12.1474C17.9612 12.1265 17.9473 12.1035 17.9395 12.0781L18.0552 12.0501C18.0604 12.0607 18.068 12.0713 18.0779 12.0817C18.0879 12.0923 18.1013 12.1011 18.1181 12.108C18.1351 12.1151 18.1565 12.1186 18.1824 12.1186C18.2188 12.1186 18.249 12.1097 18.2729 12.092C18.2968 12.0745 18.3088 12.0456 18.3088 12.0053V11.902H18.3024C18.2958 11.9152 18.286 11.9289 18.2733 11.9428C18.2607 11.9568 18.244 11.9685 18.2232 11.978C18.2026 11.9875 18.1767 11.9922 18.1454 11.9922C18.1035 11.9922 18.0655 11.9824 18.0314 11.9627C17.9976 11.9428 17.9706 11.9132 17.9505 11.8739C17.9306 11.8344 17.9206 11.7849 17.9206 11.7255C17.9206 11.6656 17.9306 11.6151 17.9505 11.5739C17.9706 11.5324 17.9977 11.5011 18.0318 11.4798C18.0659 11.4582 18.1039 11.4474 18.1458 11.4474C18.1777 11.4474 18.204 11.4529 18.2246 11.4638C18.2454 11.4744 18.262 11.4873 18.2743 11.5025C18.2866 11.5174 18.296 11.5315 18.3024 11.5447H18.3095V11.4545H18.4363V12.0089C18.4363 12.0555 18.4251 12.0941 18.4029 12.1246C18.3806 12.1552 18.3502 12.178 18.3116 12.1932C18.273 12.2083 18.2292 12.2159 18.1802 12.2159ZM18.1813 11.8913C18.2085 11.8913 18.2317 11.8847 18.2509 11.8714C18.2701 11.8582 18.2846 11.8391 18.2946 11.8143C18.3045 11.7894 18.3095 11.7596 18.3095 11.7248C18.3095 11.6905 18.3045 11.6604 18.2946 11.6346C18.2849 11.6088 18.2704 11.5888 18.2512 11.5746C18.2323 11.5601 18.209 11.5529 18.1813 11.5529C18.1526 11.5529 18.1287 11.5604 18.1096 11.5753C18.0904 11.5902 18.0759 11.6107 18.0662 11.6367C18.0565 11.6625 18.0517 11.6919 18.0517 11.7248C18.0517 11.7582 18.0565 11.7874 18.0662 11.8125C18.0762 11.8374 18.0907 11.8568 18.1099 11.8707C18.1293 11.8845 18.1531 11.8913 18.1813 11.8913ZM16.2248 13L16.0195 12.2727H16.1612L16.2923 12.8072H16.299L16.4389 12.2727H16.5678L16.7081 12.8075H16.7145L16.8455 12.2727H16.9872L16.782 13H16.652L16.5064 12.4897H16.5007L16.3548 13H16.2248ZM17.1742 13.011C17.1396 13.011 17.1085 13.0049 17.0808 12.9925C17.0533 12.98 17.0315 12.9615 17.0154 12.9371C16.9996 12.9128 16.9917 12.8827 16.9917 12.8469C16.9917 12.8162 16.9973 12.7907 17.0087 12.7706C17.0201 12.7505 17.0356 12.7344 17.0552 12.7223C17.0749 12.7102 17.097 12.7011 17.1216 12.695C17.1465 12.6886 17.1722 12.6839 17.1987 12.6811C17.2306 12.6778 17.2566 12.6748 17.2765 12.6722C17.2963 12.6694 17.3108 12.6651 17.3198 12.6594C17.329 12.6535 17.3336 12.6444 17.3336 12.6321V12.63C17.3336 12.6032 17.3257 12.5825 17.3098 12.5678C17.294 12.5531 17.2711 12.5458 17.2413 12.5458C17.2098 12.5458 17.1848 12.5527 17.1664 12.5664C17.1481 12.5801 17.1358 12.5964 17.1294 12.6151L17.0094 12.598C17.0189 12.5649 17.0345 12.5372 17.0563 12.5149C17.0781 12.4924 17.1047 12.4756 17.1362 12.4645C17.1677 12.4531 17.2025 12.4474 17.2406 12.4474C17.2669 12.4474 17.293 12.4505 17.3191 12.4567C17.3451 12.4628 17.3689 12.473 17.3904 12.4872C17.412 12.5012 17.4293 12.5202 17.4423 12.5444C17.4556 12.5685 17.4622 12.5987 17.4622 12.6349V13H17.3386V12.9251H17.3343C17.3265 12.9402 17.3155 12.9544 17.3013 12.9677C17.2873 12.9807 17.2697 12.9912 17.2484 12.9993C17.2273 13.0071 17.2026 13.011 17.1742 13.011ZM17.2076 12.9165C17.2334 12.9165 17.2557 12.9115 17.2747 12.9013C17.2936 12.8909 17.3082 12.8771 17.3184 12.8601C17.3288 12.843 17.334 12.8245 17.334 12.8043V12.7401C17.33 12.7434 17.3231 12.7464 17.3134 12.7493C17.3039 12.7521 17.2933 12.7546 17.2814 12.7567C17.2696 12.7589 17.2579 12.7608 17.2463 12.7624C17.2347 12.7641 17.2246 12.7655 17.2161 12.7667C17.1969 12.7693 17.1797 12.7736 17.1646 12.7795C17.1494 12.7854 17.1375 12.7937 17.1287 12.8043C17.12 12.8147 17.1156 12.8282 17.1156 12.8448C17.1156 12.8685 17.1242 12.8864 17.1415 12.8984C17.1588 12.9105 17.1808 12.9165 17.2076 12.9165ZM17.72 12.2727V13H17.5914V12.2727H17.72ZM17.9807 12.2727V13H17.8522V12.2727H17.9807Z" fill="black"/>
</svg>
