<svg width="24" height="24" viewBox="0 0 24 24" fill="none" xmlns="http://www.w3.org/2000/svg">
<path d="M7.54001 9.58C7.54001 7.7 7.54001 5.81 7.54001 3.93C7.54001 3.61 7.56001 3.66 7.81001 3.66C8.37001 3.66 8.93001 3.66 9.49001 3.66C9.53001 3.66 9.57001 3.66 9.61001 3.66C9.71001 3.66 9.72001 3.68 9.73001 3.78C9.73001 3.83 9.73001 3.88 9.73001 3.93C9.73001 5.5 9.73001 7.08 9.73001 8.65C9.73001 8.68 9.73001 8.71 9.73001 8.74C9.73001 8.93 9.73001 8.93 9.92001 8.93C11.58 8.93 13.23 8.93 14.89 8.93C15.47 8.93 16.04 8.93 16.62 8.93C16.66 8.93 16.7 8.93 16.74 8.93C16.84 8.93 16.85 8.95 16.86 9.05C16.86 9.09 16.86 9.13 16.86 9.17C16.86 11.19 16.86 13.22 16.86 15.24C16.86 15.4067 16.7733 15.49 16.6 15.49C15.69 15.49 14.79 15.49 13.88 15.49C13.83 15.49 13.79 15.49 13.74 15.49C13.62 15.49 13.61 15.51 13.6 15.62C13.6 15.68 13.6 15.73 13.6 15.79C13.6 17.76 13.6 19.73 13.6 21.7C13.6 22.01 13.58 21.97 13.33 21.97C12.56 21.97 11.79 21.97 11.01 21.97C10.97 21.97 10.94 21.97 10.9 21.97C10.76 21.97 10.75 21.95 10.74 21.81C10.74 21.62 10.74 21.43 10.74 21.24C10.74 19.4 10.74 17.57 10.74 15.73C10.74 15.47 10.75 15.49 10.49 15.49C9.58001 15.49 8.67001 15.49 7.76001 15.49C7.51001 15.49 7.51001 15.49 7.51001 15.24C7.51001 13.35 7.51001 11.45 7.51001 9.56L7.54001 9.58Z" fill="#222222"/>
<path d="M15.62 3.66C17.35 3.66 19.09 3.66 20.82 3.66C20.9867 3.66 21.07 3.74 21.07 3.9C21.07 5.06 21.07 6.23 21.07 7.39C21.07 7.62 21.07 7.62 20.84 7.62C17.36 7.62 13.88 7.62 10.41 7.62C10.16 7.62 10.16 7.62 10.16 7.37C10.16 6.21 10.16 5.05 10.16 3.9C10.16 3.74 10.2434 3.66 10.41 3.66C12.15 3.66 13.89 3.66 15.63 3.66H15.62Z" fill="#222222"/>
<path d="M12 1.99999C14.94 1.99999 17.89 1.99999 20.83 1.99999C21.11 1.99999 21.1 1.97999 21.1 2.26999C21.1 2.61999 21.1 2.96999 21.1 3.31999C21.1 3.47999 21.09 3.49999 20.92 3.49999C20.5 3.49999 20.09 3.49999 19.67 3.49999C15.64 3.49999 11.61 3.49999 7.58002 3.49999C7.31002 3.49999 7.32002 3.46999 7.32002 3.75999C7.32002 4.12999 7.32002 4.48999 7.32002 4.85999C7.32002 4.90999 7.32002 4.94999 7.32002 4.99999C7.32002 5.05999 7.28002 5.09999 7.22002 5.09999C7.17002 5.09999 7.13002 5.09999 7.08002 5.09999C6.50002 5.09999 5.93002 5.09999 5.35002 5.09999C5.33002 5.09999 5.32002 5.09999 5.30002 5.09999C5.13002 5.09999 5.11002 5.07999 5.11002 4.90999C5.11002 4.33999 5.11002 3.77999 5.11002 3.20999C5.11002 3.17999 5.11002 3.14999 5.11002 3.11999C5.11002 3.05999 5.09002 3.02999 5.03002 3.03999C4.99002 3.03999 4.95002 3.03999 4.91002 3.03999C4.32002 3.03999 3.74002 3.03999 3.15002 3.03999C3.11002 3.03999 3.07002 3.03999 3.03002 3.03999C2.92002 3.03999 2.90002 3.01999 2.90002 2.90999C2.90002 2.83999 2.90002 2.76999 2.90002 2.68999C2.90002 2.51999 2.90002 2.34999 2.90002 2.17999C2.90002 2.00999 2.91002 1.99999 3.07002 1.99999C3.96002 1.99999 4.84002 1.99999 5.73002 1.99999C6.25002 1.99999 6.78002 1.99999 7.30002 1.99999C8.86002 1.99999 10.43 1.99999 11.99 1.99999H12Z" fill="#222222"/>
<path d="M13.5699 8.81001C13.1899 8.81001 12.8099 8.81001 12.4299 8.81001C12.3799 8.81001 12.3399 8.81001 12.2899 8.81001C12.2199 8.81001 12.1899 8.77001 12.1899 8.70001C12.1899 8.58001 12.1899 8.45001 12.1899 8.33001C12.1899 8.19001 12.1899 8.05001 12.1899 7.91001C12.1899 7.81001 12.2099 7.80001 12.3099 7.79001C12.3499 7.79001 12.3799 7.79001 12.4199 7.79001C13.1999 7.79001 13.9699 7.79001 14.7499 7.79001C14.9799 7.79001 14.9799 7.79001 14.9799 8.02001C14.9799 8.22001 14.9799 8.42001 14.9799 8.62001C14.9799 8.79001 14.9599 8.81001 14.7899 8.81001C14.3799 8.81001 13.9799 8.81001 13.5699 8.81001Z" fill="#222222"/>
<path d="M10.8 12.18C10.8 12.18 10.8 12.14 10.8 12.11C10.82 12.04 10.89 12 10.96 12.02C11.04 12.04 11.09 12.14 11.06 12.25C11.04 12.35 10.97 12.4 10.89 12.39C10.82 12.38 10.79 12.33 10.8 12.19V12.18Z" fill="#222222"/>
<path d="M10.38 11.88C10.44 11.96 10.45 12.04 10.46 12.12C10.47 12.18 10.43 12.2 10.38 12.2C10.33 12.2 10.28 12.18 10.3 12.12C10.32 12.04 10.33 11.97 10.38 11.88Z" fill="#222222"/>
<path d="M13.21 12.17C13.21 12.17 13.1 12.18 13.09 12.11C13.09 12.06 13.15 12.02 13.21 12.01C13.27 12.01 13.33 12.05 13.33 12.1C13.33 12.17 13.26 12.16 13.21 12.16V12.17Z" fill="#222222"/>
<path d="M16 5.64C16 5.71 16 5.79 15.92 5.83C15.87 5.86 15.82 5.85 15.78 5.82C15.71 5.76 15.71 5.69 15.73 5.61C15.74 5.54 15.78 5.49 15.86 5.47C15.96 5.45 16.01 5.51 16.01 5.65L16 5.64Z" fill="#222222"/>
<path d="M16.38 5.61999C16.38 5.61999 16.29 5.61999 16.28 5.55999C16.28 5.50999 16.35 5.45999 16.41 5.45999C16.47 5.45999 16.53 5.50999 16.53 5.55999C16.53 5.60999 16.48 5.62999 16.38 5.62999V5.61999Z" fill="#222222"/>
<path d="M13.5 2.73001C13.5 2.68001 13.5 2.63001 13.5 2.58001C13.5 2.49001 13.55 2.46001 13.64 2.48001C13.66 2.48001 13.67 2.48001 13.68 2.49001C13.77 2.53001 13.82 2.65001 13.8 2.77001C13.78 2.89001 13.72 2.97001 13.61 2.99001C13.53 3.00001 13.5 2.99001 13.49 2.91001C13.49 2.85001 13.49 2.80001 13.49 2.74001L13.5 2.73001Z" fill="#222222"/>
<path d="M14.2 2.78C14.2 2.78 14.09 2.79 14.08 2.72C14.08 2.67 14.14 2.63 14.2 2.63C14.26 2.63 14.31 2.66 14.31 2.71C14.31 2.79 14.25 2.77 14.2 2.78Z" fill="#222222"/>
<path d="M9.64165 12V10.7273H10.1289C10.2208 10.7273 10.2973 10.7418 10.3582 10.7708C10.4195 10.7994 10.4653 10.8385 10.4955 10.8882C10.5262 10.9379 10.5415 10.9943 10.5415 11.0573C10.5415 11.109 10.5316 11.1534 10.5117 11.1903C10.4918 11.2267 10.4651 11.2563 10.4315 11.2791C10.3979 11.3019 10.3605 11.3183 10.319 11.3282V11.3406C10.3642 11.3431 10.4075 11.357 10.4489 11.3823C10.4908 11.4071 10.5249 11.4424 10.5514 11.4879C10.578 11.5335 10.5912 11.5886 10.5912 11.6532C10.5912 11.7191 10.5753 11.7783 10.5434 11.831C10.5115 11.8832 10.4634 11.9244 10.3992 11.9546C10.335 11.9849 10.2542 12 10.1568 12H9.64165ZM9.8722 11.8074H10.1202C10.2039 11.8074 10.2641 11.7914 10.301 11.7595C10.3383 11.7272 10.3569 11.6858 10.3569 11.6352C10.3569 11.5975 10.3476 11.5635 10.329 11.5333C10.3103 11.5026 10.2838 11.4786 10.2494 11.4612C10.215 11.4434 10.174 11.4345 10.1264 11.4345H9.8722V11.8074ZM9.8722 11.2686H10.1003C10.14 11.2686 10.1759 11.2613 10.2078 11.2468C10.2397 11.2319 10.2648 11.211 10.283 11.184C10.3016 11.1567 10.3109 11.1244 10.3109 11.0871C10.3109 11.0378 10.2935 10.9972 10.2587 10.9653C10.2244 10.9334 10.1732 10.9174 10.1052 10.9174H9.8722V11.2686ZM10.7818 12V11.0455H11V11.2045H11.0099C11.0273 11.1494 11.0572 11.107 11.0994 11.0771C11.1421 11.0469 11.1908 11.0318 11.2455 11.0318C11.2579 11.0318 11.2718 11.0324 11.2871 11.0336C11.3028 11.0345 11.3159 11.0359 11.3262 11.038V11.2449C11.3167 11.2416 11.3016 11.2387 11.2809 11.2362C11.2606 11.2333 11.2409 11.2319 11.2218 11.2319C11.1808 11.2319 11.1439 11.2408 11.1112 11.2586C11.0789 11.276 11.0534 11.3002 11.0348 11.3313C11.0161 11.3624 11.0068 11.3982 11.0068 11.4388V12H10.7818ZM11.4757 12V11.0455H11.7007V12H11.4757ZM11.5888 10.91C11.5532 10.91 11.5225 10.8982 11.4968 10.8746C11.4711 10.8505 11.4583 10.8217 11.4583 10.7882C11.4583 10.7542 11.4711 10.7254 11.4968 10.7018C11.5225 10.6778 11.5532 10.6657 11.5888 10.6657C11.6248 10.6657 11.6555 10.6778 11.6808 10.7018C11.7065 10.7254 11.7193 10.7542 11.7193 10.7882C11.7193 10.8217 11.7065 10.8505 11.6808 10.8746C11.6555 10.8982 11.6248 10.91 11.5888 10.91ZM12.2862 12.0168C12.2112 12.0168 12.1441 11.9975 12.0849 11.959C12.0256 11.9205 11.9788 11.8645 11.9444 11.7912C11.91 11.7179 11.8928 11.6288 11.8928 11.524C11.8928 11.4179 11.9102 11.3284 11.945 11.2555C11.9803 11.1822 12.0277 11.1269 12.0874 11.0896C12.147 11.0519 12.2135 11.033 12.2868 11.033C12.3428 11.033 12.3888 11.0426 12.4248 11.0616C12.4608 11.0803 12.4894 11.1028 12.5106 11.1294C12.5317 11.1555 12.5481 11.1801 12.5597 11.2033H12.569V10.7273H12.7946V12H12.5733V11.8496H12.5597C12.5481 11.8728 12.5313 11.8975 12.5093 11.9236C12.4874 11.9492 12.4584 11.9712 12.4223 11.9894C12.3863 12.0077 12.3409 12.0168 12.2862 12.0168ZM12.349 11.8322C12.3966 11.8322 12.4372 11.8194 12.4708 11.7937C12.5044 11.7676 12.5298 11.7313 12.5472 11.6849C12.5646 11.6385 12.5733 11.5845 12.5733 11.5227C12.5733 11.461 12.5646 11.4073 12.5472 11.3618C12.5302 11.3162 12.505 11.2808 12.4714 11.2555C12.4383 11.2302 12.3975 11.2176 12.349 11.2176C12.2989 11.2176 12.257 11.2306 12.2235 11.2567C12.1899 11.2828 12.1646 11.3189 12.1476 11.3649C12.1307 11.4109 12.1222 11.4635 12.1222 11.5227C12.1222 11.5824 12.1307 11.6356 12.1476 11.6824C12.165 11.7288 12.1905 11.7655 12.2241 11.7924C12.258 11.819 12.2997 11.8322 12.349 11.8322ZM13.4494 12.3778C13.3686 12.3778 13.2992 12.3669 13.2412 12.3449C13.1832 12.3234 13.1366 12.2944 13.1014 12.2579C13.0662 12.2214 13.0417 12.181 13.0281 12.1367L13.2307 12.0876C13.2398 12.1063 13.253 12.1247 13.2704 12.1429C13.2878 12.1616 13.3112 12.1769 13.3407 12.1889C13.3705 12.2013 13.408 12.2076 13.4531 12.2076C13.5169 12.2076 13.5698 12.192 13.6116 12.161C13.6535 12.1303 13.6744 12.0798 13.6744 12.0093V11.8285H13.6632C13.6516 11.8517 13.6346 11.8755 13.6122 11.8999C13.5903 11.9244 13.5611 11.9449 13.5246 11.9615C13.4886 11.978 13.4432 11.9863 13.3885 11.9863C13.3152 11.9863 13.2487 11.9691 13.189 11.9347C13.1298 11.8999 13.0826 11.8482 13.0473 11.7794C13.0125 11.7102 12.9951 11.6236 12.9951 11.5196C12.9951 11.4148 13.0125 11.3263 13.0473 11.2543C13.0826 11.1818 13.13 11.1269 13.1897 11.0896C13.2493 11.0519 13.3158 11.033 13.3891 11.033C13.4451 11.033 13.4911 11.0426 13.5271 11.0616C13.5636 11.0803 13.5926 11.1028 13.6141 11.1294C13.6356 11.1555 13.652 11.1801 13.6632 11.2033H13.6756V11.0455H13.8975V12.0155C13.8975 12.0972 13.878 12.1647 13.8391 12.2181C13.8001 12.2716 13.7469 12.3116 13.6794 12.3381C13.6118 12.3646 13.5352 12.3778 13.4494 12.3778ZM13.4513 11.8098C13.4989 11.8098 13.5395 11.7982 13.5731 11.775C13.6066 11.7518 13.6321 11.7185 13.6495 11.675C13.6669 11.6315 13.6756 11.5793 13.6756 11.5184C13.6756 11.4583 13.6669 11.4057 13.6495 11.3605C13.6325 11.3154 13.6073 11.2804 13.5737 11.2555C13.5406 11.2302 13.4998 11.2176 13.4513 11.2176C13.4012 11.2176 13.3593 11.2306 13.3258 11.2567C13.2922 11.2828 13.2669 11.3187 13.2499 11.3643C13.2329 11.4094 13.2245 11.4608 13.2245 11.5184C13.2245 11.5768 13.2329 11.628 13.2499 11.6719C13.2673 11.7154 13.2928 11.7493 13.3264 11.7738C13.3603 11.7978 13.402 11.8098 13.4513 11.8098ZM14.5506 12.0186C14.4549 12.0186 14.3723 11.9988 14.3027 11.959C14.2335 11.9188 14.1802 11.862 14.143 11.7887C14.1057 11.715 14.087 11.6282 14.087 11.5283C14.087 11.4301 14.1057 11.344 14.143 11.2698C14.1807 11.1952 14.2333 11.1372 14.3008 11.0958C14.3683 11.0539 14.4477 11.033 14.5388 11.033C14.5976 11.033 14.6532 11.0426 14.7054 11.0616C14.758 11.0803 14.8044 11.1093 14.8446 11.1486C14.8852 11.188 14.9171 11.2381 14.9403 11.299C14.9635 11.3595 14.9751 11.4316 14.9751 11.5153V11.5843H14.1927V11.4326H14.7594C14.759 11.3895 14.7497 11.3512 14.7315 11.3176C14.7132 11.2837 14.6878 11.257 14.655 11.2375C14.6227 11.218 14.585 11.2083 14.5419 11.2083C14.4959 11.2083 14.4555 11.2195 14.4207 11.2418C14.3859 11.2638 14.3588 11.2928 14.3393 11.3288C14.3203 11.3645 14.3105 11.4036 14.3101 11.4463V11.5787C14.3101 11.6342 14.3203 11.6818 14.3406 11.7216C14.3609 11.7609 14.3893 11.7912 14.4257 11.8123C14.4622 11.833 14.5048 11.8434 14.5537 11.8434C14.5865 11.8434 14.6161 11.8388 14.6426 11.8297C14.6691 11.8202 14.6921 11.8063 14.7116 11.7881C14.7311 11.7699 14.7458 11.7473 14.7557 11.7203L14.9658 11.744C14.9525 11.7995 14.9272 11.848 14.8899 11.8894C14.8531 11.9304 14.8058 11.9623 14.7482 11.9851C14.6907 12.0075 14.6248 12.0186 14.5506 12.0186ZM8.57035 14H8.32425L8.77232 12.7273H9.05694L9.50563 14H9.25953L8.9196 12.9883H8.90966L8.57035 14ZM8.57842 13.501H9.24959V13.6862H8.57842V13.501ZM9.67326 14V12.7273H9.89823V13.2033H9.90755C9.91915 13.1801 9.93551 13.1555 9.95664 13.1294C9.97777 13.1028 10.0064 13.0803 10.0424 13.0616C10.0784 13.0426 10.1244 13.033 10.1804 13.033C10.2541 13.033 10.3206 13.0519 10.3798 13.0896C10.4395 13.1269 10.4867 13.1822 10.5215 13.2555C10.5568 13.3284 10.5744 13.4179 10.5744 13.524C10.5744 13.6288 10.5572 13.7179 10.5228 13.7912C10.4884 13.8645 10.4416 13.9205 10.3823 13.959C10.3231 13.9975 10.256 14.0168 10.181 14.0168C10.1263 14.0168 10.0809 14.0077 10.0449 13.9894C10.0088 13.9712 9.97984 13.9492 9.95789 13.9236C9.93634 13.8975 9.91956 13.8728 9.90755 13.8496H9.8945V14H9.67326ZM9.89388 13.5227C9.89388 13.5845 9.90258 13.6385 9.91998 13.6849C9.93779 13.7313 9.96327 13.7676 9.99642 13.7937C10.03 13.8194 10.0706 13.8322 10.1182 13.8322C10.1679 13.8322 10.2096 13.819 10.2431 13.7924C10.2767 13.7655 10.302 13.7288 10.3189 13.6824C10.3363 13.6356 10.345 13.5824 10.345 13.5227C10.345 13.4635 10.3366 13.4109 10.3196 13.3649C10.3026 13.3189 10.2773 13.2828 10.2438 13.2567C10.2102 13.2306 10.1683 13.2176 10.1182 13.2176C10.0702 13.2176 10.0294 13.2302 9.99579 13.2555C9.96224 13.2808 9.93676 13.3162 9.91936 13.3618C9.90237 13.4073 9.89388 13.461 9.89388 13.5227ZM11.374 13.5985V13.0455H11.599V14H11.3808V13.8303H11.3709C11.3494 13.8838 11.3139 13.9275 11.2646 13.9615C11.2158 13.9954 11.1555 14.0124 11.0838 14.0124C11.0212 14.0124 10.9659 13.9985 10.9179 13.9708C10.8702 13.9426 10.8329 13.9018 10.806 13.8484C10.7791 13.7945 10.7656 13.7295 10.7656 13.6532V13.0455H10.9906V13.6184C10.9906 13.6789 11.0072 13.727 11.0403 13.7626C11.0734 13.7982 11.1169 13.8161 11.1708 13.8161C11.2039 13.8161 11.2361 13.808 11.2671 13.7918C11.2982 13.7757 11.3237 13.7516 11.3436 13.7197C11.3639 13.6874 11.374 13.647 11.374 13.5985ZM12.307 13.0455V13.2195H11.7582V13.0455H12.307ZM11.8937 12.8168H12.1187V13.7129C12.1187 13.7431 12.1232 13.7663 12.1323 13.7825C12.1419 13.7982 12.1543 13.809 12.1696 13.8148C12.185 13.8206 12.2019 13.8235 12.2206 13.8235C12.2347 13.8235 12.2475 13.8225 12.2591 13.8204C12.2711 13.8183 12.2802 13.8165 12.2865 13.8148L12.3244 13.9907C12.3123 13.9948 12.2952 13.9994 12.2728 14.0044C12.2508 14.0093 12.2239 14.0122 12.192 14.0131C12.1356 14.0147 12.0849 14.0062 12.0397 13.9876C11.9946 13.9685 11.9587 13.9391 11.9322 13.8993C11.9061 13.8596 11.8933 13.8098 11.8937 13.7502V12.8168ZM12.4951 14V13.0455H12.7101V13.2077H12.7213C12.7412 13.153 12.7741 13.1103 12.8201 13.0796C12.8661 13.0486 12.921 13.033 12.9848 13.033C13.0494 13.033 13.1039 13.0488 13.1482 13.0803C13.193 13.1113 13.2245 13.1538 13.2427 13.2077H13.2527C13.2738 13.1546 13.3094 13.1124 13.3595 13.0809C13.4101 13.049 13.47 13.033 13.5391 13.033C13.627 13.033 13.6986 13.0608 13.7542 13.1163C13.8097 13.1718 13.8374 13.2528 13.8374 13.3593V14H13.6118V13.3941C13.6118 13.3348 13.5961 13.2915 13.5646 13.2642C13.5331 13.2364 13.4946 13.2226 13.449 13.2226C13.3948 13.2226 13.3523 13.2396 13.3216 13.2735C13.2914 13.3071 13.2763 13.3508 13.2763 13.4047V14H13.0557V13.3848C13.0557 13.3355 13.0407 13.2961 13.0109 13.2667C12.9815 13.2373 12.943 13.2226 12.8953 13.2226C12.863 13.2226 12.8336 13.2309 12.8071 13.2474C12.7806 13.2636 12.7594 13.2866 12.7437 13.3164C12.7279 13.3458 12.7201 13.3802 12.7201 13.4196V14H12.4951ZM14.4882 14.0186C14.3925 14.0186 14.3099 13.9988 14.2403 13.959C14.1711 13.9188 14.1179 13.862 14.0806 13.7887C14.0433 13.715 14.0246 13.6282 14.0246 13.5283C14.0246 13.4301 14.0433 13.344 14.0806 13.2698C14.1183 13.1952 14.1709 13.1372 14.2384 13.0958C14.306 13.0539 14.3853 13.033 14.4764 13.033C14.5353 13.033 14.5908 13.0426 14.643 13.0616C14.6956 13.0803 14.742 13.1093 14.7822 13.1486C14.8228 13.188 14.8547 13.2381 14.8779 13.299C14.9011 13.3595 14.9127 13.4316 14.9127 13.5153V13.5843H14.1303V13.4326H14.6971C14.6966 13.3895 14.6873 13.3512 14.6691 13.3176C14.6509 13.2837 14.6254 13.257 14.5927 13.2375C14.5603 13.218 14.5226 13.2083 14.4795 13.2083C14.4336 13.2083 14.3932 13.2195 14.3584 13.2418C14.3236 13.2638 14.2964 13.2928 14.277 13.3288C14.2579 13.3645 14.2482 13.4036 14.2477 13.4463V13.5787C14.2477 13.6342 14.2579 13.6818 14.2782 13.7216C14.2985 13.7609 14.3269 13.7912 14.3633 13.8123C14.3998 13.833 14.4425 13.8434 14.4914 13.8434C14.5241 13.8434 14.5537 13.8388 14.5802 13.8297C14.6067 13.8202 14.6297 13.8063 14.6492 13.7881C14.6687 13.7699 14.6834 13.7473 14.6933 13.7203L14.9034 13.744C14.8901 13.7995 14.8648 13.848 14.8276 13.8894C14.7907 13.9304 14.7435 13.9623 14.6859 13.9851C14.6283 14.0075 14.5624 14.0186 14.4882 14.0186ZM15.328 13.4407V14H15.103V13.0455H15.318V13.2077H15.3292C15.3512 13.1542 15.3862 13.1117 15.4342 13.0803C15.4827 13.0488 15.5426 13.033 15.6138 13.033C15.6797 13.033 15.7371 13.0471 15.786 13.0753C15.8353 13.1035 15.8734 13.1443 15.9003 13.1977C15.9277 13.2512 15.9411 13.316 15.9407 13.3922V14H15.7158V13.427C15.7158 13.3632 15.6992 13.3133 15.666 13.2773C15.6333 13.2412 15.588 13.2232 15.53 13.2232C15.4906 13.2232 15.4556 13.2319 15.4249 13.2493C15.3947 13.2663 15.3709 13.2909 15.3535 13.3232C15.3365 13.3556 15.328 13.3947 15.328 13.4407ZM16.6461 13.0455V13.2195H16.0973V13.0455H16.6461ZM16.2328 12.8168H16.4578V13.7129C16.4578 13.7431 16.4623 13.7663 16.4714 13.7825C16.481 13.7982 16.4934 13.809 16.5087 13.8148C16.5241 13.8206 16.541 13.8235 16.5597 13.8235C16.5738 13.8235 16.5866 13.8225 16.5982 13.8204C16.6102 13.8183 16.6194 13.8165 16.6256 13.8148L16.6635 13.9907C16.6515 13.9948 16.6343 13.9994 16.6119 14.0044C16.5899 14.0093 16.563 14.0122 16.5311 14.0131C16.4748 14.0147 16.424 14.0062 16.3789 13.9876C16.3337 13.9685 16.2979 13.9391 16.2713 13.8993C16.2452 13.8596 16.2324 13.8098 16.2328 13.7502V12.8168Z" fill="white"/>
</svg>
