<svg width="24" height="24" viewBox="0 0 24 24" fill="none" xmlns="http://www.w3.org/2000/svg">
<path d="M12.61 10.18C13.07 10.39 13.48 10.58 13.9 10.76C14.98 11.25 16.06 11.74 17.14 12.23C17.26 12.28 17.38 12.34 17.38 12.5C17.38 12.66 17.26 12.71 17.14 12.77C15.72 13.41 14.3 14.05 12.88 14.69C12.79 14.73 12.7 14.77 12.58 14.83C13.04 15.04 13.45 15.23 13.86 15.41C14.94 15.9 16.02 16.38 17.11 16.86C17.26 16.93 17.33 17.03 17.33 17.19C17.33 18.68 17.33 20.17 17.33 21.65C17.33 21.9 17.23 21.99 16.97 21.99C16.23 21.99 15.48 21.99 14.74 21.99C12.18 21.99 9.62004 21.99 7.06004 21.99C6.66004 21.99 6.60004 21.93 6.60004 21.53C6.60004 20.13 6.60004 18.73 6.60004 17.32C6.60004 17.05 6.70004 16.9 6.94004 16.8C8.35004 16.18 9.75004 15.55 11.15 14.92C11.21 14.89 11.28 14.89 11.31 14.81C10.95 14.6 10.56 14.46 10.19 14.29C9.04004 13.77 7.88004 13.25 6.73004 12.73C6.62004 12.68 6.54004 12.62 6.55004 12.49C6.55004 12.37 6.62004 12.28 6.74004 12.23C7.86004 11.73 8.99004 11.23 10.11 10.73C10.51 10.55 10.91 10.37 11.35 10.17C10.99 9.95001 10.62 9.81001 10.28 9.65001C9.22004 9.17001 8.15004 8.70001 7.09004 8.21001C6.80004 8.08001 6.51004 8.09001 6.21004 8.09001C6.11004 8.09001 6.01004 8.09001 5.91004 8.09001C5.77004 8.09001 5.68004 8.01001 5.67004 7.87001C5.67004 7.72001 5.75004 7.64001 5.89004 7.62001C6.07004 7.60001 6.25004 7.60001 6.43004 7.61001C6.60004 7.61001 6.66004 7.55001 6.65004 7.38001C6.65004 5.83001 6.65004 4.28001 6.65004 2.72001C6.65004 2.56001 6.60004 2.48001 6.43004 2.49001C6.27004 2.49001 6.10004 2.49001 5.94004 2.49001C5.80004 2.48001 5.67004 2.42001 5.68004 2.24001C5.69004 2.08001 5.80004 2.00001 5.95004 1.99001C6.01004 1.99001 6.08004 1.99001 6.14004 1.99001C10.04 1.99001 13.95 1.99001 17.85 1.99001C17.95 1.99001 18.05 1.99001 18.15 2.01001C18.29 2.03001 18.36 2.13001 18.36 2.27001C18.36 2.41001 18.26 2.48001 18.14 2.49001C17.96 2.51001 17.78 2.51001 17.6 2.50001C17.45 2.50001 17.38 2.54001 17.38 2.71001C17.38 4.28001 17.38 5.84001 17.38 7.41001C17.38 7.56001 17.44 7.62001 17.58 7.61001C17.74 7.61001 17.91 7.61001 18.07 7.61001C18.23 7.61001 18.35 7.69001 18.34 7.87001C18.34 8.04001 18.2 8.09001 18.05 8.09001C17.79 8.09001 17.54 8.09001 17.28 8.09001C17.21 8.09001 17.15 8.10001 17.09 8.13001C15.66 8.77001 14.23 9.41001 12.81 10.06C12.76 10.08 12.71 10.11 12.61 10.17V10.18ZM11.98 17.37C11.57 17.37 11.15 17.37 10.74 17.37C9.61004 17.37 8.48004 17.37 7.35004 17.37C7.22004 17.37 7.10004 17.35 7.10004 17.56C7.10004 18.77 7.10004 19.98 7.10004 21.19C7.10004 21.49 7.10004 21.49 7.40004 21.49C10.45 21.49 13.5 21.49 16.55 21.49C16.82 21.49 16.83 21.49 16.83 21.21C16.83 20.02 16.83 18.84 16.83 17.65C16.83 17.37 16.83 17.37 16.54 17.37C15.02 17.37 13.5 17.37 11.97 17.37H11.98ZM16.49 12.52C16.47 12.44 16.41 12.44 16.37 12.42C14.97 11.79 13.57 11.16 12.17 10.52C12.02 10.45 11.9 10.47 11.76 10.53C10.87 10.93 9.99004 11.32 9.10004 11.72C8.54004 11.97 7.98004 12.23 7.43004 12.48C7.45004 12.55 7.50004 12.55 7.53004 12.57C8.96004 13.21 10.39 13.85 11.81 14.49C11.91 14.54 11.99 14.54 12.09 14.49C13.17 14 14.26 13.52 15.34 13.04C15.72 12.87 16.1 12.69 16.48 12.52H16.49ZM8.10004 8.12001C8.17004 8.17001 8.19004 8.19001 8.21004 8.20001C9.42004 8.75001 10.63 9.29001 11.85 9.84001C11.96 9.89001 12.05 9.88001 12.15 9.84001C13.36 9.30001 14.56 8.76 15.77 8.23001C15.8 8.21001 15.86 8.21001 15.84 8.14001H8.10004V8.12001ZM15.89 16.88C15.57 16.69 15.27 16.59 14.98 16.45C14.03 16.02 13.08 15.6 12.13 15.17C12.03 15.12 11.94 15.11 11.83 15.17C10.68 15.69 9.52004 16.2 8.37004 16.72C8.28004 16.76 8.19004 16.81 8.10004 16.85C8.10004 16.86 8.11004 16.87 8.12004 16.88H15.91H15.89ZM7.49004 5.09001C7.49004 4.30001 7.49004 3.52001 7.49004 2.73001C7.49004 2.54001 7.39004 2.47001 7.22004 2.52001C7.08004 2.56001 7.12004 2.68001 7.12004 2.77001C7.12004 4.30001 7.12004 5.83001 7.12004 7.36001C7.12004 7.40001 7.12004 7.45001 7.12004 7.49001C7.12004 7.58001 7.17004 7.61001 7.26004 7.62001C7.42004 7.64001 7.49004 7.58001 7.49004 7.41001C7.49004 6.64001 7.49004 5.87001 7.49004 5.10001V5.09001ZM8.34004 5.07001C8.34004 4.29001 8.34004 3.51001 8.34004 2.73001C8.34004 2.54001 8.24004 2.47001 8.07004 2.52001C7.93004 2.56001 7.97004 2.68001 7.97004 2.77001C7.97004 3.86001 7.97004 4.96001 7.97004 6.05001C7.97004 6.50001 7.97004 6.95001 7.97004 7.40001C7.97004 7.52001 7.97004 7.61001 8.13004 7.62001C8.29004 7.62001 8.34004 7.55001 8.34004 7.40001C8.34004 6.62001 8.34004 5.84001 8.34004 5.06001V5.07001ZM9.20004 5.09001C9.20004 4.30001 9.20004 3.52001 9.20004 2.73001C9.20004 2.54001 9.11004 2.46001 8.93004 2.52001C8.79004 2.56001 8.83004 2.68001 8.83004 2.77001C8.83004 4.30001 8.83004 5.83001 8.83004 7.36001C8.83004 7.40001 8.83004 7.45001 8.83004 7.49001C8.83004 7.58001 8.88004 7.61001 8.97004 7.62001C9.13004 7.64001 9.20004 7.58001 9.20004 7.41001C9.20004 6.64001 9.20004 5.87001 9.20004 5.10001V5.09001ZM14.8 5.07001C14.8 5.85001 14.8 6.63001 14.8 7.41001C14.8 7.60001 14.9 7.67001 15.07 7.62001C15.21 7.58001 15.17 7.46001 15.17 7.37001C15.17 5.87001 15.17 4.37001 15.17 2.87001C15.17 2.82001 15.17 2.77001 15.17 2.72001C15.18 2.55001 15.08 2.52001 14.94 2.53001C14.78 2.54001 14.8 2.66001 14.8 2.77001C14.8 3.54001 14.8 4.31001 14.8 5.09001V5.07001ZM16.02 5.07001C16.02 4.29001 16.02 3.51001 16.02 2.73001C16.02 2.54001 15.92 2.47001 15.75 2.52001C15.61 2.57001 15.65 2.68001 15.65 2.77001C15.65 4.30001 15.65 5.83001 15.65 7.36001C15.65 7.40001 15.65 7.43001 15.65 7.47001C15.65 7.58001 15.71 7.62001 15.81 7.62001C15.98 7.63001 16.02 7.55001 16.02 7.40001C16.02 6.62001 16.02 5.84001 16.02 5.06001V5.07001ZM16.51 5.04001C16.51 5.83001 16.51 6.61001 16.51 7.40001C16.51 7.59001 16.61 7.66001 16.78 7.61001C16.92 7.57001 16.88 7.45001 16.88 7.36001C16.88 5.83001 16.88 4.30001 16.88 2.77001C16.88 2.73001 16.88 2.70001 16.88 2.66001C16.88 2.55001 16.82 2.51001 16.72 2.51001C16.54 2.49001 16.51 2.60001 16.51 2.75001C16.51 3.51001 16.51 4.28001 16.51 5.04001ZM9.69004 5.06001C9.69004 5.84001 9.69004 6.62001 9.69004 7.40001C9.69004 7.48001 9.67004 7.57 9.77004 7.60001C9.84004 7.63001 9.92004 7.63001 9.98004 7.59001C10.07 7.52001 10.04 7.42001 10.04 7.33001C10.04 5.82001 10.04 4.32001 10.04 2.81001C10.04 2.76001 10.04 2.71001 10.04 2.66001C10.04 2.55001 9.97004 2.52001 9.87004 2.51001C9.70004 2.51001 9.70004 2.62001 9.70004 2.74001C9.70004 3.51001 9.70004 4.28001 9.70004 5.05001L9.69004 5.06001ZM10.89 5.06001C10.89 4.29001 10.89 3.52001 10.89 2.75001C10.89 2.54001 10.79 2.46001 10.64 2.52001C10.51 2.57001 10.55 2.69001 10.55 2.78001C10.55 4.30001 10.55 5.82001 10.55 7.35001C10.55 7.39001 10.55 7.44001 10.55 7.48001C10.55 7.58001 10.61 7.61001 10.7 7.62001C10.88 7.63001 10.89 7.51001 10.89 7.38001C10.89 6.61001 10.89 5.84001 10.89 5.07001V5.06001ZM11.75 5.09001C11.75 4.65001 11.75 4.22001 11.75 3.78001C11.75 3.42001 11.75 3.05001 11.75 2.69001C11.75 2.58001 11.71 2.52001 11.59 2.52001C11.48 2.52001 11.41 2.56001 11.41 2.68001C11.41 4.27001 11.41 5.87001 11.41 7.46001C11.41 7.58001 11.47 7.62001 11.58 7.62001C11.7 7.62001 11.75 7.56001 11.75 7.45001C11.75 7.39001 11.75 7.34001 11.75 7.28001C11.75 6.55001 11.75 5.82001 11.75 5.09001ZM12.26 5.05001C12.26 5.11001 12.26 5.16001 12.26 5.22001C12.26 5.94001 12.26 6.66001 12.26 7.38001C12.26 7.58001 12.37 7.67001 12.52 7.60001C12.63 7.55 12.6 7.44001 12.6 7.36001C12.6 6.24001 12.6 5.12001 12.6 3.99001C12.6 3.56001 12.6 3.13001 12.6 2.70001C12.6 2.53001 12.47 2.45001 12.33 2.52001C12.23 2.57001 12.26 2.67001 12.26 2.75001C12.26 3.51001 12.26 4.28001 12.26 5.04001V5.05001ZM13.46 5.08001C13.46 5.08001 13.46 4.99001 13.46 4.95001C13.46 4.21001 13.46 3.46001 13.46 2.72001C13.46 2.63001 13.46 2.54001 13.35 2.52001C13.27 2.51001 13.18 2.49001 13.14 2.58001C13.11 2.64001 13.12 2.72001 13.12 2.79001C13.12 4.30001 13.12 5.82001 13.12 7.33001C13.12 7.37001 13.12 7.42001 13.12 7.46001C13.12 7.57001 13.18 7.61001 13.28 7.61001C13.45 7.61001 13.46 7.51001 13.46 7.38001C13.46 6.61001 13.46 5.84001 13.46 5.06001V5.08001ZM14.31 5.08001C14.31 4.31001 14.31 3.54001 14.31 2.77001C14.31 2.65001 14.33 2.52001 14.14 2.52001C13.97 2.52001 13.97 2.64001 13.97 2.76001C13.97 4.30001 13.97 5.85001 13.97 7.39001C13.97 7.51 13.97 7.62001 14.14 7.63001C14.33 7.63001 14.32 7.51001 14.32 7.38001C14.32 6.62001 14.32 5.85001 14.32 5.09001L14.31 5.08001Z" fill="#222222"/>
<path d="M11.97 20.67C10.85 20.67 9.74004 20.67 8.62004 20.67C8.24004 20.67 8.18004 20.6 8.17004 20.22C8.17004 19.69 8.17004 19.16 8.17004 18.63C8.17004 18.25 8.24004 18.18 8.62004 18.18C9.84004 18.18 11.05 18.18 12.27 18.18C13.23 18.18 14.19 18.18 15.14 18.18C15.23 18.18 15.33 18.18 15.42 18.18C15.67 18.21 15.73 18.27 15.73 18.52C15.73 19.11 15.73 19.71 15.73 20.3C15.73 20.58 15.65 20.66 15.37 20.66C14.23 20.66 13.1 20.66 11.96 20.66L11.97 20.67ZM11.96 20.16C13 20.16 14.03 20.16 15.07 20.16C15.21 20.16 15.26 20.12 15.26 19.98C15.26 19.62 15.26 19.26 15.26 18.91C15.26 18.74 15.19 18.68 15.03 18.69C14.79 18.69 14.56 18.69 14.32 18.69C12.55 18.69 10.78 18.69 9.00004 18.69C8.77338 18.69 8.66004 18.8067 8.66004 19.04C8.66004 19.33 8.67004 19.61 8.66004 19.9C8.65004 20.11 8.73004 20.17 8.93004 20.17C9.94004 20.17 10.94 20.17 11.95 20.17L11.96 20.16Z" fill="#222222"/>
</svg>
