<svg width="24" height="24" viewBox="0 0 24 24" fill="none" xmlns="http://www.w3.org/2000/svg">
<path d="M21 9.47C20.88 9.78 20.71 10.04 20.39 10.18C20.3 10.22 20.31 10.3 20.31 10.37C20.31 10.88 20.31 11.39 20.31 11.9C20.31 12.23 20.19 12.35 19.85 12.36C18.95 12.36 18.05 12.36 17.15 12.36C16.98 12.36 16.93 12.41 16.94 12.58C16.94 13.08 16.94 13.59 16.94 14.09C16.94 14.23 16.98 14.29 17.13 14.28C17.44 14.28 17.75 14.28 18.06 14.28C18.19 14.28 18.27 14.24 18.34 14.12C18.58 13.71 19.04 13.51 19.5 13.61C19.95 13.71 20.27 14.08 20.32 14.55C20.37 15.04 20.08 15.5 19.62 15.66C19.15 15.83 18.62 15.66 18.37 15.22C18.28 15.06 18.17 15.01 18 15.01C17.71 15.02 17.41 15.01 17.12 15.01C16.99 15.01 16.94 15.06 16.95 15.18C16.95 15.18 16.95 15.19 16.95 15.2C17.06 16.12 16.35 17.01 15.21 16.91C14.94 16.89 14.94 16.91 14.93 17.19C14.93 17.37 14.93 17.55 14.93 17.73C14.92 17.95 14.81 18.09 14.65 18.13C14.41 18.19 14.2 18.03 14.19 17.76C14.18 17.53 14.19 17.3 14.19 17.08C14.19 16.96 14.16 16.91 14.03 16.91C13.53 16.91 13.04 16.91 12.54 16.91C12.41 16.91 12.38 16.96 12.38 17.08C12.38 17.34 12.38 17.61 12.38 17.87C12.38 18.21 12.25 18.34 11.9 18.35C11.54 18.35 11.17 18.35 10.81 18.35C10.66 18.35 10.6 18.4 10.62 18.54C10.62 18.57 10.62 18.61 10.62 18.65C10.6 18.82 10.65 18.93 10.82 19.03C11.24 19.27 11.42 19.76 11.29 20.21C11.15 20.69 10.74 21 10.25 21C9.76999 21 9.35999 20.69 9.22999 20.21C9.09999 19.76 9.28999 19.27 9.69999 19.03C9.84999 18.94 9.90999 18.84 9.89999 18.67C9.88999 18.47 9.89999 18.26 9.89999 18.06C9.89999 17.76 10.04 17.62 10.34 17.61C10.71 17.61 11.09 17.61 11.46 17.61C11.62 17.61 11.66 17.56 11.66 17.41C11.66 16.93 11.66 16.93 11.19 16.93C10.34 16.93 9.48999 16.93 8.63999 16.93C7.83999 16.93 7.27999 16.47 7.10999 15.68C7.09999 15.61 7.10999 15.51 6.98999 15.52C6.86999 15.53 6.90999 15.63 6.90999 15.7C6.90999 16.29 6.90999 16.87 6.90999 17.46C6.90999 17.58 6.93999 17.65 7.04999 17.71C7.48999 17.95 7.69999 18.42 7.58999 18.88C7.47999 19.36 7.06999 19.7 6.56999 19.72C6.12999 19.74 5.66999 19.42 5.52999 18.97C5.37999 18.5 5.55999 17.99 5.98999 17.74C6.14999 17.65 6.18999 17.55 6.18999 17.38C6.18999 16.67 6.18999 15.95 6.18999 15.24C6.18999 14.92 6.31999 14.78 6.63999 14.77C6.74999 14.77 6.85999 14.77 6.96999 14.77C7.05999 14.77 7.09999 14.73 7.09999 14.64C7.09999 14.39 7.09999 14.14 7.09999 13.89C7.09999 13.8 7.04999 13.77 6.96999 13.77C6.16999 13.77 5.37999 13.77 4.57999 13.77C4.48999 13.77 4.44999 13.81 4.45999 13.9C4.45999 14.29 4.45999 14.68 4.45999 15.08C4.45999 15.2 4.53999 15.22 4.61999 15.27C5.01999 15.51 5.20999 15.87 5.15999 16.33C5.10999 16.76 4.85999 17.06 4.44999 17.21C3.92999 17.4 3.35999 17.15 3.12999 16.65C2.89999 16.16 3.07999 15.57 3.54999 15.29C3.68999 15.21 3.73999 15.12 3.73999 14.96C3.73999 14.5 3.73999 14.05 3.73999 13.59C3.73999 13.14 3.82999 13.05 4.28999 13.05C5.15999 13.05 6.02999 13.05 6.90999 13.05C7.06999 13.05 7.13999 13.01 7.11999 12.84C7.10999 12.72 7.10999 12.61 7.11999 12.49C7.12999 12.34 7.07999 12.28 6.91999 12.29C6.44999 12.29 5.96999 12.29 5.49999 12.29C5.09999 12.29 4.97999 12.17 4.96999 11.77C4.96999 10.8 4.96999 9.84 4.96999 8.87C4.96999 8.73 4.93999 8.65 4.80999 8.58C4.37999 8.35 4.16999 7.85 4.29999 7.4C4.42999 6.92 4.84999 6.58 5.33999 6.58C5.82999 6.58 6.24999 6.91 6.37999 7.4C6.49999 7.85 6.28999 8.35 5.85999 8.58C5.73999 8.65 5.69999 8.72 5.69999 8.85C5.69999 9.68 5.69999 10.5 5.69999 11.33C5.69999 11.49 5.74999 11.55 5.90999 11.54C6.22999 11.53 6.54999 11.54 6.87999 11.54C7.03999 11.54 7.11999 11.46 7.11999 11.3C7.11999 10.43 7.14999 9.55 7.11999 8.68C7.07999 7.77 7.81999 6.99 8.74999 7.07C8.93999 7.08 9.13999 7.07 9.32999 7.07C9.46999 7.07 9.52999 7.03 9.51999 6.88C9.51999 6.4 9.51999 5.92 9.51999 5.44C9.51999 5.36 9.55999 5.24 9.42999 5.23C9.29999 5.23 9.13999 5.15 9.03999 5.34C8.86999 5.66 8.59999 5.85 8.23999 5.9C7.71999 5.97 7.22999 5.66 7.06999 5.15C6.90999 4.65 7.14999 4.11 7.61999 3.88C8.08999 3.65 8.66999 3.78 8.94999 4.23C9.07999 4.43 9.21999 4.49 9.42999 4.47C9.54999 4.46 9.67999 4.47 9.79999 4.47C10.08 4.47 10.22 4.59 10.25 4.88C10.27 5.07 10.25 5.27 10.25 5.46C10.25 5.93 10.25 6.4 10.25 6.86C10.25 7.01 10.29 7.07 10.45 7.07C10.81 7.06 11.16 7.07 11.52 7.07C11.64 7.07 11.69 7.03 11.68 6.91C11.68 6.64 11.68 6.36 11.68 6.08C11.68 5.78 11.82 5.64 12.12 5.63C12.48 5.63 12.85 5.63 13.21 5.63C13.38 5.63 13.47 5.59 13.44 5.41C13.44 5.36 13.44 5.32 13.44 5.27C13.46 5.13 13.4 5.05 13.28 4.98C12.88 4.75 12.7 4.39 12.75 3.94C12.8 3.51 13.04 3.21 13.45 3.05C13.49 3.04 13.52 3.02 13.56 3C13.72 3 13.89 3 14.05 3C14.07 3 14.08 3.02 14.1 3.02C14.54 3.17 14.81 3.47 14.87 3.93C14.92 4.42 14.71 4.78 14.28 5.01C14.2 5.05 14.18 5.11 14.18 5.19C14.18 5.43 14.18 5.67 14.18 5.91C14.18 6.23 14.04 6.37 13.72 6.37C13.44 6.37 13.17 6.37 12.89 6.37C12.42 6.37 12.43 6.37 12.42 6.84C12.42 7.01 12.47 7.06 12.64 7.06C13.61 7.06 14.57 7.06 15.54 7.06C16.01 7.06 16.41 7.25 16.67 7.63C16.83 7.87 17.01 7.94 17.26 7.91C17.29 7.91 17.32 7.91 17.35 7.91C17.48 7.92 17.54 7.87 17.53 7.73C17.53 7.47 17.52 7.2 17.53 6.94C17.53 6.77 17.49 6.68 17.34 6.6C16.92 6.36 16.74 5.87 16.87 5.4C17 4.94 17.43 4.61 17.9 4.61C18.37 4.61 18.8 4.94 18.93 5.4C19.06 5.87 18.87 6.36 18.44 6.61C18.3 6.69 18.26 6.77 18.26 6.93C18.26 7.36 18.26 7.78 18.26 8.21C18.26 8.52 18.12 8.66 17.81 8.66C17.59 8.66 17.38 8.66 17.16 8.66C17.04 8.66 16.99 8.7 16.99 8.82C16.99 9.7 16.99 10.59 16.99 11.47C16.99 11.6 17.04 11.63 17.16 11.63C17.93 11.63 18.71 11.63 19.48 11.63C19.6 11.63 19.64 11.59 19.64 11.47C19.64 11.17 19.63 10.86 19.64 10.56C19.64 10.35 19.61 10.21 19.4 10.08C18.97 9.83 18.83 9.28 19.01 8.81C19.19 8.35 19.66 8.08 20.15 8.15C20.63 8.22 20.91 8.52 21.06 8.97V9.46L21 9.47ZM7.80999 11.98C7.80999 13.1 7.80999 14.22 7.80999 15.33C7.80999 15.88 8.10999 16.19 8.64999 16.19C10.89 16.19 13.13 16.19 15.37 16.19C15.89 16.19 16.2 15.88 16.2 15.35C16.2 13.11 16.2 10.87 16.2 8.63C16.2 8.39 16.14 8.17 15.95 8C15.77 7.83 15.55 7.79 15.31 7.79C14.57 7.79 13.82 7.79 13.08 7.79C11.62 7.79 10.15 7.79 8.68999 7.79C8.36999 7.79 8.08999 7.87 7.90999 8.17C7.80999 8.33 7.78999 8.51 7.78999 8.69C7.78999 9.78 7.78999 10.88 7.78999 11.97L7.80999 11.98ZM7.72999 4.84C7.72999 5.02 7.86999 5.17 8.04999 5.17C8.21999 5.17 8.37999 5.01 8.37999 4.85C8.37999 4.68 8.23999 4.53 8.05999 4.53C7.86999 4.53 7.73999 4.66 7.73999 4.85L7.72999 4.84ZM19.26 14.97C19.44 14.97 19.59 14.82 19.58 14.65C19.58 14.48 19.41 14.32 19.25 14.33C19.07 14.33 18.93 14.48 18.94 14.66C18.94 14.85 19.07 14.98 19.26 14.97ZM17.85 6.02C18.03 6.02 18.17 5.87 18.17 5.69C18.17 5.52 18.01 5.37 17.84 5.37C17.66 5.37 17.52 5.53 17.53 5.7C17.53 5.88 17.68 6.02 17.86 6.01L17.85 6.02ZM5.30999 7.33C5.12999 7.33 4.97999 7.46 4.97999 7.64C4.97999 7.81 5.11999 7.97 5.29999 7.97C5.46999 7.97 5.62999 7.83 5.62999 7.65C5.62999 7.47 5.48999 7.33 5.30999 7.32V7.33ZM4.05999 15.87C3.87999 15.87 3.73999 16.02 3.73999 16.2C3.73999 16.37 3.89999 16.52 4.06999 16.52C4.24999 16.52 4.38999 16.36 4.38999 16.19C4.38999 16.01 4.23999 15.87 4.05999 15.88V15.87ZM6.84999 18.64C6.84999 18.46 6.69999 18.32 6.51999 18.32C6.33999 18.32 6.19999 18.47 6.19999 18.65C6.19999 18.83 6.34999 18.97 6.52999 18.97C6.70999 18.97 6.84999 18.81 6.84999 18.64ZM20.27 9.21C20.27 9.04 20.13 8.88 19.95 8.88C19.78 8.88 19.62 9.03 19.62 9.2C19.62 9.38 19.76 9.52 19.94 9.52C20.12 9.52 20.26 9.38 20.27 9.2V9.21ZM13.76 4.37C13.95 4.37 14.08 4.25 14.08 4.06C14.08 3.87 13.96 3.74 13.76 3.74C13.57 3.74 13.45 3.86 13.45 4.04C13.45 4.23 13.57 4.36 13.76 4.37ZM9.93999 19.92C9.93999 20.11 10.05 20.24 10.25 20.25C10.44 20.25 10.56 20.14 10.57 19.96C10.58 19.77 10.46 19.63 10.27 19.62C10.08 19.62 9.93999 19.73 9.93999 19.92Z" fill="#222222"/>
<path d="M18.07 20.61C17.58 20.61 17.16 20.29 17.02 19.81C16.89 19.35 17.1 18.86 17.53 18.61C17.59 18.57 17.67 18.56 17.68 18.46C17.71 18.23 17.68 18.18 17.44 18.18C17.26 18.18 17.09 18.2 16.91 18.16C16.72 18.12 16.59 17.97 16.59 17.8C16.59 17.61 16.73 17.45 16.93 17.44C17.31 17.43 17.69 17.43 18.07 17.44C18.25 17.44 18.36 17.56 18.4 17.73C18.45 17.93 18.43 18.13 18.42 18.32C18.42 18.47 18.46 18.55 18.59 18.62C19.01 18.86 19.2 19.35 19.07 19.81C18.94 20.27 18.52 20.6 18.05 20.6L18.07 20.61ZM18.07 19.86C18.25 19.86 18.4 19.71 18.39 19.54C18.39 19.37 18.23 19.22 18.06 19.22C17.88 19.22 17.75 19.37 17.75 19.55C17.75 19.74 17.88 19.86 18.07 19.86Z" fill="#222222"/>
<path d="M15.96 18.16C15.75 18.16 15.59 18 15.59 17.8C15.59 17.6 15.77 17.43 15.97 17.44C16.16 17.44 16.33 17.61 16.34 17.8C16.34 18 16.18 18.17 15.97 18.17L15.96 18.16Z" fill="#222222"/>
<path d="M12.38 8.95999C12.04 8.89999 11.71 8.93999 11.38 8.99999C11.3 9.00999 11.22 9.03999 11.14 9.04999C10.95 9.07999 10.77 8.95999 10.72 8.77999C10.67 8.60999 10.76 8.41999 10.94 8.34999C11.19 8.24999 11.46 8.20999 11.73 8.19999C12.86 8.12999 13.85 8.47999 14.66 9.26999C15.38 9.95999 15.77 10.81 15.81 11.81C15.86 12.91 15.5 13.86 14.74 14.65C14.05 15.37 13.2 15.76 12.2 15.8C11.1 15.85 10.15 15.49 9.35997 14.73C8.63997 14.04 8.25997 13.19 8.20997 12.19C8.16997 11.47 8.33997 10.8 8.67997 10.16C8.77997 9.96999 8.92997 9.88999 9.09997 9.91999C9.33997 9.95999 9.45997 10.21 9.34997 10.45C9.21997 10.74 9.07997 11.03 9.01997 11.35C8.72997 12.72 9.40997 14.13 10.64 14.73C10.74 14.78 10.78 14.81 10.8 14.65C10.88 14.15 11.05 13.68 11.18 13.19C11.24 12.95 11.25 12.95 11.01 12.95C10.84 12.95 10.67 12.95 10.5 12.95C10.1 12.95 9.87997 12.56 10.09 12.22C10.2 12.04 10.33 11.87 10.45 11.7C11.07 10.83 11.7 9.95999 12.32 9.08999C12.35 9.04999 12.39 9.01999 12.38 8.95999ZM11.6 15.03C12 15.1 12.35 15.06 12.7 14.99C14.07 14.68 15.21 13.37 15.05 11.74C14.94 10.61 14.36 9.78999 13.36 9.25999C13.27 9.20999 13.22 9.19999 13.22 9.33999C13.22 9.43999 13.19 9.53999 13.16 9.62999C13.05 10.05 12.93 10.46 12.81 10.88C12.77 11.01 12.81 11.05 12.93 11.05C13.13 11.05 13.34 11.05 13.54 11.05C13.87 11.06 14.08 11.4 13.95 11.7C13.91 11.79 13.85 11.87 13.79 11.95C13.26 12.69 12.73 13.42 12.21 14.16C12.01 14.44 11.8 14.73 11.58 15.03H11.6ZM12.07 10.77C12 10.78 11.99 10.82 11.97 10.84C11.66 11.27 11.36 11.69 11.05 12.12C10.98 12.21 11.05 12.21 11.12 12.21C11.3 12.21 11.47 12.21 11.65 12.21C12.01 12.21 12.16 12.4 12.06 12.76C12.02 12.9 11.99 13.04 11.95 13.19C12 13.18 12.03 13.15 12.05 13.13C12.36 12.7 12.66 12.27 12.97 11.85C13.04 11.76 12.97 11.76 12.9 11.76C12.72 11.76 12.55 11.76 12.37 11.76C12.01 11.76 11.86 11.56 11.96 11.21C12 11.07 12.04 10.93 12.08 10.77H12.07Z" fill="#222222"/>
<path d="M10.02 9.48C10.02 9.68 9.85004 9.84 9.65004 9.84C9.45004 9.84 9.29004 9.67 9.29004 9.48C9.29004 9.28 9.46004 9.11 9.66004 9.11C9.86004 9.11 10.02 9.27 10.02 9.48Z" fill="#222222"/>
</svg>
