<svg width="24" height="24" viewBox="0 0 24 24" fill="none" xmlns="http://www.w3.org/2000/svg">
<path d="M17.7 13.05C17.7 14.48 17.7 15.92 17.7 17.35C17.7 18.38 17.09 19.18 16.09 19.44C15.94 19.48 15.9 19.55 15.91 19.69C15.91 20.01 15.91 20.33 15.91 20.64C15.91 20.88 15.8 20.99 15.55 20.99C13.19 20.99 10.82 20.99 8.46005 20.99C8.20005 20.99 8.10005 20.88 8.10005 20.62C8.10005 20.31 8.10005 20 8.10005 19.68C8.10005 19.53 8.06005 19.47 7.91005 19.42C7.04005 19.18 6.51005 18.61 6.33005 17.73C6.31005 17.62 6.30005 17.49 6.30005 17.38C6.30005 14.48 6.30005 11.58 6.30005 8.68001C6.30005 7.72001 6.92005 6.90001 7.85005 6.66001C8.05005 6.61001 8.10005 6.52001 8.09005 6.33001C8.08005 5.92001 8.09005 5.51001 8.09005 5.09001C8.09005 4.81001 8.09005 4.81001 7.82005 4.81001C7.50005 4.81001 7.25005 4.69001 7.06005 4.44001C6.84005 4.15001 6.82005 3.82001 6.98005 3.50001C7.14005 3.17001 7.41005 2.99001 7.78005 2.99001C10.59 2.99001 13.39 2.99001 16.2 2.99001C16.71 2.99001 17.1 3.38001 17.1 3.89001C17.1 4.41001 16.72 4.80001 16.2 4.81001C16.15 4.81001 16.1 4.81001 16.05 4.81001C15.95 4.81001 15.9 4.84001 15.9 4.95001C15.9 5.46001 15.9 5.96001 15.9 6.47001C15.9 6.60001 15.99 6.61001 16.08 6.64001C16.75 6.81001 17.23 7.21001 17.52 7.84001C17.64 8.10001 17.7 8.37001 17.7 8.66001C17.7 10.12 17.7 11.58 17.7 13.04V13.05ZM6.93005 13.04C6.93005 14.43 6.93005 15.81 6.93005 17.2C6.93005 17.39 6.94005 17.58 6.99005 17.76C7.16005 18.45 7.75005 18.88 8.54005 18.88C10.85 18.88 13.15 18.88 15.46 18.88C15.63 18.88 15.8 18.86 15.96 18.82C16.64 18.66 17.07 18.06 17.08 17.28C17.08 16.72 17.08 16.16 17.08 15.6C17.08 13.35 17.08 11.11 17.08 8.86001C17.08 7.88001 16.47 7.23001 15.52 7.23001C13.18 7.23001 10.83 7.23001 8.49005 7.23001C8.05005 7.23001 7.66005 7.37001 7.35005 7.70001C7.04005 8.02001 6.94005 8.42001 6.94005 8.85001C6.94005 10.25 6.94005 11.65 6.94005 13.04H6.93005ZM12 20.37C13.03 20.37 14.06 20.37 15.09 20.37C15.23 20.37 15.3 20.33 15.29 20.18C15.28 20.03 15.28 19.88 15.29 19.73C15.31 19.53 15.23 19.49 15.05 19.49C13.2 19.49 11.35 19.49 9.50005 19.49C9.31005 19.49 9.11005 19.49 8.92005 19.49C8.78005 19.49 8.73005 19.53 8.73005 19.67C8.73005 19.83 8.74005 19.99 8.73005 20.16C8.72005 20.33 8.78005 20.37 8.95005 20.37C9.97005 20.37 10.99 20.37 12.02 20.37H12ZM12 3.63001C10.66 3.63001 9.32005 3.63001 7.98005 3.63001C7.69005 3.63001 7.53005 3.73001 7.54005 3.92001C7.54005 4.11001 7.69005 4.20001 7.99005 4.20001C10.67 4.20001 13.35 4.20001 16.03 4.20001C16.32 4.20001 16.48 4.10001 16.47 3.91001C16.47 3.72001 16.32 3.63001 16.02 3.63001C14.68 3.63001 13.34 3.63001 12 3.63001ZM12.01 4.83001C11.37 4.83001 10.74 4.83001 10.1 4.83001C9.96005 4.83001 9.91005 4.87001 9.91005 5.01001C9.91005 5.41001 9.91005 5.82001 9.91005 6.23001C9.91005 6.65001 9.85005 6.60001 10.29 6.61001C10.44 6.61001 10.5 6.57001 10.48 6.42001C10.48 6.38001 10.48 6.35001 10.48 6.31001C10.48 5.81001 10.87 5.42001 11.37 5.41001C11.79 5.41001 12.2 5.41001 12.62 5.41001C13.11 5.41001 13.49 5.80001 13.5 6.29001C13.5 6.63001 13.46 6.60001 13.83 6.61001C13.85 6.61001 13.87 6.61001 13.89 6.61001C14.04 6.63001 14.08 6.56001 14.08 6.42001C14.08 5.97001 14.08 5.51001 14.08 5.06001C14.08 4.90001 14.04 4.84001 13.87 4.84001C13.25 4.84001 12.62 4.84001 12 4.84001L12.01 4.83001ZM8.72005 5.71001C8.72005 5.88001 8.72005 6.05001 8.72005 6.21001C8.72005 6.64001 8.65005 6.59001 9.11005 6.60001C9.25005 6.60001 9.30005 6.56001 9.29005 6.42001C9.29005 6.02001 9.29005 5.62001 9.29005 5.22001C9.29005 4.78001 9.38005 4.83001 8.87005 4.83001C8.76005 4.83001 8.71005 4.87001 8.72005 4.98001C8.72005 5.22001 8.72005 5.47001 8.72005 5.71001ZM14.71 5.70001C14.71 5.87001 14.71 6.04001 14.71 6.20001C14.71 6.64001 14.63 6.58001 15.11 6.59001C15.24 6.59001 15.29 6.55001 15.28 6.42001C15.28 6.02001 15.28 5.61001 15.28 5.21001C15.28 4.78001 15.36 4.83001 14.87 4.83001C14.75 4.83001 14.7 4.87001 14.71 4.99001C14.71 5.23001 14.71 5.46001 14.71 5.70001ZM12 6.59001C12.21 6.59001 12.41 6.59001 12.62 6.59001C12.89 6.59001 12.96 6.49001 12.86 6.22001C12.8 6.06001 12.67 6.02001 12.52 6.02001C12.18 6.02001 11.84 6.02001 11.49 6.02001C11.23 6.02001 11.13 6.14001 11.11 6.40001C11.11 6.55001 11.16 6.60001 11.3 6.59001C11.53 6.59001 11.76 6.59001 11.99 6.59001H12Z" fill="#222222"/>
<path d="M13.97 11.89C14.07 11.83 14.15 11.77 14.23 11.73C14.39 11.65 14.55 11.65 14.65 11.8C15.43 12.98 15.93 14.22 15.39 15.66C14.83 17.17 13.27 18.15 11.67 17.99C10.01 17.82 8.68003 16.55 8.43003 14.94C8.30003 14.07 8.58003 13.32 9.00003 12.59C9.55003 11.61 10.25 10.74 11 9.91C11.24 9.64 11.49 9.38 11.74 9.12C11.91 8.94 12.06 8.93 12.25 9.08C12.68 9.42 13.09 9.79 13.45 10.2C13.85 10.65 14.03 11.24 13.97 11.88V11.89ZM14.06 16.52C14.06 16.52 14.11 16.48 14.13 16.46C15.26 15.25 15.13 13.84 14.35 12.53C14.3 12.45 14.25 12.47 14.2 12.51C14.04 12.61 13.89 12.72 13.73 12.82C13.6 12.91 13.47 12.94 13.33 12.86C13.18 12.77 13.17 12.62 13.2 12.46C13.23 12.27 13.27 12.08 13.31 11.89C13.41 11.39 13.27 10.96 12.94 10.59C12.7 10.33 12.44 10.09 12.18 9.85C12.06 9.75 12 9.77 11.91 9.87C11.66 10.16 11.39 10.43 11.15 10.72C10.51 11.48 9.90003 12.26 9.44003 13.14C9.23003 13.53 9.05003 13.95 9.05003 14.4C9.05003 15.13 9.30003 15.78 9.78003 16.34C9.83003 16.4 9.88003 16.47 9.98003 16.52C9.98003 16.48 9.98003 16.45 9.98003 16.43C9.84003 15.88 9.91003 15.35 10.1 14.83C10.28 14.35 10.38 14.31 10.85 14.51C10.94 14.55 10.96 14.51 10.96 14.44C10.96 14.33 10.96 14.22 10.98 14.1C11.05 13.58 11.34 13.16 11.68 12.78C11.94 12.49 12.1 12.48 12.35 12.78C12.82 13.33 13.27 13.9 13.64 14.52C14 15.13 14.3 15.75 14.08 16.5L14.06 16.52ZM10.52 15.84C10.52 16.83 11.39 17.53 12.31 17.33C13.18 17.14 13.72 16.17 13.33 15.38C13 14.7 12.56 14.1 12.09 13.52C12.02 13.43 11.95 13.43 11.88 13.52C11.72 13.74 11.61 13.98 11.58 14.25C11.55 14.55 11.61 14.84 11.68 15.14C11.72 15.3 11.71 15.46 11.56 15.56C11.41 15.65 11.28 15.61 11.14 15.52C11.02 15.43 10.89 15.36 10.77 15.27C10.66 15.19 10.6 15.21 10.58 15.34C10.55 15.52 10.53 15.71 10.51 15.84H10.52Z" fill="#222222"/>
</svg>
