<svg width="24" height="24" viewBox="0 0 24 24" fill="none" xmlns="http://www.w3.org/2000/svg">
<path d="M3.0007 6.3625V2.94671H7.54444V6.3625H3.0007ZM9.15512 6.3625V2.94671H8.04954V6.3625H9.15512ZM15.7264 4.4286V5.54847H16.3174C16.6438 5.54847 16.9107 5.29661 16.9107 4.98854C16.9107 4.68045 16.6438 4.4286 16.3174 4.4286H15.7264ZM15.2499 6.08815V3.88892H13.32V6.08815H15.2499ZM16.5985 11.3074V16.3063H20.9969V11.3074H16.5985ZM7.26566 18.447C7.26566 18.1187 6.98211 17.8489 6.63187 17.8489H5.07122C4.92861 18.326 4.62226 18.7501 4.20396 19.0452C4.20396 19.0452 6.63187 19.0452 6.63187 19.0452C6.97473 19.0521 7.27215 18.7715 7.26566 18.447ZM6.3936 17.3992V14.6535H5.15463C5.16278 14.8094 5.16289 17.2425 5.15463 17.3992H6.3936ZM6.63187 13.0052H4.20396C4.61685 13.3019 4.93539 13.7297 5.07122 14.2037C5.07122 14.2037 6.63187 14.2037 6.63187 14.2037C6.97333 14.2112 7.27203 13.9298 7.26566 13.6078C7.26566 13.275 6.98211 13.0052 6.63187 13.0052ZM4.68287 14.8086C4.68866 13.9223 3.94958 13.1212 3.01263 13.0209V19.0295C3.943 18.9406 4.69361 18.1237 4.68287 17.2462C4.68287 17.244 4.68287 14.8086 4.68287 14.8086ZM2 2V22H13.8084V21.503H2.76244C2.63138 21.503 2.52417 21.4041 2.52417 21.2782V10.6463C2.52417 10.5204 2.63138 10.4214 2.76244 10.4214H9.64355V9.92444H2.76244C2.63138 9.92444 2.52417 9.82326 2.52417 9.69957V2.72184C2.52417 2.59591 2.63138 2.49697 2.76244 2.49697H12.0786C12.2097 2.49697 12.3169 2.59591 12.3169 2.72184V8.02429H19.0288V7.52733H13.0817C12.9483 7.52733 12.8435 7.42613 12.8435 7.30245V2.72184C12.8435 2.59591 12.9483 2.49697 13.0817 2.49697H21.2352C21.3662 2.49697 21.4734 2.59591 21.4734 2.72184V16.5311C21.4734 16.6548 21.3662 16.756 21.2352 16.756H14.4065C14.2731 16.756 14.1682 16.6548 14.1682 16.5311V10.3967H13.6416V18.0355H14.1682V17.4779C14.1682 17.3519 14.2731 17.253 14.4065 17.253H22V2H2ZM9.47436 13.9789C9.35049 13.9789 9.2504 14.0711 9.2504 14.188V18.013C9.2504 18.13 9.35049 18.2222 9.47436 18.2222H11.1685C11.2924 18.2222 11.3924 18.13 11.3924 18.013V14.188C11.3924 14.0711 11.2924 13.9789 11.1685 13.9789H9.47436Z" fill="#222222"/>
</svg>
