<svg width="24" height="24" viewBox="0 0 24 24" fill="none" xmlns="http://www.w3.org/2000/svg">
<path d="M2.80003 10.17C2.91003 9.75 3.23003 9.52 3.57003 9.3C5.44003 8.11 7.31003 6.91 9.18003 5.72C10.03 5.18 10.88 4.63 11.73 4.08C11.89 3.98 12.03 3.97 12.19 4.08C13.42 4.87 14.65 5.65 15.88 6.44C17.46 7.45 19.03 8.46 20.62 9.45C21.14 9.78 21.39 10.54 21.01 11.05C20.76 11.4 20.36 11.55 19.92 11.45C19.71 11.4 19.71 11.41 19.71 11.62C19.71 13.92 19.71 16.21 19.71 18.51H19.06C19.06 18.42 19.05 18.33 19.05 18.24C19.05 15.96 19.05 13.68 19.05 11.41C19.05 11.19 18.97 11.06 18.8 10.95C17.62 10.18 16.42 9.45 15.23 8.71C14.21 8.07 13.18 7.46 12.18 6.79C12.06 6.71 11.98 6.7 11.85 6.79C10.38 7.73 8.88003 8.62 7.39003 9.54C6.63003 10.01 5.88003 10.49 5.12003 10.96C4.93003 11.08 4.86003 11.22 4.86003 11.44C4.86003 13.8 4.86003 16.16 4.86003 18.53H4.18003C4.18003 16.22 4.18003 13.91 4.18003 11.6C4.18003 11.6 4.18003 11.59 4.18003 11.58C4.19003 11.45 4.15003 11.39 4.01003 11.43C3.91003 11.46 3.80003 11.47 3.69003 11.46C3.23003 11.42 2.94003 11.16 2.78003 10.74V10.2L2.80003 10.17Z" fill="#222222"/>
<path fill-rule="evenodd" clip-rule="evenodd" d="M17.16 15.68C17.16 15.63 17.17 15.57 17.18 15.52C17.18 15.46 17.21 15.41 17.26 15.39L17.55 15.25L17.44 14.8H17.13C17.08 14.82 17.03 14.79 17 14.74C16.97 14.69 16.94 14.64 16.91 14.6C16.88 14.56 16.85 14.52 16.81 14.48C16.77 14.44 16.75 14.38 16.77 14.33L16.88 14.03L16.49 13.79L16.29 14.01C16.29 14.01 16.2 14.07 16.14 14.06C16.03 14.03 15.92 14.01 15.81 14.01C15.75 14.01 15.7 13.98 15.68 13.93L15.54 13.64L15.09 13.75V14.06C15.11 14.11 15.08 14.16 15.03 14.19C14.98 14.22 14.93 14.25 14.89 14.28C14.85 14.31 14.81 14.34 14.77 14.38C14.73 14.42 14.67 14.44 14.62 14.42L14.32 14.32L14.08 14.71L14.3 14.91C14.3 14.91 14.36 15 14.35 15.06C14.32 15.17 14.3 15.28 14.3 15.39C14.3 15.45 14.27 15.5 14.22 15.52L13.93 15.66L14.04 16.11H14.35C14.4 16.09 14.45 16.12 14.48 16.17C14.53 16.27 14.6 16.36 14.67 16.44C14.71 16.48 14.73 16.54 14.71 16.59L14.6 16.89L14.99 17.13L15.19 16.91C15.19 16.91 15.28 16.85 15.34 16.86C15.45 16.89 15.56 16.91 15.67 16.91C15.73 16.91 15.78 16.94 15.8 16.99L15.94 17.28L16.39 17.17V16.86C16.37 16.81 16.4 16.76 16.45 16.73C16.5 16.7 16.55 16.67 16.59 16.64C16.63 16.61 16.67 16.58 16.71 16.54C16.75 16.5 16.81 16.48 16.86 16.5L17.16 16.61L17.4 16.22L17.18 16.02C17.18 16.02 17.12 15.93 17.13 15.87C17.15 15.81 17.16 15.76 17.17 15.7L17.16 15.68ZM16.54 15.93C16.54 15.93 16.54 15.94 16.53 15.95C16.26 16.39 15.68 16.53 15.24 16.26C14.8 15.99 14.66 15.41 14.93 14.97C15.2 14.54 15.76 14.4 16.2 14.65C16.2 14.65 16.21 14.65 16.22 14.66C16.65 14.93 16.79 15.49 16.54 15.93ZM10.85 10.92C10.91 10.93 10.95 10.97 10.96 11.03C11.01 11.27 11.1 11.49 11.23 11.69C11.26 11.74 11.26 11.8 11.23 11.85L10.97 12.25L11.26 12.54L11.64 12.28C11.64 12.28 11.75 12.25 11.8 12.28C11.9 12.35 12.01 12.4 12.12 12.45C12.23 12.5 12.35 12.53 12.46 12.56C12.51 12.57 12.56 12.61 12.57 12.67L12.67 13.14H13.08L13.17 12.68C13.18 12.62 13.22 12.58 13.28 12.57C13.52 12.52 13.74 12.43 13.94 12.3C13.99 12.27 14.05 12.27 14.1 12.3L14.5 12.56L14.79 12.27L14.53 11.89C14.53 11.89 14.5 11.78 14.53 11.73C14.66 11.53 14.76 11.3 14.81 11.07C14.82 11.02 14.86 10.97 14.92 10.96L15.39 10.86V10.45L14.93 10.36C14.87 10.35 14.83 10.31 14.82 10.25C14.77 10.01 14.68 9.79 14.55 9.59C14.52 9.54 14.52 9.48 14.55 9.43L14.81 9.03L14.52 8.74L14.14 9C14.14 9 14.03 9.03 13.98 9C13.78 8.87 13.55 8.77 13.32 8.72C13.27 8.71 13.22 8.67 13.21 8.61L13.11 8.14H12.7L12.61 8.6C12.6 8.66 12.56 8.7 12.5 8.71C12.26 8.76 12.04 8.85 11.84 8.98C11.79 9.01 11.73 9.01 11.68 8.98L11.28 8.72L10.99 9.01L11.25 9.39C11.25 9.39 11.28 9.5 11.25 9.55C11.12 9.75 11.02 9.98 10.97 10.21C10.96 10.26 10.92 10.31 10.86 10.32L10.39 10.42V10.83L10.85 10.92ZM11.86 9.62C12.42 9.06 13.32 9.06 13.88 9.62C14.44 10.18 14.44 11.08 13.88 11.64C13.32 12.2 12.42 12.2 11.86 11.64C11.3 11.08 11.3 10.18 11.86 9.62ZM12.05 15.75C11.99 15.74 11.95 15.7 11.94 15.64C11.87 15.32 11.75 15.02 11.57 14.74C11.54 14.69 11.54 14.63 11.57 14.58L11.94 14.02L11.5 13.59L10.96 13.96C10.96 13.96 10.85 13.99 10.8 13.96C10.66 13.87 10.52 13.79 10.37 13.73C10.22 13.67 10.06 13.62 9.89997 13.58C9.84997 13.57 9.79997 13.53 9.78997 13.47L9.64997 12.81H9.02997L8.89997 13.46C8.88997 13.52 8.84997 13.56 8.78997 13.57C8.46997 13.64 8.16997 13.76 7.88997 13.94C7.83997 13.97 7.77997 13.97 7.72997 13.94L7.16997 13.57L6.73997 14.01L7.10997 14.55C7.10997 14.55 7.13997 14.66 7.10997 14.71C6.92997 14.98 6.79997 15.29 6.73997 15.61C6.72997 15.66 6.68997 15.71 6.62997 15.72L5.96997 15.86V16.48L6.61997 16.61C6.67997 16.62 6.71997 16.66 6.72997 16.72C6.79997 17.04 6.91997 17.34 7.09997 17.62C7.12997 17.67 7.12997 17.73 7.09997 17.78L6.72997 18.34L7.16997 18.77L7.70997 18.4C7.70997 18.4 7.81997 18.37 7.86997 18.4C8.00997 18.49 8.14997 18.57 8.29997 18.63C8.44997 18.69 8.60997 18.74 8.76997 18.78C8.81997 18.79 8.86997 18.83 8.87997 18.89L9.01997 19.55H9.63997L9.76997 18.9C9.77997 18.84 9.81997 18.8 9.87997 18.79C10.2 18.72 10.5 18.6 10.78 18.42C10.83 18.39 10.89 18.39 10.94 18.42L11.5 18.79L11.93 18.35L11.56 17.81C11.56 17.81 11.53 17.7 11.56 17.65C11.74 17.38 11.87 17.07 11.93 16.75C11.94 16.7 11.98 16.65 12.04 16.64L12.7 16.5V15.88L12.05 15.75ZM10.67 17.49C9.94997 18.22 8.76997 18.22 8.03997 17.5C7.31997 16.78 7.30997 15.6 8.02997 14.87C8.74997 14.14 9.92997 14.14 10.66 14.86C11.38 15.58 11.39 16.76 10.67 17.49ZM6.94997 12.41C7.29997 11.27 8.01997 10.28 8.97997 9.58L8.59997 9.51C8.51997 9.5 8.46997 9.43 8.47997 9.35C8.48997 9.27 8.55997 9.22 8.63997 9.23L9.35997 9.36C9.43997 9.37 9.48997 9.45 9.46997 9.52L9.33997 10.24C9.32997 10.32 9.25997 10.37 9.17997 10.36C9.09997 10.35 9.04997 10.28 9.05997 10.2L9.12997 9.81C8.21997 10.48 7.53997 11.42 7.19997 12.5C7.17997 12.57 7.09997 12.62 7.01997 12.59C6.94997 12.57 6.89997 12.49 6.92997 12.41H6.94997ZM18 12.42L17.67 13.06C17.64 13.13 17.56 13.17 17.49 13.14C17.49 13.14 17.48 13.14 17.47 13.13L16.83 12.8C16.76 12.77 16.73 12.68 16.76 12.61C16.79 12.54 16.88 12.51 16.95 12.54L17.33 12.73C17.16 12.08 16.87 11.47 16.48 10.93C16.43 10.87 16.45 10.78 16.51 10.73C16.57 10.68 16.66 10.7 16.71 10.76C17.11 11.31 17.41 11.93 17.59 12.58L17.75 12.27C17.79 12.2 17.87 12.17 17.94 12.21C18.01 12.25 18.04 12.33 18 12.4V12.42ZM15.48 18.38C15.53 18.44 15.51 18.53 15.45 18.58C14.78 19.05 14.02 19.37 13.21 19.52L13.52 19.75C13.58 19.8 13.59 19.89 13.55 19.95C13.5 20.01 13.41 20.02 13.35 19.98L12.77 19.54C12.71 19.49 12.7 19.4 12.74 19.34L13.18 18.76C13.23 18.7 13.32 18.69 13.38 18.73C13.44 18.77 13.45 18.87 13.41 18.93L13.18 19.24C13.94 19.1 14.66 18.8 15.29 18.36C15.35 18.31 15.44 18.33 15.49 18.39L15.48 18.38Z" fill="#222222"/>
</svg>
