<svg width="24" height="24" viewBox="0 0 24 24" fill="none" xmlns="http://www.w3.org/2000/svg">
<path d="M13.3622 16.9483C13.3622 17.7276 12.7551 18.3479 12 18.3479C11.2449 18.3479 10.6378 17.7276 10.6378 16.9483V11H10V16.943C10 18.0669 10.8878 19 12 19C13.1122 19 14 18.0828 14 16.943V15.1087H13.3622V16.943V16.9483Z" fill="#222222"/>
<path d="M12 14H15V15.25H12V14Z" fill="#222222"/>
<path d="M9 10H12V11H9V10Z" fill="#222222"/>
<path d="M13.626 13.9464C13.626 13.7277 13.8264 13.5536 14.0718 13.5536H16V13H13.7913C13.3606 13 13 13.3036 13 13.6964V14H13.626V13.942V13.9464Z" fill="#222222"/>
<path d="M16 12H17V15H16V12Z" fill="#222222"/>
<path d="M13 11.4957L13.5043 11L14 11.4957L13.5043 12L13 11.4957Z" fill="#222222"/>
<path d="M8.5 15C8.77907 15 9 15.2262 9 15.5C9 15.7738 8.77907 16 8.5 16C8.22093 16 8 15.7738 8 15.5C8 15.2262 8.22093 15 8.5 15Z" fill="#222222"/>
<path d="M12 4.67268L20.697 12.5H19H18.5V13V20.5H5.5V13V12.5H5H3.30298L12 4.67268ZM12.3345 6.31835L12 6.01732L11.6655 6.31835L6.66552 10.8184L6.5 10.9673V11.19V19V19.5H7H17H17.5V19V11.19V10.9673L17.3345 10.8184L12.3345 6.31835Z" fill="#222222" stroke="#222222"/>
</svg>
