<svg width="24" height="24" viewBox="0 0 24 24" fill="none" xmlns="http://www.w3.org/2000/svg">
<path d="M7.2467 6.83509C6.5067 6.75509 5.8367 6.50509 5.7467 5.68509C5.6967 5.26509 6.1067 4.92509 6.5667 5.03509C7.3167 5.21509 7.7167 5.80509 7.8367 6.52509C7.9167 7.04509 7.4967 6.82509 7.2467 6.82509V6.83509Z" fill="#222222"/>
<path d="M16.5267 6.91508C16.4567 6.25508 16.7967 5.77508 17.1467 5.35508C17.5167 4.91508 18.0867 4.87508 18.4367 5.28508C18.7467 5.65508 18.4867 6.10508 18.1067 6.39508C17.6567 6.74508 17.1267 6.86508 16.5167 6.91508H16.5267Z" fill="#222222"/>
<path d="M4.14668 11.2751C3.53668 11.7551 2.95668 12.2251 2.19668 11.6751C1.91668 11.4651 1.94668 11.1251 2.21668 10.9351C2.94668 10.4051 3.54668 10.7551 4.14668 11.2851V11.2751Z" fill="#222222"/>
<path d="M19.8267 11.2651C20.4967 10.7551 21.1067 10.3651 21.8267 10.9651C22.0367 11.1451 22.0767 11.4351 21.8367 11.6351C21.0967 12.2451 20.5167 11.7751 19.8267 11.2651Z" fill="#222222"/>
<path d="M8.78664 7.36508C9.39664 7.50508 9.53664 7.98508 9.59664 8.51508C9.62664 8.74508 9.59664 9.01508 9.28664 8.92508C8.74664 8.77508 8.23664 8.52508 8.19664 7.87508C8.17664 7.54508 8.43664 7.37508 8.78664 7.37508V7.36508Z" fill="#222222"/>
<path d="M15.0567 8.93508C14.6867 8.93508 14.7467 8.66508 14.7867 8.47508C14.8967 7.92508 15.0667 7.37508 15.7667 7.39508C16.1067 7.39508 16.2467 7.70508 16.1667 8.03508C16.0267 8.61508 15.5367 8.78508 15.0567 8.93508Z" fill="#222222"/>
<path d="M6.44665 11.7451C5.77665 11.9451 5.25665 12.2051 4.85665 11.5851C4.75665 11.4251 4.79665 11.2151 4.99665 11.1251C5.62665 10.8251 5.99665 11.1851 6.44665 11.7451Z" fill="#222222"/>
<path d="M17.5566 11.7451C18.0066 11.1951 18.3666 10.8251 19.0066 11.1151C19.2066 11.2051 19.2566 11.4151 19.1566 11.5751C18.7666 12.2051 18.2366 11.9451 17.5566 11.7451Z" fill="#222222"/>
<path d="M9.94666 9.53508C10.3667 9.53508 10.4767 9.85508 10.5167 10.1851C10.5467 10.4151 10.6367 10.7851 10.2467 10.7551C9.91666 10.7351 9.66666 10.4551 9.59666 10.1051C9.53666 9.82508 9.59666 9.59508 9.94666 9.53508Z" fill="#222222"/>
<path d="M14.8467 10.0351C14.7667 10.4351 14.5167 10.7151 14.1267 10.7551C13.8167 10.7851 13.8667 10.4551 13.8767 10.2651C13.8967 9.86508 14.0567 9.53508 14.5267 9.55508C14.7967 9.56508 14.8667 9.79508 14.8467 10.0351Z" fill="#222222"/>
<path d="M7.23671 11.7651C7.52671 11.7951 7.76671 11.9451 7.82671 12.2551C7.87671 12.4951 7.65671 12.5351 7.48671 12.5451C7.17671 12.5451 6.90671 12.4451 6.86671 12.1051C6.84671 11.9151 7.01671 11.8051 7.23671 11.7751V11.7651Z" fill="#222222"/>
<path d="M16.0666 12.4351C16.2066 12.0151 16.4066 11.7251 16.8866 11.8051C17.0766 11.8351 17.2166 12.0151 17.1066 12.1951C16.8666 12.6151 16.4966 12.6251 16.0566 12.4351H16.0666Z" fill="#222222"/>
<path d="M11.1467 12.4851C10.6867 12.3951 10.4567 12.1551 10.5467 11.7151C10.5567 11.6551 10.7467 11.5651 10.8167 11.5951C11.2767 11.7551 11.2467 12.0951 11.1467 12.4851Z" fill="#222222"/>
<path d="M13.8566 12.2251C13.6566 12.2051 13.3966 12.7051 13.2666 12.2351C13.1566 11.8251 13.3566 11.5151 13.8766 11.6051C13.8766 11.8151 13.8666 12.0151 13.8566 12.2251Z" fill="#222222"/>
<path d="M9.33662 13.0351C9.27662 13.2051 9.12662 13.2051 8.98662 13.1951C8.79662 13.1851 8.60662 13.1251 8.58662 12.9051C8.55662 12.6251 8.76662 12.6451 8.95662 12.6751C9.15662 12.7051 9.26662 12.8551 9.33662 13.0251V13.0351Z" fill="#222222"/>
<path d="M15.4066 13.1251C15.1666 13.0451 14.4666 13.6751 14.7866 12.7251C15.1266 12.6551 15.5266 12.4851 15.4066 13.1251Z" fill="#222222"/>
<path d="M12.4266 14.0451C12.2366 13.7351 12.0066 13.5151 12.2166 13.2151C12.3166 13.0751 12.4766 13.1351 12.5766 13.2451C12.8466 13.5251 12.6566 13.7451 12.4266 14.0351V14.0451Z" fill="#222222"/>
<path d="M17.4267 17.8701H6.56667C6.0917 17.8701 5.70667 18.2551 5.70667 18.7301V18.9001C5.70667 19.375 6.0917 19.7601 6.56667 19.7601H17.4267C17.9016 19.7601 18.2867 19.375 18.2867 18.9001V18.7301C18.2867 18.2551 17.9016 17.8701 17.4267 17.8701Z" fill="#222222"/>
<path d="M12.9466 15.6701H11.0566V19.4401H12.9466V15.6701Z" fill="#222222"/>
<path d="M9.47668 17.5601C9.47668 17.5601 9.03668 15.9201 9.47668 15.5701C10.3667 14.8701 13.6167 14.8701 14.5067 15.5701C14.9467 15.9201 14.5067 17.5601 14.5067 17.5601H9.47668Z" fill="#222222"/>
</svg>
