<svg width="24" height="24" viewBox="0 0 24 24" fill="none" xmlns="http://www.w3.org/2000/svg">
<path d="M2.83006 21.44C2.94006 21.25 3.10006 21.19 3.32006 21.19C5.42006 21.19 7.52006 21.19 9.61006 21.19C9.79006 21.19 9.87006 21.15 9.92006 20.97C10.0401 20.52 10.3001 20.16 10.6701 19.88C10.7701 19.81 10.8001 19.72 10.8001 19.6C10.8001 17.98 10.8001 16.35 10.8001 14.73C10.8001 14.56 10.7501 14.49 10.5801 14.51C10.4201 14.52 10.2601 14.51 10.0901 14.51C9.77006 14.51 9.63006 14.37 9.62006 14.05C9.62006 12.61 9.62006 11.18 9.62006 9.74C9.62006 9.53 9.56006 9.39 9.38006 9.28C9.09006 9.09 8.81006 8.87 8.53006 8.67C8.43006 8.59 8.35006 8.58 8.24006 8.67C8.08006 8.81 7.88006 8.9 7.68006 8.97C7.56006 9.01 7.52006 9.08 7.51006 9.2C7.50006 9.34 7.49006 9.48 7.47006 9.63C7.44006 9.85 7.26006 10 7.06006 9.99C6.85006 9.99 6.68006 9.81 6.67006 9.58C6.66006 9.4 6.76006 9.18 6.67006 9.05C6.58006 8.93 6.35006 8.93 6.20006 8.85C6.04006 8.76 5.99006 8.8 5.98006 8.96C5.96006 9.21 5.93006 9.47 5.93006 9.72C5.93006 10.73 5.93006 11.73 5.93006 12.74C5.93006 13 5.80006 13.16 5.59006 13.19C5.33006 13.22 5.13006 13.05 5.13006 12.79C5.13006 12.48 5.13006 12.18 5.13006 11.87C5.13006 11.73 5.09006 11.73 4.98006 11.79C4.60006 11.99 4.33006 12.49 4.39006 12.9C4.47006 13.44 4.82006 13.83 5.30006 13.92C5.93006 14.03 6.48006 13.68 6.65006 13.06C6.73006 12.78 6.93006 12.63 7.16006 12.7C7.41006 12.77 7.52006 12.98 7.45006 13.27C7.23006 14.23 6.30006 14.87 5.28006 14.76C4.33006 14.66 3.58006 13.81 3.57006 12.84C3.57006 11.95 4.08006 11.21 4.93006 10.93C5.09006 10.88 5.13006 10.8 5.13006 10.64C5.13006 9.97 5.08006 9.29 5.21006 8.62C5.21006 8.6 5.21006 8.58 5.21006 8.56C5.31006 8.24 5.28006 7.93 5.19006 7.6C4.86006 6.41 5.72006 5.24 6.94006 5.15C7.06006 5.15 7.14006 5.08 7.23006 5.01C8.06006 4.37 8.97006 3.88 10.0201 3.69C10.2301 3.65 10.4401 3.62 10.6601 3.6C10.7801 3.59 10.8201 3.54 10.8201 3.43C10.8201 3.29 10.8101 3.14 10.8301 3C10.9301 2.39 11.4901 1.98 12.1401 2.03C12.7101 2.08 13.1801 2.6 13.1801 3.2C13.1801 3.46 13.3134 3.59 13.5801 3.59C14.2401 3.59 14.7401 4.11 14.7401 4.78C14.7401 5.44 14.2301 5.95 13.5701 5.96C13.1801 5.96 13.1801 5.96 13.1801 6.36C13.1801 6.76 13.1401 6.71 13.5301 6.71C13.6501 6.71 13.7801 6.71 13.9001 6.71C14.1901 6.71 14.3401 6.86 14.3401 7.16C14.3401 7.83 14.3401 8.5 14.3401 9.17C14.3401 9.36 14.4001 9.42 14.5801 9.41C14.8501 9.4 15.1301 9.41 15.4001 9.41C15.5101 9.41 15.5701 9.37 15.5601 9.25C15.5601 9.15 15.5601 9.05 15.5601 8.96C15.5701 8.79 15.5601 8.66 15.3401 8.62C15.1601 8.59 15.0701 8.38 15.1001 8.18C15.1301 8 15.2701 7.86 15.4601 7.85C15.8001 7.85 16.1401 7.85 16.4701 7.85C16.6701 7.85 16.8101 8.01 16.8301 8.2C16.8501 8.41 16.7401 8.6 16.5301 8.64C16.3801 8.67 16.3501 8.74 16.3601 8.86C16.3601 8.87 16.3601 8.89 16.3601 8.9C16.3001 9.26 16.4101 9.45 16.7901 9.61C17.5201 9.92 17.9001 10.53 17.9201 11.33C17.9301 11.84 17.9201 12.36 17.9201 12.87C17.9201 13.19 17.7701 13.33 17.4501 13.33C16.9701 13.33 16.4901 13.33 16.0101 13.33C15.7001 13.33 15.5601 13.18 15.5501 12.88C15.5501 12.57 15.5501 12.26 15.5501 11.94C15.5501 11.81 15.5101 11.77 15.3801 11.77C15.0901 11.77 14.8101 11.77 14.5201 11.77C14.3601 11.77 14.3201 11.83 14.3201 11.98C14.3201 12.67 14.3201 13.36 14.3201 14.05C14.3201 14.41 14.1901 14.55 13.8301 14.55C13.6701 14.55 13.5201 14.55 13.3601 14.55C13.2001 14.54 13.1401 14.59 13.1501 14.76C13.1501 15.17 13.1501 15.58 13.1501 15.99C13.1501 17.2 13.1501 18.41 13.1501 19.62C13.1501 19.76 13.1901 19.86 13.3101 19.95C13.6801 20.23 13.9301 20.6 14.0501 21.04C14.0901 21.2 14.1601 21.26 14.3201 21.24C14.3801 21.24 14.4401 21.24 14.5001 21.24C14.6601 21.26 14.7001 21.19 14.7001 21.04C14.7001 20.26 14.7001 19.48 14.7001 18.7C14.7001 18.54 14.6401 18.49 14.4901 18.49C14.0401 18.49 13.9201 18.37 13.9201 17.93C13.9201 17.48 13.9201 17.03 13.9201 16.59C13.9201 16.28 14.0701 16.11 14.3801 16.11C15.9501 16.11 17.5201 16.11 19.1001 16.11C19.4101 16.11 19.5601 16.27 19.5601 16.58C19.5601 17.05 19.5601 17.53 19.5601 18C19.5601 18.34 19.4101 18.49 19.0701 18.49C18.8767 18.49 18.7801 18.59 18.7801 18.79C18.7801 19.52 18.7801 20.26 18.7801 20.99C18.7801 21.19 18.8401 21.24 19.0401 21.24C19.5801 21.23 20.1201 21.24 20.6601 21.24C20.9401 21.24 21.0801 21.32 21.1501 21.51C21.2201 21.71 21.1501 21.87 20.9201 22.04C14.9501 22.04 8.98006 22.04 3.01006 22.04C2.86006 22.04 2.82006 22.01 2.83006 21.86C2.84006 21.74 2.83006 21.61 2.83006 21.49V21.44ZM11.9901 11.56C12.4401 11.56 12.8901 11.56 13.3301 11.56C13.4901 11.56 13.5401 11.51 13.5401 11.35C13.5401 10.84 13.5401 10.34 13.5401 9.83C13.5401 9.69 13.5001 9.64 13.3501 9.64C12.4501 9.64 11.5401 9.64 10.6401 9.64C10.4801 9.64 10.4401 9.69 10.4401 9.84C10.4401 10.35 10.4401 10.85 10.4401 11.36C10.4401 11.51 10.4801 11.57 10.6401 11.56C11.0901 11.56 11.5401 11.56 11.9801 11.56H11.9901ZM8.09006 5.39C8.25006 5.52 8.42006 5.62 8.53006 5.77C8.61006 5.89 8.68006 5.89 8.80006 5.82C9.56006 5.34 10.3901 5.11 11.3001 5.13C12.0301 5.14 12.7501 5.13 13.4801 5.13C13.7401 5.13 13.9001 4.98 13.9101 4.77C13.9201 4.56 13.7501 4.38 13.5001 4.38C12.4401 4.39 11.3801 4.3 10.3301 4.45C9.51006 4.57 8.77006 4.88 8.08006 5.38L8.09006 5.39ZM11.9901 8.83C12.4401 8.83 12.9001 8.83 13.3501 8.83C13.4801 8.83 13.5401 8.79 13.5301 8.65C13.5301 8.32 13.5301 7.99 13.5301 7.66C13.5301 7.53 13.4801 7.49 13.3601 7.49C12.4401 7.49 11.5301 7.49 10.6101 7.49C10.4901 7.49 10.4301 7.53 10.4401 7.66C10.4401 7.99 10.4401 8.32 10.4401 8.65C10.4401 8.79 10.4901 8.83 10.6201 8.83C11.0701 8.83 11.5301 8.83 11.9801 8.83H11.9901ZM11.9801 13.71C12.4301 13.71 12.8901 13.71 13.3401 13.71C13.4901 13.71 13.5401 13.66 13.5401 13.51C13.5401 13.19 13.5401 12.87 13.5401 12.56C13.5401 12.43 13.5001 12.37 13.3601 12.38C12.4401 12.38 11.5301 12.38 10.6101 12.38C10.4801 12.38 10.4401 12.43 10.4401 12.55C10.4401 12.87 10.4401 13.2 10.4401 13.52C10.4401 13.68 10.5001 13.72 10.6501 13.71C11.0901 13.71 11.5301 13.71 11.9801 13.71ZM7.07006 8.25C7.68006 8.27 8.21006 7.76 8.24006 7.12C8.27006 6.51 7.74006 5.96 7.10006 5.94C6.49006 5.92 5.96006 6.43 5.93006 7.07C5.90006 7.68 6.43006 8.23 7.07006 8.25ZM11.6201 16.96C11.6201 17.64 11.6201 18.31 11.6201 18.99C11.6201 19.29 11.7734 19.4433 12.0801 19.45C12.0801 19.45 12.1201 19.45 12.1401 19.45C12.3401 19.49 12.3801 19.39 12.3801 19.21C12.3801 17.83 12.3801 16.44 12.3801 15.06C12.3801 14.51 12.3801 14.52 11.8401 14.52C11.6601 14.52 11.6201 14.58 11.6201 14.75C11.6201 15.49 11.6201 16.23 11.6201 16.97V16.96ZM15.2301 10.94C15.4601 10.94 15.7001 10.94 15.9301 10.94C16.2101 10.94 16.3601 11.09 16.3701 11.37C16.3701 11.56 16.3701 11.75 16.3701 11.93C16.3701 12.52 16.3701 12.52 16.9601 12.5C17.0701 12.5 17.1201 12.46 17.1201 12.34C17.1201 12.01 17.1301 11.68 17.1201 11.35C17.0901 10.72 16.7101 10.29 16.0801 10.21C15.5501 10.14 15.0101 10.2 14.4701 10.19C14.3801 10.19 14.3401 10.24 14.3501 10.32C14.3501 10.47 14.3501 10.62 14.3501 10.77C14.3501 10.9 14.3901 10.94 14.5201 10.94C14.7601 10.94 15.0001 10.94 15.2401 10.94H15.2301ZM16.7501 17.61H18.2901C18.6034 17.61 18.7601 17.4533 18.7601 17.14C18.7601 16.89 18.7601 16.89 18.5001 16.89C17.4201 16.89 16.3301 16.89 15.2501 16.89C14.7301 16.89 14.7401 16.89 14.7401 17.4C14.7401 17.58 14.8001 17.62 14.9701 17.62C15.5701 17.62 16.1601 17.62 16.7601 17.62L16.7501 17.61ZM15.5201 19.82C15.5201 20.21 15.5201 20.6 15.5201 20.99C15.5201 21.14 15.5601 21.21 15.7201 21.19C15.8701 21.18 16.0201 21.19 16.1701 21.19C16.3101 21.19 16.3601 21.15 16.3601 21C16.3601 20.21 16.3601 19.42 16.3601 18.63C16.3601 18.48 16.3001 18.44 16.1601 18.44C16.0101 18.44 15.8601 18.44 15.7101 18.44C15.5701 18.44 15.5201 18.49 15.5201 18.63C15.5201 19.03 15.5201 19.42 15.5201 19.82ZM17.9801 19.82C17.9801 19.57 17.9801 19.31 17.9801 19.06C17.9801 18.64 17.7667 18.4333 17.3401 18.44C17.3401 18.44 17.3101 18.44 17.3001 18.44C17.2001 18.44 17.1501 18.48 17.1501 18.59C17.1501 19.41 17.1501 20.22 17.1501 21.04C17.1501 21.15 17.2001 21.19 17.3001 21.19C17.4501 21.19 17.6001 21.18 17.7501 21.19C17.9201 21.2 17.9901 21.15 17.9901 20.96C17.9801 20.58 17.9901 20.19 17.9901 19.81L17.9801 19.82ZM9.64006 8.44C9.64006 7.99 9.64006 7.59 9.64006 7.18C9.64006 6.82 9.78006 6.69 10.1401 6.69C10.1901 6.69 10.2401 6.69 10.3001 6.69C10.6534 6.69 10.8267 6.51 10.8201 6.15C10.8201 6.15 10.8201 6.12 10.8201 6.11C10.8201 6.01 10.7801 5.97 10.6801 5.99C10.1101 6.08 9.59006 6.29 9.12006 6.61C9.06006 6.65 9.02006 6.7 9.04006 6.79C9.09006 7.13 9.06006 7.46 8.94006 7.79C8.91006 7.86 8.91006 7.91 8.98006 7.96C9.20006 8.11 9.41006 8.27 9.66006 8.45L9.64006 8.44ZM12.0001 21.19C12.3701 21.19 12.7401 21.19 13.1101 21.19C13.2401 21.19 13.2701 21.16 13.2201 21.03C13.0301 20.58 12.5001 20.22 12.0001 20.24C11.4501 20.26 11.0401 20.52 10.7901 21.02C10.7201 21.15 10.7701 21.19 10.9001 21.19C11.2701 21.19 11.6401 21.19 12.0101 21.19H12.0001ZM11.9901 6.69C12.4201 6.69 12.3601 6.74 12.3701 6.32C12.3701 6.32 12.3701 6.31 12.3701 6.3C12.3701 5.89 12.4201 5.94 12.0001 5.94C11.5601 5.94 11.6201 5.88 11.6201 6.32C11.6201 6.74 11.5701 6.69 12.0001 6.69H11.9901ZM11.6101 3.33C11.5701 3.52 11.6601 3.59 11.8401 3.57C11.9001 3.57 11.9701 3.57 12.0301 3.57C12.3801 3.57 12.4001 3.54 12.3501 3.19C12.3501 3.18 12.3501 3.16 12.3501 3.15C12.3101 2.96 12.1701 2.83 12.0001 2.82C11.8201 2.82 11.6701 2.95 11.6301 3.15C11.6201 3.21 11.6201 3.27 11.6101 3.32V3.33Z" fill="#222222"/>
<path d="M7.48005 11.33C7.48005 11.56 7.30005 11.74 7.08005 11.74C6.86005 11.74 6.68005 11.56 6.68005 11.33C6.68005 11.1 6.86005 10.92 7.08005 10.92C7.30005 10.92 7.48005 11.11 7.48005 11.33Z" fill="#222222"/>
</svg>
